<svg viewBox="0 -3400 10000 10000" xmlns="http://www.w3.org/2000/svg">
<path d="M1088,3680 L1024,3680 z" fill="none" stroke="black" stroke-width="10"/>
<path d="M1024,3680 L1024,3648 z" fill="none" stroke="black" stroke-width="10"/>
<path d="M1088,3648 L1088,3680 z" fill="none" stroke="black" stroke-width="10"/>
<path d="M1152,3648 L1088,3648 z" fill="none" stroke="black" stroke-width="10"/>
<path d="M1024,3648 L960,3648 z" fill="none" stroke="black" stroke-width="10"/>
<path d="M1280,3552 L1152,3648 z" fill="none" stroke="black" stroke-width="10"/>
<path d="M960,3648 L832,3552 z" fill="none" stroke="black" stroke-width="10"/>
<path d="M1344,3552 L1280,3552 z" fill="none" stroke="black" stroke-width="10"/>
<path d="M832,3552 L704,3552 z" fill="none" stroke="black" stroke-width="10"/>
<path d="M896,3392 L928,3392 z" fill="none" stroke="black" stroke-width="10"/>
<path d="M928,3392 L928,3360 z" fill="none" stroke="black" stroke-width="10"/>
<path d="M928,3360 L896,3360 z" fill="none" stroke="black" stroke-width="10"/>
<path d="M896,3360 L896,3392 z" fill="none" stroke="black" stroke-width="10"/>
<path d="M1184,3392 L1216,3392 z" fill="none" stroke="black" stroke-width="10"/>
<path d="M1216,3392 L1216,3360 z" fill="none" stroke="black" stroke-width="10"/>
<path d="M1216,3360 L1184,3360 z" fill="none" stroke="black" stroke-width="10"/>
<path d="M1184,3360 L1184,3392 z" fill="none" stroke="black" stroke-width="10"/>
<path d="M896,3072 L896,3104 z" fill="none" stroke="black" stroke-width="10"/>
<path d="M896,3104 L928,3104 z" fill="none" stroke="black" stroke-width="10"/>
<path d="M928,3104 L928,3072 z" fill="none" stroke="black" stroke-width="10"/>
<path d="M928,3072 L896,3072 z" fill="none" stroke="black" stroke-width="10"/>
<path d="M1216,3072 L1184,3072 z" fill="none" stroke="black" stroke-width="10"/>
<path d="M1184,3072 L1184,3104 z" fill="none" stroke="black" stroke-width="10"/>
<path d="M1184,3104 L1216,3104 z" fill="none" stroke="black" stroke-width="10"/>
<path d="M1216,3104 L1216,3072 z" fill="none" stroke="black" stroke-width="10"/>
<path d="M1344,3264 L1344,3360 z" fill="none" stroke="black" stroke-width="10"/>
<path d="M1344,3200 L1344,3264 z" fill="none" stroke="black" stroke-width="10"/>
<path d="M1344,2880 L1344,3104 z" fill="none" stroke="black" stroke-width="10"/>
<path d="M1344,3104 L1344,3200 z" fill="none" stroke="black" stroke-width="10"/>
<path d="M1376,3200 L1376,3104 z" fill="none" stroke="black" stroke-width="10"/>
<path d="M1376,3360 L1376,3264 z" fill="none" stroke="black" stroke-width="10"/>
<path d="M1344,3264 L1376,3264 z" fill="none" stroke="black" stroke-width="10"/>
<path d="M1376,3360 L1344,3360 z" fill="none" stroke="black" stroke-width="10"/>
<path d="M1376,3200 L1344,3200 z" fill="none" stroke="black" stroke-width="10"/>
<path d="M1344,3104 L1376,3104 z" fill="none" stroke="black" stroke-width="10"/>
<path d="M1376,3264 L1376,3200 z" fill="none" stroke="black" stroke-width="10"/>
<path d="M1376,3104 L1376,2944 z" fill="none" stroke="black" stroke-width="10"/>
<path d="M1184,3392 L928,3392 z" fill="none" stroke="black" stroke-width="10"/>
<path d="M1344,3360 L1216,3392 z" fill="none" stroke="black" stroke-width="10"/>
<path d="M1216,3072 L1344,3104 z" fill="none" stroke="black" stroke-width="10"/>
<path d="M704,2944 L832,2944 z" fill="none" stroke="black" stroke-width="10"/>
<path d="M832,2944 L968,2880 z" fill="none" stroke="black" stroke-width="10"/>
<path d="M968,2880 L1216,2880 z" fill="none" stroke="black" stroke-width="10"/>
<path d="M1376,2944 L1472,2880 z" fill="none" stroke="black" stroke-width="10"/>
<path d="M1528,3680 L1376,3648 z" fill="none" stroke="black" stroke-width="10"/>
<path d="M1672,3744 L1528,3680 z" fill="none" stroke="black" stroke-width="10"/>
<path d="M1088,3648 L1024,3648 z" fill="none" stroke="black" stroke-width="10"/>
<path d="M928,3104 L1184,3104 z" fill="none" stroke="black" stroke-width="10"/>
<path d="M1184,3360 L928,3360 z" fill="none" stroke="black" stroke-width="10"/>
<path d="M928,3360 L928,3104 z" fill="none" stroke="black" stroke-width="10"/>
<path d="M896,3360 L896,3104 z" fill="none" stroke="black" stroke-width="10"/>
<path d="M928,3072 L1184,3072 z" fill="none" stroke="black" stroke-width="10"/>
<path d="M704,3552 L704,3360 z" fill="none" stroke="black" stroke-width="10"/>
<path d="M704,3104 L704,2944 z" fill="none" stroke="black" stroke-width="10"/>
<path d="M704,3104 L704,3360 z" fill="none" stroke="black" stroke-width="10"/>
<path d="M512,3328 L512,3304 z" fill="none" stroke="black" stroke-width="10"/>
<path d="M512,3160 L512,3136 z" fill="none" stroke="black" stroke-width="10"/>
<path d="M512,3136 L680,3104 z" fill="none" stroke="black" stroke-width="10"/>
<path d="M680,3104 L704,3104 z" fill="none" stroke="black" stroke-width="10"/>
<path d="M704,3360 L680,3360 z" fill="none" stroke="black" stroke-width="10"/>
<path d="M680,3360 L512,3328 z" fill="none" stroke="black" stroke-width="10"/>
<path d="M496,3160 L496,3304 z" fill="none" stroke="black" stroke-width="10"/>
<path d="M512,3304 L496,3304 z" fill="none" stroke="black" stroke-width="10"/>
<path d="M496,3160 L512,3160 z" fill="none" stroke="black" stroke-width="10"/>
<path d="M496,3304 L496,3328 z" fill="none" stroke="black" stroke-width="10"/>
<path d="M496,3328 L448,3456 z" fill="none" stroke="black" stroke-width="10"/>
<path d="M448,3456 L128,3456 z" fill="none" stroke="black" stroke-width="10"/>
<path d="M128,3008 L448,3008 z" fill="none" stroke="black" stroke-width="10"/>
<path d="M496,3136 L496,3160 z" fill="none" stroke="black" stroke-width="10"/>
<path d="M448,3008 L496,3136 z" fill="none" stroke="black" stroke-width="10"/>
<path d="M128,3264 L160,3264 z" fill="none" stroke="black" stroke-width="10"/>
<path d="M160,3264 L192,3264 z" fill="none" stroke="black" stroke-width="10"/>
<path d="M192,3264 L224,3264 z" fill="none" stroke="black" stroke-width="10"/>
<path d="M224,3264 L256,3264 z" fill="none" stroke="black" stroke-width="10"/>
<path d="M256,3264 L288,3264 z" fill="none" stroke="black" stroke-width="10"/>
<path d="M288,3264 L320,3264 z" fill="none" stroke="black" stroke-width="10"/>
<path d="M320,3264 L320,3200 z" fill="none" stroke="black" stroke-width="10"/>
<path d="M320,3200 L288,3200 z" fill="none" stroke="black" stroke-width="10"/>
<path d="M288,3200 L256,3200 z" fill="none" stroke="black" stroke-width="10"/>
<path d="M256,3200 L224,3200 z" fill="none" stroke="black" stroke-width="10"/>
<path d="M224,3200 L192,3200 z" fill="none" stroke="black" stroke-width="10"/>
<path d="M192,3200 L160,3200 z" fill="none" stroke="black" stroke-width="10"/>
<path d="M160,3200 L128,3200 z" fill="none" stroke="black" stroke-width="10"/>
<path d="M160,3264 L160,3200 z" fill="none" stroke="black" stroke-width="10"/>
<path d="M192,3264 L192,3200 z" fill="none" stroke="black" stroke-width="10"/>
<path d="M224,3264 L224,3200 z" fill="none" stroke="black" stroke-width="10"/>
<path d="M256,3264 L256,3200 z" fill="none" stroke="black" stroke-width="10"/>
<path d="M288,3264 L288,3200 z" fill="none" stroke="black" stroke-width="10"/>
<path d="M128,3264 L128,3200 z" fill="none" stroke="black" stroke-width="10"/>
<path d="M128,3200 L64,3072 z" fill="none" stroke="black" stroke-width="10"/>
<path d="M64,3072 L128,3008 z" fill="none" stroke="black" stroke-width="10"/>
<path d="M128,3456 L64,3392 z" fill="none" stroke="black" stroke-width="10"/>
<path d="M64,3392 L128,3264 z" fill="none" stroke="black" stroke-width="10"/>
<path d="M64,3392 L48,3392 z" fill="none" stroke="black" stroke-width="10"/>
<path d="M48,3392 L-64,3328 z" fill="none" stroke="black" stroke-width="10"/>
<path d="M-64,3136 L48,3072 z" fill="none" stroke="black" stroke-width="10"/>
<path d="M48,3072 L64,3072 z" fill="none" stroke="black" stroke-width="10"/>
<path d="M-256,3328 L-320,3296 z" fill="none" stroke="black" stroke-width="10"/>
<path d="M-320,3168 L-256,3136 z" fill="none" stroke="black" stroke-width="10"/>
<path d="M-128,3120 L-128,3136 z" fill="none" stroke="black" stroke-width="10"/>
<path d="M-256,3136 L-256,3120 z" fill="none" stroke="black" stroke-width="10"/>
<path d="M-256,3344 L-256,3328 z" fill="none" stroke="black" stroke-width="10"/>
<path d="M-128,3328 L-128,3344 z" fill="none" stroke="black" stroke-width="10"/>
<path d="M-320,3296 L-336,3296 z" fill="none" stroke="black" stroke-width="10"/>
<path d="M-336,3168 L-320,3168 z" fill="none" stroke="black" stroke-width="10"/>
<path d="M-256,3120 L-336,3120 z" fill="none" stroke="black" stroke-width="10"/>
<path d="M-336,3120 L-336,3168 z" fill="none" stroke="black" stroke-width="10"/>
<path d="M-336,3296 L-336,3344 z" fill="none" stroke="black" stroke-width="10"/>
<path d="M-336,3344 L-256,3344 z" fill="none" stroke="black" stroke-width="10"/>
<path d="M-128,3344 L-96,3344 z" fill="none" stroke="black" stroke-width="10"/>
<path d="M-96,3344 L64,3520 z" fill="none" stroke="black" stroke-width="10"/>
<path d="M-96,3120 L-128,3120 z" fill="none" stroke="black" stroke-width="10"/>
<path d="M64,2944 L-96,3120 z" fill="none" stroke="black" stroke-width="10"/>
<path d="M-64,3136 L-64,3328 z" fill="none" stroke="black" stroke-width="10"/>
<path d="M-128,3328 L-256,3328 z" fill="none" stroke="black" stroke-width="10"/>
<path d="M-256,3344 L-128,3344 z" fill="none" stroke="black" stroke-width="10"/>
<path d="M-256,3136 L-128,3136 z" fill="none" stroke="black" stroke-width="10"/>
<path d="M-128,3120 L-256,3120 z" fill="none" stroke="black" stroke-width="10"/>
<path d="M-320,3296 L-320,3168 z" fill="none" stroke="black" stroke-width="10"/>
<path d="M-336,3168 L-336,3296 z" fill="none" stroke="black" stroke-width="10"/>
<path d="M64,2816 L64,2944 z" fill="none" stroke="black" stroke-width="10"/>
<path d="M64,3520 L64,3648 z" fill="none" stroke="black" stroke-width="10"/>
<path d="M64,3648 L-640,3648 z" fill="none" stroke="black" stroke-width="10"/>
<path d="M-640,3648 L-768,3520 z" fill="none" stroke="black" stroke-width="10"/>
<path d="M-768,3520 L-768,2944 z" fill="none" stroke="black" stroke-width="10"/>
<path d="M-768,2944 L-640,2816 z" fill="none" stroke="black" stroke-width="10"/>
<path d="M-640,2816 L64,2816 z" fill="none" stroke="black" stroke-width="10"/>
<path d="M64,3648 L-640,3520 z" fill="none" stroke="black" stroke-width="10"/>
<path d="M-640,3520 L-640,2944 z" fill="none" stroke="black" stroke-width="10"/>
<path d="M-640,2944 L64,2816 z" fill="none" stroke="black" stroke-width="10"/>
<path d="M-128,3136 L-88,3136 z" fill="none" stroke="black" stroke-width="10"/>
<path d="M-88,3136 L-64,3136 z" fill="none" stroke="black" stroke-width="10"/>
<path d="M-64,3328 L-88,3328 z" fill="none" stroke="black" stroke-width="10"/>
<path d="M-88,3328 L-128,3328 z" fill="none" stroke="black" stroke-width="10"/>
<path d="M256,3136 L320,3136 z" fill="none" stroke="black" stroke-width="10"/>
<path d="M320,3136 L320,3072 z" fill="none" stroke="black" stroke-width="10"/>
<path d="M320,3072 L256,3072 z" fill="none" stroke="black" stroke-width="10"/>
<path d="M256,3072 L256,3136 z" fill="none" stroke="black" stroke-width="10"/>
<path d="M256,3392 L320,3392 z" fill="none" stroke="black" stroke-width="10"/>
<path d="M320,3392 L320,3328 z" fill="none" stroke="black" stroke-width="10"/>
<path d="M320,3328 L256,3328 z" fill="none" stroke="black" stroke-width="10"/>
<path d="M256,3328 L256,3392 z" fill="none" stroke="black" stroke-width="10"/>
<path d="M1216,2880 L1248,2528 z" fill="none" stroke="black" stroke-width="10"/>
<path d="M1384,2592 L1344,2880 z" fill="none" stroke="black" stroke-width="10"/>
<path d="M1472,2560 L1384,2592 z" fill="none" stroke="black" stroke-width="10"/>
<path d="M1248,2528 L1472,2432 z" fill="none" stroke="black" stroke-width="10"/>
<path d="M1344,2880 L1216,2880 z" fill="none" stroke="black" stroke-width="10"/>
<path d="M1472,2432 L1472,2560 z" fill="none" stroke="black" stroke-width="10"/>
<path d="M1536,2432 L1536,2560 z" fill="none" stroke="black" stroke-width="10"/>
<path d="M1552,2560 L1552,2432 z" fill="none" stroke="black" stroke-width="10"/>
<path d="M1536,2560 L1472,2560 z" fill="none" stroke="black" stroke-width="10"/>
<path d="M1472,2432 L1536,2432 z" fill="none" stroke="black" stroke-width="10"/>
<path d="M1536,2432 L1552,2432 z" fill="none" stroke="black" stroke-width="10"/>
<path d="M1552,2560 L1536,2560 z" fill="none" stroke="black" stroke-width="10"/>
<path d="M1664,2560 L1552,2560 z" fill="none" stroke="black" stroke-width="10"/>
<path d="M1552,2432 L1664,2432 z" fill="none" stroke="black" stroke-width="10"/>
<path d="M2736,3648 L2488,3744 z" fill="none" stroke="black" stroke-width="10"/>
<path d="M2488,3744 L2240,3776 z" fill="none" stroke="black" stroke-width="10"/>
<path d="M1984,3776 L1672,3744 z" fill="none" stroke="black" stroke-width="10"/>
<path d="M1856,2880 L1920,2920 z" fill="none" stroke="black" stroke-width="10"/>
<path d="M1520,3168 L1672,3104 z" fill="none" stroke="black" stroke-width="10"/>
<path d="M1672,3104 L1896,3104 z" fill="none" stroke="black" stroke-width="10"/>
<path d="M1896,3104 L2040,3144 z" fill="none" stroke="black" stroke-width="10"/>
<path d="M2040,3144 L2128,3272 z" fill="none" stroke="black" stroke-width="10"/>
<path d="M2128,3272 L2064,3408 z" fill="none" stroke="black" stroke-width="10"/>
<path d="M2064,3408 L1784,3448 z" fill="none" stroke="black" stroke-width="10"/>
<path d="M1784,3448 L1544,3384 z" fill="none" stroke="black" stroke-width="10"/>
<path d="M1544,3384 L1520,3168 z" fill="none" stroke="black" stroke-width="10"/>
<path d="M2752,2784 L2624,2784 z" fill="none" stroke="black" stroke-width="10"/>
<path d="M2520,2560 L2752,2560 z" fill="none" stroke="black" stroke-width="10"/>
<path d="M2752,2560 L2944,2656 z" fill="none" stroke="black" stroke-width="10"/>
<path d="M2880,2912 L2880,2880 z" fill="none" stroke="black" stroke-width="10"/>
<path d="M3048,2880 L3048,2944 z" fill="none" stroke="black" stroke-width="10"/>
<path d="M2752,3048 L2752,2912 z" fill="none" stroke="black" stroke-width="10"/>
<path d="M2752,3584 L2752,3360 z" fill="none" stroke="black" stroke-width="10"/>
<path d="M2736,3360 L2736,3648 z" fill="none" stroke="black" stroke-width="10"/>
<path d="M2752,3360 L2736,3360 z" fill="none" stroke="black" stroke-width="10"/>
<path d="M3048,2944 L3304,3040 z" fill="none" stroke="black" stroke-width="10"/>
<path d="M3136,3072 L3304,3040 z" fill="none" stroke="black" stroke-width="10"/>
<path d="M3112,3360 L2944,3536 z" fill="none" stroke="black" stroke-width="10"/>
<path d="M2816,3232 L3112,3360 z" fill="none" stroke="black" stroke-width="10"/>
<path d="M3280,3320 L2984,3200 z" fill="none" stroke="black" stroke-width="10"/>
<path d="M2976,3072 L2816,3232 z" fill="none" stroke="black" stroke-width="10"/>
<path d="M2984,3200 L3136,3072 z" fill="none" stroke="black" stroke-width="10"/>
<path d="M3264,3616 L3072,3648 z" fill="none" stroke="black" stroke-width="10"/>
<path d="M2944,3648 L2752,3584 z" fill="none" stroke="black" stroke-width="10"/>
<path d="M3072,3648 L3072,4000 z" fill="none" stroke="black" stroke-width="10"/>
<path d="M2944,3776 L2944,3648 z" fill="none" stroke="black" stroke-width="10"/>
<path d="M2752,2784 L2944,2656 z" fill="none" stroke="black" stroke-width="10"/>
<path d="M2752,3360 L2944,3536 z" fill="none" stroke="black" stroke-width="10"/>
<path d="M2944,3536 L3072,3648 z" fill="none" stroke="black" stroke-width="10"/>
<path d="M2752,3048 L3048,2880 z" fill="none" stroke="black" stroke-width="10"/>
<path d="M2944,3536 L2752,3584 z" fill="none" stroke="black" stroke-width="10"/>
<path d="M3104,3552 L3280,3320 z" fill="none" stroke="black" stroke-width="10"/>
<path d="M3264,3616 L3104,3552 z" fill="none" stroke="black" stroke-width="10"/>
<path d="M3352,3568 L3264,3616 z" fill="none" stroke="black" stroke-width="10"/>
<path d="M3472,3432 L3408,3432 z" fill="none" stroke="black" stroke-width="10"/>
<path d="M3408,3432 L3312,3496 z" fill="none" stroke="black" stroke-width="10"/>
<path d="M3312,3496 L3352,3568 z" fill="none" stroke="black" stroke-width="10"/>
<path d="M2240,3776 L2208,3680 z" fill="none" stroke="black" stroke-width="10"/>
<path d="M2208,3680 L2176,3680 z" fill="none" stroke="black" stroke-width="10"/>
<path d="M2016,3680 L1984,3776 z" fill="none" stroke="black" stroke-width="10"/>
<path d="M2048,3680 L2016,3680 z" fill="none" stroke="black" stroke-width="10"/>
<path d="M2176,3776 L2176,3808 z" fill="none" stroke="black" stroke-width="10"/>
<path d="M2176,3808 L2176,3840 z" fill="none" stroke="black" stroke-width="10"/>
<path d="M2048,3808 L2048,3776 z" fill="none" stroke="black" stroke-width="10"/>
<path d="M2048,3840 L2048,3808 z" fill="none" stroke="black" stroke-width="10"/>
<path d="M2048,3872 L2048,3840 z" fill="none" stroke="black" stroke-width="10"/>
<path d="M2048,3904 L2048,3872 z" fill="none" stroke="black" stroke-width="10"/>
<path d="M2176,3840 L2176,3872 z" fill="none" stroke="black" stroke-width="10"/>
<path d="M2176,3872 L2176,3904 z" fill="none" stroke="black" stroke-width="10"/>
<path d="M2240,4096 L2112,4032 z" fill="none" stroke="black" stroke-width="10"/>
<path d="M2176,3680 L2048,3680 z" fill="none" stroke="black" stroke-width="10"/>
<path d="M2048,3776 L2176,3776 z" fill="none" stroke="black" stroke-width="10"/>
<path d="M2048,3808 L2176,3808 z" fill="none" stroke="black" stroke-width="10"/>
<path d="M2048,3840 L2176,3840 z" fill="none" stroke="black" stroke-width="10"/>
<path d="M2048,3872 L2176,3872 z" fill="none" stroke="black" stroke-width="10"/>
<path d="M2048,3904 L2176,3904 z" fill="none" stroke="black" stroke-width="10"/>
<path d="M2240,4096 L2240,3968 z" fill="none" stroke="black" stroke-width="10"/>
<path d="M2368,3968 L2368,4096 z" fill="none" stroke="black" stroke-width="10"/>
<path d="M2880,3776 L2880,3904 z" fill="none" stroke="black" stroke-width="10"/>
<path d="M2848,3776 L2848,3904 z" fill="none" stroke="black" stroke-width="10"/>
<path d="M2816,3776 L2816,3904 z" fill="none" stroke="black" stroke-width="10"/>
<path d="M2784,3776 L2784,3904 z" fill="none" stroke="black" stroke-width="10"/>
<path d="M2752,3776 L2752,3904 z" fill="none" stroke="black" stroke-width="10"/>
<path d="M2688,3776 L2720,3904 z" fill="none" stroke="black" stroke-width="10"/>
<path d="M2632,3792 L2688,3920 z" fill="none" stroke="black" stroke-width="10"/>
<path d="M2632,3792 L2688,3776 z" fill="none" stroke="black" stroke-width="10"/>
<path d="M2720,3904 L2688,3920 z" fill="none" stroke="black" stroke-width="10"/>
<path d="M2688,3776 L2752,3776 z" fill="none" stroke="black" stroke-width="10"/>
<path d="M2752,3776 L2784,3776 z" fill="none" stroke="black" stroke-width="10"/>
<path d="M2784,3776 L2816,3776 z" fill="none" stroke="black" stroke-width="10"/>
<path d="M2816,3776 L2848,3776 z" fill="none" stroke="black" stroke-width="10"/>
<path d="M2848,3776 L2880,3776 z" fill="none" stroke="black" stroke-width="10"/>
<path d="M2880,3904 L2848,3904 z" fill="none" stroke="black" stroke-width="10"/>
<path d="M2848,3904 L2816,3904 z" fill="none" stroke="black" stroke-width="10"/>
<path d="M2816,3904 L2784,3904 z" fill="none" stroke="black" stroke-width="10"/>
<path d="M2784,3904 L2752,3904 z" fill="none" stroke="black" stroke-width="10"/>
<path d="M2752,3904 L2720,3904 z" fill="none" stroke="black" stroke-width="10"/>
<path d="M2880,3776 L2912,3776 z" fill="none" stroke="black" stroke-width="10"/>
<path d="M2912,3904 L2880,3904 z" fill="none" stroke="black" stroke-width="10"/>
<path d="M2944,3904 L2912,3904 z" fill="none" stroke="black" stroke-width="10"/>
<path d="M2912,3776 L2944,3776 z" fill="none" stroke="black" stroke-width="10"/>
<path d="M2944,3904 L2944,3776 z" fill="none" stroke="black" stroke-width="10"/>
<path d="M2912,3776 L2912,3904 z" fill="none" stroke="black" stroke-width="10"/>
<path d="M2944,4000 L2944,3904 z" fill="none" stroke="black" stroke-width="10"/>
<path d="M2736,3648 L2240,3648 z" fill="none" stroke="black" stroke-width="10"/>
<path d="M2240,3648 L1984,3648 z" fill="none" stroke="black" stroke-width="10"/>
<path d="M1984,3648 L1376,3648 z" fill="none" stroke="black" stroke-width="10"/>
<path d="M1984,3648 L1984,3776 z" fill="none" stroke="black" stroke-width="10"/>
<path d="M2240,3776 L2240,3648 z" fill="none" stroke="black" stroke-width="10"/>
<path d="M2688,3920 L2672,3920 z" fill="none" stroke="black" stroke-width="10"/>
<path d="M2672,3920 L2368,4096 z" fill="none" stroke="black" stroke-width="10"/>
<path d="M2368,3968 L2616,3792 z" fill="none" stroke="black" stroke-width="10"/>
<path d="M2616,3792 L2632,3792 z" fill="none" stroke="black" stroke-width="10"/>
<path d="M2176,3904 L2176,3920 z" fill="none" stroke="black" stroke-width="10"/>
<path d="M2176,3920 L2240,3968 z" fill="none" stroke="black" stroke-width="10"/>
<path d="M2112,4032 L2048,3920 z" fill="none" stroke="black" stroke-width="10"/>
<path d="M2048,3920 L2048,3904 z" fill="none" stroke="black" stroke-width="10"/>
<path d="M2752,3048 L2976,3072 z" fill="none" stroke="black" stroke-width="10"/>
<path d="M2880,2880 L2752,2800 z" fill="none" stroke="black" stroke-width="10"/>
<path d="M2752,2800 L2752,2784 z" fill="none" stroke="black" stroke-width="10"/>
<path d="M2944,2656 L2960,2656 z" fill="none" stroke="black" stroke-width="10"/>
<path d="M2960,2656 L3048,2880 z" fill="none" stroke="black" stroke-width="10"/>
<path d="M3400,3152 L3472,3432 z" fill="none" stroke="black" stroke-width="10"/>
<path d="M3472,3432 L3448,3520 z" fill="none" stroke="black" stroke-width="10"/>
<path d="M3448,3520 L3352,3568 z" fill="none" stroke="black" stroke-width="10"/>
<path d="M2240,2920 L2272,3008 z" fill="none" stroke="black" stroke-width="10"/>
<path d="M2272,3008 L2432,3112 z" fill="none" stroke="black" stroke-width="10"/>
<path d="M2432,3112 L2736,3112 z" fill="none" stroke="black" stroke-width="10"/>
<path d="M2736,3112 L2752,3112 z" fill="none" stroke="black" stroke-width="10"/>
<path d="M2752,3360 L2752,3112 z" fill="none" stroke="black" stroke-width="10"/>
<path d="M2736,3112 L2736,3360 z" fill="none" stroke="black" stroke-width="10"/>
<path d="M2752,3112 L2752,3048 z" fill="none" stroke="black" stroke-width="10"/>
<path d="M3200,4128 L3328,4128 z" fill="none" stroke="black" stroke-width="10"/>
<path d="M2688,4128 L2816,4128 z" fill="none" stroke="black" stroke-width="10"/>
<path d="M2816,4128 L2856,4160 z" fill="none" stroke="black" stroke-width="10"/>
<path d="M2912,4160 L2912,4128 z" fill="none" stroke="black" stroke-width="10"/>
<path d="M3104,4128 L3104,4160 z" fill="none" stroke="black" stroke-width="10"/>
<path d="M3160,4160 L3200,4128 z" fill="none" stroke="black" stroke-width="10"/>
<path d="M3104,4352 L3104,4384 z" fill="none" stroke="black" stroke-width="10"/>
<path d="M3104,4384 L3160,4384 z" fill="none" stroke="black" stroke-width="10"/>
<path d="M3160,4384 L3160,4352 z" fill="none" stroke="black" stroke-width="10"/>
<path d="M2856,4352 L2856,4384 z" fill="none" stroke="black" stroke-width="10"/>
<path d="M2856,4384 L2912,4384 z" fill="none" stroke="black" stroke-width="10"/>
<path d="M2912,4384 L2912,4352 z" fill="none" stroke="black" stroke-width="10"/>
<path d="M2856,4160 L2888,4160 z" fill="none" stroke="black" stroke-width="10"/>
<path d="M2888,4160 L2912,4160 z" fill="none" stroke="black" stroke-width="10"/>
<path d="M3160,4352 L3128,4352 z" fill="none" stroke="black" stroke-width="10"/>
<path d="M3128,4352 L3104,4352 z" fill="none" stroke="black" stroke-width="10"/>
<path d="M3104,4160 L3128,4160 z" fill="none" stroke="black" stroke-width="10"/>
<path d="M3128,4160 L3160,4160 z" fill="none" stroke="black" stroke-width="10"/>
<path d="M2912,4352 L2888,4352 z" fill="none" stroke="black" stroke-width="10"/>
<path d="M2888,4352 L2856,4352 z" fill="none" stroke="black" stroke-width="10"/>
<path d="M2888,4352 L2888,4320 z" fill="none" stroke="black" stroke-width="10"/>
<path d="M2888,4320 L2888,4192 z" fill="none" stroke="black" stroke-width="10"/>
<path d="M2888,4192 L2888,4160 z" fill="none" stroke="black" stroke-width="10"/>
<path d="M3128,4320 L3128,4352 z" fill="none" stroke="black" stroke-width="10"/>
<path d="M3128,4160 L3128,4192 z" fill="none" stroke="black" stroke-width="10"/>
<path d="M3128,4192 L3128,4320 z" fill="none" stroke="black" stroke-width="10"/>
<path d="M3328,4544 L3072,4544 z" fill="none" stroke="black" stroke-width="10"/>
<path d="M2944,4544 L2688,4544 z" fill="none" stroke="black" stroke-width="10"/>
<path d="M3072,4544 L3072,4608 z" fill="none" stroke="black" stroke-width="10"/>
<path d="M2944,4608 L2944,4544 z" fill="none" stroke="black" stroke-width="10"/>
<path d="M2912,4160 L3104,4160 z" fill="none" stroke="black" stroke-width="10"/>
<path d="M3104,4352 L2912,4352 z" fill="none" stroke="black" stroke-width="10"/>
<path d="M3072,4000 L2944,4000 z" fill="none" stroke="black" stroke-width="10"/>
<path d="M2688,4544 L2688,4128 z" fill="none" stroke="black" stroke-width="10"/>
<path d="M3328,4128 L3328,4544 z" fill="none" stroke="black" stroke-width="10"/>
<path d="M2856,4352 L2856,4160 z" fill="none" stroke="black" stroke-width="10"/>
<path d="M3160,4160 L3160,4352 z" fill="none" stroke="black" stroke-width="10"/>
<path d="M2944,4544 L3072,4544 z" fill="none" stroke="black" stroke-width="10"/>
<path d="M3072,4608 L3040,4608 z" fill="none" stroke="black" stroke-width="10"/>
<path d="M2976,4608 L2944,4608 z" fill="none" stroke="black" stroke-width="10"/>
<path d="M2976,4632 L2976,4608 z" fill="none" stroke="black" stroke-width="10"/>
<path d="M3040,4608 L3040,4632 z" fill="none" stroke="black" stroke-width="10"/>
<path d="M3040,4632 L3040,4648 z" fill="none" stroke="black" stroke-width="10"/>
<path d="M3040,4648 L3040,4672 z" fill="none" stroke="black" stroke-width="10"/>
<path d="M2976,4672 L2976,4648 z" fill="none" stroke="black" stroke-width="10"/>
<path d="M2976,4648 L2976,4632 z" fill="none" stroke="black" stroke-width="10"/>
<path d="M2976,4648 L3040,4648 z" fill="none" stroke="black" stroke-width="10"/>
<path d="M3040,4632 L2976,4632 z" fill="none" stroke="black" stroke-width="10"/>
<path d="M3040,4672 L3104,4672 z" fill="none" stroke="black" stroke-width="10"/>
<path d="M2912,4672 L2976,4672 z" fill="none" stroke="black" stroke-width="10"/>
<path d="M3104,4672 L3104,4864 z" fill="none" stroke="black" stroke-width="10"/>
<path d="M2912,4864 L2912,4800 z" fill="none" stroke="black" stroke-width="10"/>
<path d="M2912,4800 L2912,4736 z" fill="none" stroke="black" stroke-width="10"/>
<path d="M2912,4736 L2912,4672 z" fill="none" stroke="black" stroke-width="10"/>
<path d="M3104,4864 L2912,4864 z" fill="none" stroke="black" stroke-width="10"/>
<path d="M2976,4672 L3040,4672 z" fill="none" stroke="black" stroke-width="10"/>
<path d="M2944,4016 L2944,4000 z" fill="none" stroke="black" stroke-width="10"/>
<path d="M3072,4000 L3072,4016 z" fill="none" stroke="black" stroke-width="10"/>
<path d="M2912,4128 L2944,4032 z" fill="none" stroke="black" stroke-width="10"/>
<path d="M2944,4032 L2944,4016 z" fill="none" stroke="black" stroke-width="10"/>
<path d="M3072,4016 L3072,4032 z" fill="none" stroke="black" stroke-width="10"/>
<path d="M3072,4032 L3104,4128 z" fill="none" stroke="black" stroke-width="10"/>
<path d="M3072,4016 L2944,4016 z" fill="none" stroke="black" stroke-width="10"/>
<path d="M2944,4032 L3072,4032 z" fill="none" stroke="black" stroke-width="10"/>
<path d="M3024,4592 L2992,4592 z" fill="none" stroke="black" stroke-width="10"/>
<path d="M2992,4600 L3024,4600 z" fill="none" stroke="black" stroke-width="10"/>
<path d="M3024,4600 L3024,4592 z" fill="none" stroke="black" stroke-width="10"/>
<path d="M2992,4592 L2992,4600 z" fill="none" stroke="black" stroke-width="10"/>
<path d="M3040,4608 L2976,4608 z" fill="none" stroke="black" stroke-width="10"/>
<path d="M3024,4840 L2992,4840 z" fill="none" stroke="black" stroke-width="10"/>
<path d="M2992,4848 L3024,4848 z" fill="none" stroke="black" stroke-width="10"/>
<path d="M3024,4848 L3024,4840 z" fill="none" stroke="black" stroke-width="10"/>
<path d="M2992,4840 L2992,4848 z" fill="none" stroke="black" stroke-width="10"/>
<path d="M2752,2912 L2880,2912 z" fill="none" stroke="black" stroke-width="10"/>
<path d="M-240,3264 L-208,3264 z" fill="none" stroke="black" stroke-width="10"/>
<path d="M-208,3264 L-192,3248 z" fill="none" stroke="black" stroke-width="10"/>
<path d="M-192,3248 L-192,3216 z" fill="none" stroke="black" stroke-width="10"/>
<path d="M-192,3216 L-208,3200 z" fill="none" stroke="black" stroke-width="10"/>
<path d="M-208,3200 L-240,3200 z" fill="none" stroke="black" stroke-width="10"/>
<path d="M-240,3200 L-256,3216 z" fill="none" stroke="black" stroke-width="10"/>
<path d="M-256,3216 L-256,3248 z" fill="none" stroke="black" stroke-width="10"/>
<path d="M-256,3248 L-240,3264 z" fill="none" stroke="black" stroke-width="10"/>
<path d="M1664,2368 L1600,2368 z" fill="none" stroke="black" stroke-width="10"/>
<path d="M1600,2368 L1600,2112 z" fill="none" stroke="black" stroke-width="10"/>
<path d="M1600,2624 L1664,2624 z" fill="none" stroke="black" stroke-width="10"/>
<path d="M2560,2112 L2560,2496 z" fill="none" stroke="black" stroke-width="10"/>
<path d="M2560,2496 L2496,2496 z" fill="none" stroke="black" stroke-width="10"/>
<path d="M2176,2752 L2176,2816 z" fill="none" stroke="black" stroke-width="10"/>
<path d="M1600,2048 L1664,2048 z" fill="none" stroke="black" stroke-width="10"/>
<path d="M1664,2048 L2496,2048 z" fill="none" stroke="black" stroke-width="10"/>
<path d="M2496,2048 L2560,2048 z" fill="none" stroke="black" stroke-width="10"/>
<path d="M2560,2048 L2560,2112 z" fill="none" stroke="black" stroke-width="10"/>
<path d="M1600,2112 L1600,2048 z" fill="none" stroke="black" stroke-width="10"/>
<path d="M1664,2368 L1664,2112 z" fill="none" stroke="black" stroke-width="10"/>
<path d="M1664,2112 L2496,2112 z" fill="none" stroke="black" stroke-width="10"/>
<path d="M2496,2112 L2496,2496 z" fill="none" stroke="black" stroke-width="10"/>
<path d="M1664,2816 L1600,2816 z" fill="none" stroke="black" stroke-width="10"/>
<path d="M1600,2816 L1600,2752 z" fill="none" stroke="black" stroke-width="10"/>
<path d="M1600,2752 L1600,2624 z" fill="none" stroke="black" stroke-width="10"/>
<path d="M2176,2752 L1664,2752 z" fill="none" stroke="black" stroke-width="10"/>
<path d="M2496,2688 L2496,2752 z" fill="none" stroke="black" stroke-width="10"/>
<path d="M2624,2784 L2520,2688 z" fill="none" stroke="black" stroke-width="10"/>
<path d="M2496,2560 L2520,2560 z" fill="none" stroke="black" stroke-width="10"/>
<path d="M2520,2688 L2496,2688 z" fill="none" stroke="black" stroke-width="10"/>
<path d="M1664,2560 L1664,2432 z" fill="none" stroke="black" stroke-width="10"/>
<path d="M2496,2560 L2496,2688 z" fill="none" stroke="black" stroke-width="10"/>
<path d="M1984,2304 L1984,2240 z" fill="none" stroke="black" stroke-width="10"/>
<path d="M1984,2240 L1792,2240 z" fill="none" stroke="black" stroke-width="10"/>
<path d="M1792,2240 L1792,2304 z" fill="none" stroke="black" stroke-width="10"/>
<path d="M1792,2304 L1984,2304 z" fill="none" stroke="black" stroke-width="10"/>
<path d="M1664,2624 L1664,2600 z" fill="none" stroke="black" stroke-width="10"/>
<path d="M1664,2600 L1664,2560 z" fill="none" stroke="black" stroke-width="10"/>
<path d="M1664,2432 L1664,2392 z" fill="none" stroke="black" stroke-width="10"/>
<path d="M1664,2392 L1664,2368 z" fill="none" stroke="black" stroke-width="10"/>
<path d="M2496,2496 L2496,2520 z" fill="none" stroke="black" stroke-width="10"/>
<path d="M2496,2520 L2496,2560 z" fill="none" stroke="black" stroke-width="10"/>
<path d="M2496,2752 L2200,2752 z" fill="none" stroke="black" stroke-width="10"/>
<path d="M2200,2752 L2176,2752 z" fill="none" stroke="black" stroke-width="10"/>
<path d="M2112,2592 L2336,2592 z" fill="none" stroke="black" stroke-width="10"/>
<path d="M2336,2592 L2336,2272 z" fill="none" stroke="black" stroke-width="10"/>
<path d="M2336,2272 L2112,2272 z" fill="none" stroke="black" stroke-width="10"/>
<path d="M2112,2272 L2112,2304 z" fill="none" stroke="black" stroke-width="10"/>
<path d="M2112,2304 L2144,2304 z" fill="none" stroke="black" stroke-width="10"/>
<path d="M2144,2304 L2176,2304 z" fill="none" stroke="black" stroke-width="10"/>
<path d="M2176,2304 L2208,2304 z" fill="none" stroke="black" stroke-width="10"/>
<path d="M2208,2304 L2304,2304 z" fill="none" stroke="black" stroke-width="10"/>
<path d="M2304,2304 L2304,2560 z" fill="none" stroke="black" stroke-width="10"/>
<path d="M2304,2560 L2208,2560 z" fill="none" stroke="black" stroke-width="10"/>
<path d="M2208,2560 L2176,2560 z" fill="none" stroke="black" stroke-width="10"/>
<path d="M2176,2560 L2144,2560 z" fill="none" stroke="black" stroke-width="10"/>
<path d="M2144,2560 L2112,2560 z" fill="none" stroke="black" stroke-width="10"/>
<path d="M2112,2560 L2112,2592 z" fill="none" stroke="black" stroke-width="10"/>
<path d="M2144,2304 L2144,2560 z" fill="none" stroke="black" stroke-width="10"/>
<path d="M2176,2304 L2176,2560 z" fill="none" stroke="black" stroke-width="10"/>
<path d="M2208,2304 L2208,2560 z" fill="none" stroke="black" stroke-width="10"/>
<path d="M1984,2624 L1984,2560 z" fill="none" stroke="black" stroke-width="10"/>
<path d="M1984,2560 L1792,2560 z" fill="none" stroke="black" stroke-width="10"/>
<path d="M1792,2560 L1792,2624 z" fill="none" stroke="black" stroke-width="10"/>
<path d="M1792,2624 L1984,2624 z" fill="none" stroke="black" stroke-width="10"/>
<path d="M1992,2552 L1784,2552 z" fill="none" stroke="black" stroke-width="10"/>
<path d="M1784,2552 L1784,2632 z" fill="none" stroke="black" stroke-width="10"/>
<path d="M1784,2632 L1992,2632 z" fill="none" stroke="black" stroke-width="10"/>
<path d="M1992,2632 L1992,2552 z" fill="none" stroke="black" stroke-width="10"/>
<path d="M1784,2312 L1992,2312 z" fill="none" stroke="black" stroke-width="10"/>
<path d="M1992,2312 L1992,2232 z" fill="none" stroke="black" stroke-width="10"/>
<path d="M1992,2232 L1784,2232 z" fill="none" stroke="black" stroke-width="10"/>
<path d="M1784,2232 L1784,2312 z" fill="none" stroke="black" stroke-width="10"/>
<path d="M2624,2784 L2752,2560 z" fill="none" stroke="black" stroke-width="10"/>
<path d="M3520,3904 L3328,3968 z" fill="none" stroke="black" stroke-width="10"/>
<path d="M3200,3968 L3200,3744 z" fill="none" stroke="black" stroke-width="10"/>
<path d="M3328,3744 L3360,3648 z" fill="none" stroke="black" stroke-width="10"/>
<path d="M3328,3968 L3328,3744 z" fill="none" stroke="black" stroke-width="10"/>
<path d="M3448,3520 L3472,3520 z" fill="none" stroke="black" stroke-width="10"/>
<path d="M3472,3520 L3520,3584 z" fill="none" stroke="black" stroke-width="10"/>
<path d="M3360,3648 L3352,3592 z" fill="none" stroke="black" stroke-width="10"/>
<path d="M3352,3592 L3352,3568 z" fill="none" stroke="black" stroke-width="10"/>
<path d="M3328,3968 L3304,3968 z" fill="none" stroke="black" stroke-width="10"/>
<path d="M3304,3968 L3200,3968 z" fill="none" stroke="black" stroke-width="10"/>
<path d="M3200,3744 L3304,3744 z" fill="none" stroke="black" stroke-width="10"/>
<path d="M3304,3744 L3328,3744 z" fill="none" stroke="black" stroke-width="10"/>
<path d="M2368,4096 L2344,4096 z" fill="none" stroke="black" stroke-width="10"/>
<path d="M2344,4096 L2264,4096 z" fill="none" stroke="black" stroke-width="10"/>
<path d="M2264,4096 L2240,4096 z" fill="none" stroke="black" stroke-width="10"/>
<path d="M2240,3968 L2264,3968 z" fill="none" stroke="black" stroke-width="10"/>
<path d="M2264,3968 L2344,3968 z" fill="none" stroke="black" stroke-width="10"/>
<path d="M2344,3968 L2368,3968 z" fill="none" stroke="black" stroke-width="10"/>
<path d="M2176,3680 L2176,3704 z" fill="none" stroke="black" stroke-width="10"/>
<path d="M2176,3704 L2176,3776 z" fill="none" stroke="black" stroke-width="10"/>
<path d="M2048,3776 L2048,3704 z" fill="none" stroke="black" stroke-width="10"/>
<path d="M2048,3704 L2048,3680 z" fill="none" stroke="black" stroke-width="10"/>
<path d="M3520,3584 L3520,3840 z" fill="none" stroke="black" stroke-width="10"/>
<path d="M3680,3904 L3584,3904 z" fill="none" stroke="black" stroke-width="10"/>
<path d="M3744,3808 L3680,3904 z" fill="none" stroke="black" stroke-width="10"/>
<path d="M3584,3840 L3616,3776 z" fill="none" stroke="black" stroke-width="10"/>
<path d="M3616,3776 L3552,3552 z" fill="none" stroke="black" stroke-width="10"/>
<path d="M3552,3552 L3552,3392 z" fill="none" stroke="black" stroke-width="10"/>
<path d="M3552,3392 L3648,3264 z" fill="none" stroke="black" stroke-width="10"/>
<path d="M3680,3552 L3744,3808 z" fill="none" stroke="black" stroke-width="10"/>
<path d="M3680,3392 L3680,3552 z" fill="none" stroke="black" stroke-width="10"/>
<path d="M3808,3264 L3680,3392 z" fill="none" stroke="black" stroke-width="10"/>
<path d="M3648,3264 L3496,3032 z" fill="none" stroke="black" stroke-width="10"/>
<path d="M3584,2880 L3808,3264 z" fill="none" stroke="black" stroke-width="10"/>
<path d="M3496,3032 L3456,3032 z" fill="none" stroke="black" stroke-width="10"/>
<path d="M3360,2880 L3584,2880 z" fill="none" stroke="black" stroke-width="10"/>
<path d="M3304,3040 L3400,3152 z" fill="none" stroke="black" stroke-width="10"/>
<path d="M3520,3840 L3520,3904 z" fill="none" stroke="black" stroke-width="10"/>
<path d="M3584,3840 L3584,3904 z" fill="none" stroke="black" stroke-width="10"/>
<path d="M3304,3040 L3320,3040 z" fill="none" stroke="black" stroke-width="10"/>
<path d="M3320,3040 L3360,2880 z" fill="none" stroke="black" stroke-width="10"/>
<path d="M3456,3032 L3416,3152 z" fill="none" stroke="black" stroke-width="10"/>
<path d="M3416,3152 L3400,3152 z" fill="none" stroke="black" stroke-width="10"/>
<path d="M3520,3840 L3536,3840 z" fill="none" stroke="black" stroke-width="10"/>
<path d="M3536,3840 L3584,3840 z" fill="none" stroke="black" stroke-width="10"/>
<path d="M3584,3904 L3536,3904 z" fill="none" stroke="black" stroke-width="10"/>
<path d="M3536,3904 L3520,3904 z" fill="none" stroke="black" stroke-width="10"/>
<path d="M1344,3360 L1344,3392 z" fill="none" stroke="black" stroke-width="10"/>
<path d="M1344,3520 L1344,3552 z" fill="none" stroke="black" stroke-width="10"/>
<path d="M1344,3392 L1344,3520 z" fill="none" stroke="black" stroke-width="10"/>
<path d="M1344,3392 L1376,3392 z" fill="none" stroke="black" stroke-width="10"/>
<path d="M1376,3520 L1344,3520 z" fill="none" stroke="black" stroke-width="10"/>
<path d="M1376,3648 L1376,3520 z" fill="none" stroke="black" stroke-width="10"/>
<path d="M1376,3392 L1376,3360 z" fill="none" stroke="black" stroke-width="10"/>
<path d="M1376,3520 L1376,3392 z" fill="none" stroke="black" stroke-width="10"/>
<path d="M2176,2816 L1664,2816 z" fill="none" stroke="black" stroke-width="10"/>
<path d="M1472,2880 L1664,2880 z" fill="none" stroke="black" stroke-width="10"/>
<path d="M1664,2880 L1856,2880 z" fill="none" stroke="black" stroke-width="10"/>
<path d="M1920,2920 L2176,2920 z" fill="none" stroke="black" stroke-width="10"/>
<path d="M2176,2920 L2240,2920 z" fill="none" stroke="black" stroke-width="10"/>
<path d="M2176,2816 L2176,2920 z" fill="none" stroke="black" stroke-width="10"/>
<path d="M1664,2880 L1664,2816 z" fill="none" stroke="black" stroke-width="10"/>
<path d="M1664,2816 L1664,2752 z" fill="none" stroke="black" stroke-width="10"/>
<path d="M1664,2752 L1664,2624 z" fill="none" stroke="black" stroke-width="10"/>
</svg>