<svg viewBox="0 -3400 10000 10000" xmlns="http://www.w3.org/2000/svg">
<path d="M-64,128 L-32,128 z" fill="none" stroke="black" stroke-width="10"/>
<path d="M64,128 L192,0 z" fill="none" stroke="black" stroke-width="10"/>
<path d="M192,0 L352,-64 z" fill="none" stroke="black" stroke-width="10"/>
<path d="M480,-64 L640,0 z" fill="none" stroke="black" stroke-width="10"/>
<path d="M640,0 L768,128 z" fill="none" stroke="black" stroke-width="10"/>
<path d="M768,128 L896,128 z" fill="none" stroke="black" stroke-width="10"/>
<path d="M896,320 L768,320 z" fill="none" stroke="black" stroke-width="10"/>
<path d="M768,320 L640,448 z" fill="none" stroke="black" stroke-width="10"/>
<path d="M640,448 L480,480 z" fill="none" stroke="black" stroke-width="10"/>
<path d="M480,480 L352,480 z" fill="none" stroke="black" stroke-width="10"/>
<path d="M352,480 L192,448 z" fill="none" stroke="black" stroke-width="10"/>
<path d="M192,448 L64,320 z" fill="none" stroke="black" stroke-width="10"/>
<path d="M-32,320 L-64,320 z" fill="none" stroke="black" stroke-width="10"/>
<path d="M320,256 L320,192 z" fill="none" stroke="black" stroke-width="10"/>
<path d="M320,192 L384,128 z" fill="none" stroke="black" stroke-width="10"/>
<path d="M384,128 L448,128 z" fill="none" stroke="black" stroke-width="10"/>
<path d="M448,128 L512,192 z" fill="none" stroke="black" stroke-width="10"/>
<path d="M512,192 L512,256 z" fill="none" stroke="black" stroke-width="10"/>
<path d="M512,256 L448,320 z" fill="none" stroke="black" stroke-width="10"/>
<path d="M448,320 L384,320 z" fill="none" stroke="black" stroke-width="10"/>
<path d="M384,320 L320,256 z" fill="none" stroke="black" stroke-width="10"/>
<path d="M352,-64 L352,-96 z" fill="none" stroke="black" stroke-width="10"/>
<path d="M352,-96 L352,-128 z" fill="none" stroke="black" stroke-width="10"/>
<path d="M352,-128 L352,-160 z" fill="none" stroke="black" stroke-width="10"/>
<path d="M352,-160 L352,-192 z" fill="none" stroke="black" stroke-width="10"/>
<path d="M352,-192 L352,-224 z" fill="none" stroke="black" stroke-width="10"/>
<path d="M352,-224 L352,-256 z" fill="none" stroke="black" stroke-width="10"/>
<path d="M352,-256 L352,-288 z" fill="none" stroke="black" stroke-width="10"/>
<path d="M352,-288 L352,-320 z" fill="none" stroke="black" stroke-width="10"/>
<path d="M352,-320 L352,-352 z" fill="none" stroke="black" stroke-width="10"/>
<path d="M352,-352 L352,-384 z" fill="none" stroke="black" stroke-width="10"/>
<path d="M352,-384 L352,-416 z" fill="none" stroke="black" stroke-width="10"/>
<path d="M352,-416 L352,-448 z" fill="none" stroke="black" stroke-width="10"/>
<path d="M480,-448 L480,-416 z" fill="none" stroke="black" stroke-width="10"/>
<path d="M480,-416 L480,-384 z" fill="none" stroke="black" stroke-width="10"/>
<path d="M480,-352 L480,-320 z" fill="none" stroke="black" stroke-width="10"/>
<path d="M480,-320 L480,-288 z" fill="none" stroke="black" stroke-width="10"/>
<path d="M480,-288 L480,-256 z" fill="none" stroke="black" stroke-width="10"/>
<path d="M480,-256 L480,-224 z" fill="none" stroke="black" stroke-width="10"/>
<path d="M480,-224 L480,-192 z" fill="none" stroke="black" stroke-width="10"/>
<path d="M480,-192 L480,-160 z" fill="none" stroke="black" stroke-width="10"/>
<path d="M480,-160 L480,-128 z" fill="none" stroke="black" stroke-width="10"/>
<path d="M480,-128 L480,-96 z" fill="none" stroke="black" stroke-width="10"/>
<path d="M480,-96 L480,-64 z" fill="none" stroke="black" stroke-width="10"/>
<path d="M352,-448 L320,-448 z" fill="none" stroke="black" stroke-width="10"/>
<path d="M512,-448 L480,-448 z" fill="none" stroke="black" stroke-width="10"/>
<path d="M-32,320 L-32,128 z" fill="none" stroke="black" stroke-width="10"/>
<path d="M768,128 L768,320 z" fill="none" stroke="black" stroke-width="10"/>
<path d="M896,128 L960,128 z" fill="none" stroke="black" stroke-width="10"/>
<path d="M960,128 L960,320 z" fill="none" stroke="black" stroke-width="10"/>
<path d="M960,320 L896,320 z" fill="none" stroke="black" stroke-width="10"/>
<path d="M896,128 L896,320 z" fill="none" stroke="black" stroke-width="10"/>
<path d="M-64,320 L-224,320 z" fill="none" stroke="black" stroke-width="10"/>
<path d="M-224,320 L-224,128 z" fill="none" stroke="black" stroke-width="10"/>
<path d="M-224,128 L-64,128 z" fill="none" stroke="black" stroke-width="10"/>
<path d="M640,-832 L640,-768 z" fill="none" stroke="black" stroke-width="10"/>
<path d="M640,-960 L640,-928 z" fill="none" stroke="black" stroke-width="10"/>
<path d="M192,-928 L192,-960 z" fill="none" stroke="black" stroke-width="10"/>
<path d="M192,-768 L192,-832 z" fill="none" stroke="black" stroke-width="10"/>
<path d="M480,-64 L352,-64 z" fill="none" stroke="black" stroke-width="10"/>
<path d="M480,-96 L352,-96 z" fill="none" stroke="black" stroke-width="10"/>
<path d="M480,-128 L352,-128 z" fill="none" stroke="black" stroke-width="10"/>
<path d="M480,-160 L352,-160 z" fill="none" stroke="black" stroke-width="10"/>
<path d="M480,-192 L352,-192 z" fill="none" stroke="black" stroke-width="10"/>
<path d="M480,-224 L352,-224 z" fill="none" stroke="black" stroke-width="10"/>
<path d="M480,-256 L352,-256 z" fill="none" stroke="black" stroke-width="10"/>
<path d="M480,-288 L352,-288 z" fill="none" stroke="black" stroke-width="10"/>
<path d="M480,-320 L352,-320 z" fill="none" stroke="black" stroke-width="10"/>
<path d="M480,-352 L352,-352 z" fill="none" stroke="black" stroke-width="10"/>
<path d="M480,-384 L352,-384 z" fill="none" stroke="black" stroke-width="10"/>
<path d="M480,-416 L352,-416 z" fill="none" stroke="black" stroke-width="10"/>
<path d="M480,-448 L352,-448 z" fill="none" stroke="black" stroke-width="10"/>
<path d="M640,-928 L640,-832 z" fill="none" stroke="black" stroke-width="10"/>
<path d="M192,-832 L192,-928 z" fill="none" stroke="black" stroke-width="10"/>
<path d="M160,-960 L160,-928 z" fill="none" stroke="black" stroke-width="10"/>
<path d="M160,-928 L192,-928 z" fill="none" stroke="black" stroke-width="10"/>
<path d="M160,-832 L160,-768 z" fill="none" stroke="black" stroke-width="10"/>
<path d="M192,-832 L160,-832 z" fill="none" stroke="black" stroke-width="10"/>
<path d="M640,-928 L672,-928 z" fill="none" stroke="black" stroke-width="10"/>
<path d="M672,-928 L672,-960 z" fill="none" stroke="black" stroke-width="10"/>
<path d="M672,-832 L640,-832 z" fill="none" stroke="black" stroke-width="10"/>
<path d="M672,-768 L672,-832 z" fill="none" stroke="black" stroke-width="10"/>
<path d="M192,-960 L256,-960 z" fill="none" stroke="black" stroke-width="10"/>
<path d="M256,-960 L256,-1024 z" fill="none" stroke="black" stroke-width="10"/>
<path d="M256,-1024 L320,-1024 z" fill="none" stroke="black" stroke-width="10"/>
<path d="M320,-1024 L320,-1088 z" fill="none" stroke="black" stroke-width="10"/>
<path d="M512,-1088 L512,-1024 z" fill="none" stroke="black" stroke-width="10"/>
<path d="M512,-1024 L576,-1024 z" fill="none" stroke="black" stroke-width="10"/>
<path d="M576,-1024 L576,-960 z" fill="none" stroke="black" stroke-width="10"/>
<path d="M576,-960 L640,-960 z" fill="none" stroke="black" stroke-width="10"/>
<path d="M640,-768 L576,-768 z" fill="none" stroke="black" stroke-width="10"/>
<path d="M576,-768 L576,-704 z" fill="none" stroke="black" stroke-width="10"/>
<path d="M576,-704 L512,-704 z" fill="none" stroke="black" stroke-width="10"/>
<path d="M320,-704 L256,-704 z" fill="none" stroke="black" stroke-width="10"/>
<path d="M256,-704 L256,-768 z" fill="none" stroke="black" stroke-width="10"/>
<path d="M256,-768 L192,-768 z" fill="none" stroke="black" stroke-width="10"/>
<path d="M320,-768 L256,-768 z" fill="none" stroke="black" stroke-width="10"/>
<path d="M320,-704 L320,-768 z" fill="none" stroke="black" stroke-width="10"/>
<path d="M512,-768 L512,-704 z" fill="none" stroke="black" stroke-width="10"/>
<path d="M576,-768 L512,-768 z" fill="none" stroke="black" stroke-width="10"/>
<path d="M512,-1024 L512,-960 z" fill="none" stroke="black" stroke-width="10"/>
<path d="M512,-960 L576,-960 z" fill="none" stroke="black" stroke-width="10"/>
<path d="M256,-960 L320,-960 z" fill="none" stroke="black" stroke-width="10"/>
<path d="M320,-960 L320,-1024 z" fill="none" stroke="black" stroke-width="10"/>
<path d="M320,-1600 L320,-2432 z" fill="none" stroke="black" stroke-width="10"/>
<path d="M512,-2432 L512,-1600 z" fill="none" stroke="black" stroke-width="10"/>
<path d="M-288,-2048 L-16,-2888 z" fill="none" stroke="black" stroke-width="10"/>
<path d="M-16,-2888 L-672,-3392 z" fill="none" stroke="black" stroke-width="10"/>
<path d="M-672,-3392 L160,-3392 z" fill="none" stroke="black" stroke-width="10"/>
<path d="M416,-4168 L672,-3392 z" fill="none" stroke="black" stroke-width="10"/>
<path d="M672,-3392 L1504,-3392 z" fill="none" stroke="black" stroke-width="10"/>
<path d="M1504,-3392 L840,-2888 z" fill="none" stroke="black" stroke-width="10"/>
<path d="M128,-1408 L320,-1600 z" fill="none" stroke="black" stroke-width="10"/>
<path d="M512,-1600 L704,-1408 z" fill="none" stroke="black" stroke-width="10"/>
<path d="M320,-1088 L512,-1088 z" fill="none" stroke="black" stroke-width="10"/>
<path d="M512,-704 L512,-640 z" fill="none" stroke="black" stroke-width="10"/>
<path d="M512,-640 L480,-640 z" fill="none" stroke="black" stroke-width="10"/>
<path d="M480,-640 L480,-624 z" fill="none" stroke="black" stroke-width="10"/>
<path d="M480,-624 L480,-608 z" fill="none" stroke="black" stroke-width="10"/>
<path d="M480,-608 L480,-592 z" fill="none" stroke="black" stroke-width="10"/>
<path d="M480,-592 L512,-592 z" fill="none" stroke="black" stroke-width="10"/>
<path d="M512,-592 L512,-448 z" fill="none" stroke="black" stroke-width="10"/>
<path d="M320,-448 L320,-592 z" fill="none" stroke="black" stroke-width="10"/>
<path d="M320,-592 L352,-592 z" fill="none" stroke="black" stroke-width="10"/>
<path d="M352,-592 L352,-608 z" fill="none" stroke="black" stroke-width="10"/>
<path d="M352,-608 L352,-624 z" fill="none" stroke="black" stroke-width="10"/>
<path d="M352,-624 L352,-640 z" fill="none" stroke="black" stroke-width="10"/>
<path d="M352,-640 L320,-640 z" fill="none" stroke="black" stroke-width="10"/>
<path d="M320,-640 L320,-704 z" fill="none" stroke="black" stroke-width="10"/>
<path d="M352,-608 L480,-608 z" fill="none" stroke="black" stroke-width="10"/>
<path d="M480,-624 L352,-624 z" fill="none" stroke="black" stroke-width="10"/>
<path d="M480,-640 L352,-640 z" fill="none" stroke="black" stroke-width="10"/>
<path d="M352,-592 L480,-592 z" fill="none" stroke="black" stroke-width="10"/>
<path d="M160,-3392 L416,-4168 z" fill="none" stroke="black" stroke-width="10"/>
<path d="M480,-416 L488,-416 z" fill="none" stroke="black" stroke-width="10"/>
<path d="M488,-352 L480,-352 z" fill="none" stroke="black" stroke-width="10"/>
<path d="M488,-352 L488,-416 z" fill="none" stroke="black" stroke-width="10"/>
<path d="M488,-416 L544,-416 z" fill="none" stroke="black" stroke-width="10"/>
<path d="M544,-416 L544,-352 z" fill="none" stroke="black" stroke-width="10"/>
<path d="M544,-352 L488,-352 z" fill="none" stroke="black" stroke-width="10"/>
<path d="M480,-384 L480,-352 z" fill="none" stroke="black" stroke-width="10"/>
<path d="M-64,192 L-64,256 z" fill="none" stroke="black" stroke-width="10"/>
<path d="M-64,128 L-64,192 z" fill="none" stroke="black" stroke-width="10"/>
<path d="M-64,256 L-64,320 z" fill="none" stroke="black" stroke-width="10"/>
<path d="M-32,128 L0,128 z" fill="none" stroke="black" stroke-width="10"/>
<path d="M0,128 L32,128 z" fill="none" stroke="black" stroke-width="10"/>
<path d="M32,128 L64,128 z" fill="none" stroke="black" stroke-width="10"/>
<path d="M64,320 L32,320 z" fill="none" stroke="black" stroke-width="10"/>
<path d="M32,320 L0,320 z" fill="none" stroke="black" stroke-width="10"/>
<path d="M0,320 L-32,320 z" fill="none" stroke="black" stroke-width="10"/>
<path d="M64,320 L64,128 z" fill="none" stroke="black" stroke-width="10"/>
<path d="M32,320 L32,128 z" fill="none" stroke="black" stroke-width="10"/>
<path d="M0,320 L0,128 z" fill="none" stroke="black" stroke-width="10"/>
<path d="M64,-1088 L160,-960 z" fill="none" stroke="black" stroke-width="10"/>
<path d="M-72,-1088 L64,-1088 z" fill="none" stroke="black" stroke-width="10"/>
<path d="M-192,-960 L-72,-1088 z" fill="none" stroke="black" stroke-width="10"/>
<path d="M-192,-768 L-192,-960 z" fill="none" stroke="black" stroke-width="10"/>
<path d="M-64,-640 L-192,-768 z" fill="none" stroke="black" stroke-width="10"/>
<path d="M64,-640 L-64,-640 z" fill="none" stroke="black" stroke-width="10"/>
<path d="M160,-768 L64,-640 z" fill="none" stroke="black" stroke-width="10"/>
<path d="M672,-960 L768,-1088 z" fill="none" stroke="black" stroke-width="10"/>
<path d="M768,-1088 L896,-1088 z" fill="none" stroke="black" stroke-width="10"/>
<path d="M896,-1088 L1024,-960 z" fill="none" stroke="black" stroke-width="10"/>
<path d="M1024,-960 L1024,-768 z" fill="none" stroke="black" stroke-width="10"/>
<path d="M1024,-768 L896,-640 z" fill="none" stroke="black" stroke-width="10"/>
<path d="M896,-640 L768,-640 z" fill="none" stroke="black" stroke-width="10"/>
<path d="M768,-640 L672,-768 z" fill="none" stroke="black" stroke-width="10"/>
<path d="M128,-1408 L-760,-744 z" fill="none" stroke="black" stroke-width="10"/>
<path d="M-760,-744 L-2896,-1792 z" fill="none" stroke="black" stroke-width="10"/>
<path d="M-2896,-1792 L-1616,-6048 z" fill="none" stroke="black" stroke-width="10"/>
<path d="M-1616,-6048 L2272,-6048 z" fill="none" stroke="black" stroke-width="10"/>
<path d="M2272,-6048 L3720,-1728 z" fill="none" stroke="black" stroke-width="10"/>
<path d="M3720,-1728 L1480,-744 z" fill="none" stroke="black" stroke-width="10"/>
<path d="M1480,-744 L704,-1408 z" fill="none" stroke="black" stroke-width="10"/>
<path d="M320,-2432 L320,-2496 z" fill="none" stroke="black" stroke-width="10"/>
<path d="M512,-2496 L512,-2432 z" fill="none" stroke="black" stroke-width="10"/>
<path d="M512,-2496 L320,-2496 z" fill="none" stroke="black" stroke-width="10"/>
<path d="M448,-2432 L512,-2432 z" fill="none" stroke="black" stroke-width="10"/>
<path d="M1120,-2048 L512,-2496 z" fill="none" stroke="black" stroke-width="10"/>
<path d="M840,-2888 L1120,-2048 z" fill="none" stroke="black" stroke-width="10"/>
<path d="M320,-2496 L-288,-2048 z" fill="none" stroke="black" stroke-width="10"/>
<path d="M248,-2800 L272,-2800 z" fill="none" stroke="black" stroke-width="10"/>
<path d="M272,-2800 L272,-2824 z" fill="none" stroke="black" stroke-width="10"/>
<path d="M272,-2824 L272,-2832 z" fill="none" stroke="black" stroke-width="10"/>
<path d="M272,-2832 L272,-2912 z" fill="none" stroke="black" stroke-width="10"/>
<path d="M272,-2912 L336,-2912 z" fill="none" stroke="black" stroke-width="10"/>
<path d="M336,-2912 L336,-2832 z" fill="none" stroke="black" stroke-width="10"/>
<path d="M336,-2832 L336,-2824 z" fill="none" stroke="black" stroke-width="10"/>
<path d="M336,-2824 L336,-2800 z" fill="none" stroke="black" stroke-width="10"/>
<path d="M336,-2800 L360,-2800 z" fill="none" stroke="black" stroke-width="10"/>
<path d="M360,-2800 L376,-2880 z" fill="none" stroke="black" stroke-width="10"/>
<path d="M376,-2880 L336,-2944 z" fill="none" stroke="black" stroke-width="10"/>
<path d="M336,-2944 L272,-2944 z" fill="none" stroke="black" stroke-width="10"/>
<path d="M272,-2944 L208,-2880 z" fill="none" stroke="black" stroke-width="10"/>
<path d="M208,-2880 L248,-2800 z" fill="none" stroke="black" stroke-width="10"/>
<path d="M272,-2800 L336,-2800 z" fill="none" stroke="black" stroke-width="10"/>
<path d="M272,-2824 L336,-2824 z" fill="none" stroke="black" stroke-width="10"/>
<path d="M336,-2832 L272,-2832 z" fill="none" stroke="black" stroke-width="10"/>
<path d="M248,-2800 L248,-2752 z" fill="none" stroke="black" stroke-width="10"/>
<path d="M248,-2752 L360,-2752 z" fill="none" stroke="black" stroke-width="10"/>
<path d="M360,-2752 L360,-2800 z" fill="none" stroke="black" stroke-width="10"/>
<path d="M248,-2752 L192,-2688 z" fill="none" stroke="black" stroke-width="10"/>
<path d="M192,-2688 L192,-2624 z" fill="none" stroke="black" stroke-width="10"/>
<path d="M192,-2624 L320,-2496 z" fill="none" stroke="black" stroke-width="10"/>
<path d="M472,-2800 L496,-2800 z" fill="none" stroke="black" stroke-width="10"/>
<path d="M496,-2800 L496,-2824 z" fill="none" stroke="black" stroke-width="10"/>
<path d="M496,-2824 L496,-2832 z" fill="none" stroke="black" stroke-width="10"/>
<path d="M496,-2832 L496,-2912 z" fill="none" stroke="black" stroke-width="10"/>
<path d="M496,-2912 L560,-2912 z" fill="none" stroke="black" stroke-width="10"/>
<path d="M560,-2912 L560,-2832 z" fill="none" stroke="black" stroke-width="10"/>
<path d="M560,-2832 L560,-2824 z" fill="none" stroke="black" stroke-width="10"/>
<path d="M560,-2824 L560,-2800 z" fill="none" stroke="black" stroke-width="10"/>
<path d="M560,-2800 L584,-2800 z" fill="none" stroke="black" stroke-width="10"/>
<path d="M584,-2800 L624,-2880 z" fill="none" stroke="black" stroke-width="10"/>
<path d="M624,-2880 L560,-2944 z" fill="none" stroke="black" stroke-width="10"/>
<path d="M560,-2944 L496,-2944 z" fill="none" stroke="black" stroke-width="10"/>
<path d="M496,-2944 L456,-2880 z" fill="none" stroke="black" stroke-width="10"/>
<path d="M456,-2880 L472,-2800 z" fill="none" stroke="black" stroke-width="10"/>
<path d="M496,-2800 L560,-2800 z" fill="none" stroke="black" stroke-width="10"/>
<path d="M496,-2824 L560,-2824 z" fill="none" stroke="black" stroke-width="10"/>
<path d="M560,-2832 L496,-2832 z" fill="none" stroke="black" stroke-width="10"/>
<path d="M472,-2800 L472,-2752 z" fill="none" stroke="black" stroke-width="10"/>
<path d="M472,-2752 L584,-2752 z" fill="none" stroke="black" stroke-width="10"/>
<path d="M584,-2752 L584,-2800 z" fill="none" stroke="black" stroke-width="10"/>
<path d="M416,-2712 L360,-2752 z" fill="none" stroke="black" stroke-width="10"/>
<path d="M192,-2688 L640,-2688 z" fill="none" stroke="black" stroke-width="10"/>
<path d="M640,-2688 L584,-2752 z" fill="none" stroke="black" stroke-width="10"/>
<path d="M192,-2624 L640,-2624 z" fill="none" stroke="black" stroke-width="10"/>
<path d="M640,-2624 L640,-2688 z" fill="none" stroke="black" stroke-width="10"/>
<path d="M512,-2496 L640,-2624 z" fill="none" stroke="black" stroke-width="10"/>
<path d="M320,-2432 L384,-2432 z" fill="none" stroke="black" stroke-width="10"/>
<path d="M384,-2432 L448,-2432 z" fill="none" stroke="black" stroke-width="10"/>
<path d="M472,-2752 L416,-2712 z" fill="none" stroke="black" stroke-width="10"/>
<path d="M288,-4416 L352,-4416 z" fill="none" stroke="black" stroke-width="10"/>
<path d="M352,-4416 L352,-4448 z" fill="none" stroke="black" stroke-width="10"/>
<path d="M352,-4448 L352,-4480 z" fill="none" stroke="black" stroke-width="10"/>
<path d="M352,-4480 L352,-4512 z" fill="none" stroke="black" stroke-width="10"/>
<path d="M352,-4512 L352,-4544 z" fill="none" stroke="black" stroke-width="10"/>
<path d="M352,-4544 L352,-4576 z" fill="none" stroke="black" stroke-width="10"/>
<path d="M352,-4576 L352,-4608 z" fill="none" stroke="black" stroke-width="10"/>
<path d="M352,-4608 L352,-4640 z" fill="none" stroke="black" stroke-width="10"/>
<path d="M352,-4640 L352,-4672 z" fill="none" stroke="black" stroke-width="10"/>
<path d="M352,-4672 L352,-4704 z" fill="none" stroke="black" stroke-width="10"/>
<path d="M352,-4704 L352,-4736 z" fill="none" stroke="black" stroke-width="10"/>
<path d="M352,-4736 L352,-4768 z" fill="none" stroke="black" stroke-width="10"/>
<path d="M352,-4768 L352,-4800 z" fill="none" stroke="black" stroke-width="10"/>
<path d="M288,-5248 L288,-4416 z" fill="none" stroke="black" stroke-width="10"/>
<path d="M544,-4416 L608,-4416 z" fill="none" stroke="black" stroke-width="10"/>
<path d="M608,-4416 L608,-5248 z" fill="none" stroke="black" stroke-width="10"/>
<path d="M544,-4800 L544,-4768 z" fill="none" stroke="black" stroke-width="10"/>
<path d="M544,-4768 L544,-4736 z" fill="none" stroke="black" stroke-width="10"/>
<path d="M544,-4736 L544,-4704 z" fill="none" stroke="black" stroke-width="10"/>
<path d="M544,-4704 L544,-4672 z" fill="none" stroke="black" stroke-width="10"/>
<path d="M544,-4672 L544,-4640 z" fill="none" stroke="black" stroke-width="10"/>
<path d="M544,-4640 L544,-4608 z" fill="none" stroke="black" stroke-width="10"/>
<path d="M544,-4608 L544,-4576 z" fill="none" stroke="black" stroke-width="10"/>
<path d="M544,-4576 L544,-4544 z" fill="none" stroke="black" stroke-width="10"/>
<path d="M544,-4544 L544,-4512 z" fill="none" stroke="black" stroke-width="10"/>
<path d="M544,-4512 L544,-4480 z" fill="none" stroke="black" stroke-width="10"/>
<path d="M544,-4480 L544,-4448 z" fill="none" stroke="black" stroke-width="10"/>
<path d="M544,-4448 L544,-4416 z" fill="none" stroke="black" stroke-width="10"/>
<path d="M352,-4416 L544,-4416 z" fill="none" stroke="black" stroke-width="10"/>
<path d="M352,-4448 L544,-4448 z" fill="none" stroke="black" stroke-width="10"/>
<path d="M352,-4480 L544,-4480 z" fill="none" stroke="black" stroke-width="10"/>
<path d="M352,-4512 L544,-4512 z" fill="none" stroke="black" stroke-width="10"/>
<path d="M352,-4544 L544,-4544 z" fill="none" stroke="black" stroke-width="10"/>
<path d="M352,-4576 L544,-4576 z" fill="none" stroke="black" stroke-width="10"/>
<path d="M352,-4608 L544,-4608 z" fill="none" stroke="black" stroke-width="10"/>
<path d="M352,-4640 L544,-4640 z" fill="none" stroke="black" stroke-width="10"/>
<path d="M352,-4672 L544,-4672 z" fill="none" stroke="black" stroke-width="10"/>
<path d="M352,-4704 L544,-4704 z" fill="none" stroke="black" stroke-width="10"/>
<path d="M352,-4736 L544,-4736 z" fill="none" stroke="black" stroke-width="10"/>
<path d="M352,-4768 L544,-4768 z" fill="none" stroke="black" stroke-width="10"/>
<path d="M352,-4800 L544,-4800 z" fill="none" stroke="black" stroke-width="10"/>
<path d="M608,-5248 L288,-5248 z" fill="none" stroke="black" stroke-width="10"/>
<path d="M352,-4800 L352,-4832 z" fill="none" stroke="black" stroke-width="10"/>
<path d="M352,-4832 L544,-4832 z" fill="none" stroke="black" stroke-width="10"/>
<path d="M544,-4832 L544,-4800 z" fill="none" stroke="black" stroke-width="10"/>
<path d="M352,-4832 L352,-4864 z" fill="none" stroke="black" stroke-width="10"/>
<path d="M352,-4864 L544,-4864 z" fill="none" stroke="black" stroke-width="10"/>
<path d="M544,-4864 L544,-4832 z" fill="none" stroke="black" stroke-width="10"/>
<path d="M256,-2392 L256,-1600 z" fill="none" stroke="black" stroke-width="10"/>
<path d="M256,-1600 L128,-1408 z" fill="none" stroke="black" stroke-width="10"/>
<path d="M-352,-1952 L256,-2392 z" fill="none" stroke="black" stroke-width="10"/>
<path d="M-64,-2880 L-352,-1952 z" fill="none" stroke="black" stroke-width="10"/>
<path d="M-784,-3432 L-64,-2880 z" fill="none" stroke="black" stroke-width="10"/>
<path d="M128,-3432 L-784,-3432 z" fill="none" stroke="black" stroke-width="10"/>
<path d="M416,-4240 L128,-3432 z" fill="none" stroke="black" stroke-width="10"/>
<path d="M704,-3432 L416,-4240 z" fill="none" stroke="black" stroke-width="10"/>
<path d="M1600,-3432 L704,-3432 z" fill="none" stroke="black" stroke-width="10"/>
<path d="M896,-2880 L1600,-3432 z" fill="none" stroke="black" stroke-width="10"/>
<path d="M1184,-1952 L896,-2880 z" fill="none" stroke="black" stroke-width="10"/>
<path d="M576,-2392 L1184,-1952 z" fill="none" stroke="black" stroke-width="10"/>
<path d="M576,-1600 L576,-2392 z" fill="none" stroke="black" stroke-width="10"/>
<path d="M704,-1408 L576,-1600 z" fill="none" stroke="black" stroke-width="10"/>
<path d="M704,-1408 L512,-1112 z" fill="none" stroke="black" stroke-width="10"/>
<path d="M512,-1112 L512,-1088 z" fill="none" stroke="black" stroke-width="10"/>
<path d="M320,-1088 L320,-1112 z" fill="none" stroke="black" stroke-width="10"/>
<path d="M320,-1112 L128,-1408 z" fill="none" stroke="black" stroke-width="10"/>
<path d="M384,-5056 L448,-5056 z" fill="none" stroke="black" stroke-width="10"/>
<path d="M448,-5056 L512,-5056 z" fill="none" stroke="black" stroke-width="10"/>
<path d="M512,-5056 L512,-5120 z" fill="none" stroke="black" stroke-width="10"/>
<path d="M512,-5120 L512,-5184 z" fill="none" stroke="black" stroke-width="10"/>
<path d="M512,-5184 L448,-5184 z" fill="none" stroke="black" stroke-width="10"/>
<path d="M448,-5184 L384,-5184 z" fill="none" stroke="black" stroke-width="10"/>
<path d="M384,-5184 L384,-5120 z" fill="none" stroke="black" stroke-width="10"/>
<path d="M384,-5120 L384,-5056 z" fill="none" stroke="black" stroke-width="10"/>
<path d="M384,-5120 L448,-5120 z" fill="none" stroke="black" stroke-width="10"/>
<path d="M448,-5120 L512,-5120 z" fill="none" stroke="black" stroke-width="10"/>
<path d="M448,-5184 L448,-5120 z" fill="none" stroke="black" stroke-width="10"/>
<path d="M448,-5120 L448,-5056 z" fill="none" stroke="black" stroke-width="10"/>
<path d="M352,-5024 L544,-5024 z" fill="none" stroke="black" stroke-width="10"/>
<path d="M544,-5024 L544,-5216 z" fill="none" stroke="black" stroke-width="10"/>
<path d="M544,-5216 L352,-5216 z" fill="none" stroke="black" stroke-width="10"/>
<path d="M352,-5216 L352,-5024 z" fill="none" stroke="black" stroke-width="10"/>
<path d="M368,-5200 L528,-5200 z" fill="none" stroke="black" stroke-width="10"/>
<path d="M528,-5200 L528,-5040 z" fill="none" stroke="black" stroke-width="10"/>
<path d="M528,-5040 L368,-5040 z" fill="none" stroke="black" stroke-width="10"/>
<path d="M368,-5040 L368,-5200 z" fill="none" stroke="black" stroke-width="10"/>
<path d="M768,-6272 L448,-6272 z" fill="none" stroke="black" stroke-width="10"/>
<path d="M448,-6272 L448,-6656 z" fill="none" stroke="black" stroke-width="10"/>
<path d="M448,-6656 L768,-6656 z" fill="none" stroke="black" stroke-width="10"/>
<path d="M768,-6656 L768,-6272 z" fill="none" stroke="black" stroke-width="10"/>
<path d="M560,-6512 L656,-6512 z" fill="none" stroke="black" stroke-width="10"/>
<path d="M656,-6512 L656,-6416 z" fill="none" stroke="black" stroke-width="10"/>
<path d="M656,-6416 L560,-6416 z" fill="none" stroke="black" stroke-width="10"/>
<path d="M560,-6416 L560,-6512 z" fill="none" stroke="black" stroke-width="10"/>
<path d="M560,-2912 L568,-2912 z" fill="none" stroke="black" stroke-width="10"/>
<path d="M568,-2832 L560,-2832 z" fill="none" stroke="black" stroke-width="10"/>
<path d="M592,-2832 L568,-2832 z" fill="none" stroke="black" stroke-width="10"/>
<path d="M568,-2912 L592,-2896 z" fill="none" stroke="black" stroke-width="10"/>
<path d="M592,-2896 L592,-2832 z" fill="none" stroke="black" stroke-width="10"/>
<path d="M568,-2832 L568,-2912 z" fill="none" stroke="black" stroke-width="10"/>
</svg>