<svg viewBox="0 -3400 10000 10000" xmlns="http://www.w3.org/2000/svg">
<path d="M128,64 L128,128 z" fill="none" stroke="black" stroke-width="10"/>
<path d="M-128,128 L-128,64 z" fill="none" stroke="black" stroke-width="10"/>
<path d="M-128,64 L-128,-64 z" fill="none" stroke="black" stroke-width="10"/>
<path d="M-128,-64 L-64,-128 z" fill="none" stroke="black" stroke-width="10"/>
<path d="M64,-128 L128,-64 z" fill="none" stroke="black" stroke-width="10"/>
<path d="M128,-64 L128,64 z" fill="none" stroke="black" stroke-width="10"/>
<path d="M-64,-128 L-64,-384 z" fill="none" stroke="black" stroke-width="10"/>
<path d="M64,-384 L64,-128 z" fill="none" stroke="black" stroke-width="10"/>
<path d="M128,128 L128,320 z" fill="none" stroke="black" stroke-width="10"/>
<path d="M-128,320 L-128,128 z" fill="none" stroke="black" stroke-width="10"/>
<path d="M128,64 L-128,64 z" fill="none" stroke="black" stroke-width="10"/>
<path d="M-128,128 L128,128 z" fill="none" stroke="black" stroke-width="10"/>
<path d="M184,424 L-184,424 z" fill="none" stroke="black" stroke-width="10"/>
<path d="M-184,424 L-128,320 z" fill="none" stroke="black" stroke-width="10"/>
<path d="M-128,320 L128,320 z" fill="none" stroke="black" stroke-width="10"/>
<path d="M128,-384 L64,-384 z" fill="none" stroke="black" stroke-width="10"/>
<path d="M-64,-384 L-128,-384 z" fill="none" stroke="black" stroke-width="10"/>
<path d="M128,-640 L296,-520 z" fill="none" stroke="black" stroke-width="10"/>
<path d="M256,-320 L128,-384 z" fill="none" stroke="black" stroke-width="10"/>
<path d="M296,-520 L416,-472 z" fill="none" stroke="black" stroke-width="10"/>
<path d="M384,-288 L256,-320 z" fill="none" stroke="black" stroke-width="10"/>
<path d="M416,-472 L576,-448 z" fill="none" stroke="black" stroke-width="10"/>
<path d="M576,-256 L384,-288 z" fill="none" stroke="black" stroke-width="10"/>
<path d="M576,-448 L704,-480 z" fill="none" stroke="black" stroke-width="10"/>
<path d="M704,-480 L896,-496 z" fill="none" stroke="black" stroke-width="10"/>
<path d="M896,-496 L1088,-416 z" fill="none" stroke="black" stroke-width="10"/>
<path d="M1088,-192 L896,-144 z" fill="none" stroke="black" stroke-width="10"/>
<path d="M896,-144 L704,-176 z" fill="none" stroke="black" stroke-width="10"/>
<path d="M704,-176 L576,-256 z" fill="none" stroke="black" stroke-width="10"/>
<path d="M1088,-416 L1216,-416 z" fill="none" stroke="black" stroke-width="10"/>
<path d="M1216,-192 L1088,-192 z" fill="none" stroke="black" stroke-width="10"/>
<path d="M1408,-192 L1280,-192 z" fill="none" stroke="black" stroke-width="10"/>
<path d="M-64,-128 L64,-128 z" fill="none" stroke="black" stroke-width="10"/>
<path d="M64,-384 L-64,-384 z" fill="none" stroke="black" stroke-width="10"/>
<path d="M576,-256 L576,-448 z" fill="none" stroke="black" stroke-width="10"/>
<path d="M-128,-576 L-128,-640 z" fill="none" stroke="black" stroke-width="10"/>
<path d="M-128,-640 L-64,-640 z" fill="none" stroke="black" stroke-width="10"/>
<path d="M-128,-576 L-64,-576 z" fill="none" stroke="black" stroke-width="10"/>
<path d="M-64,-576 L-64,-640 z" fill="none" stroke="black" stroke-width="10"/>
<path d="M1600,-384 L1600,-64 z" fill="none" stroke="black" stroke-width="10"/>
<path d="M1408,-64 L1408,-192 z" fill="none" stroke="black" stroke-width="10"/>
<path d="M1600,-64 L1728,64 z" fill="none" stroke="black" stroke-width="10"/>
<path d="M1728,64 L1728,320 z" fill="none" stroke="black" stroke-width="10"/>
<path d="M1728,320 L1664,384 z" fill="none" stroke="black" stroke-width="10"/>
<path d="M1344,384 L1280,320 z" fill="none" stroke="black" stroke-width="10"/>
<path d="M1280,320 L1280,64 z" fill="none" stroke="black" stroke-width="10"/>
<path d="M1280,64 L1408,-64 z" fill="none" stroke="black" stroke-width="10"/>
<path d="M1408,-64 L1600,-64 z" fill="none" stroke="black" stroke-width="10"/>
<path d="M1664,384 L1344,384 z" fill="none" stroke="black" stroke-width="10"/>
<path d="M1280,-416 L1408,-416 z" fill="none" stroke="black" stroke-width="10"/>
<path d="M1408,-416 L1600,-384 z" fill="none" stroke="black" stroke-width="10"/>
<path d="M1408,-416 L1408,-192 z" fill="none" stroke="black" stroke-width="10"/>
<path d="M1408,656 L1600,656 z" fill="none" stroke="black" stroke-width="10"/>
<path d="M1680,576 L1680,448 z" fill="none" stroke="black" stroke-width="10"/>
<path d="M1328,448 L1328,576 z" fill="none" stroke="black" stroke-width="10"/>
<path d="M1664,384 L1664,448 z" fill="none" stroke="black" stroke-width="10"/>
<path d="M1664,448 L1680,448 z" fill="none" stroke="black" stroke-width="10"/>
<path d="M1680,448 L1680,384 z" fill="none" stroke="black" stroke-width="10"/>
<path d="M1680,576 L1664,576 z" fill="none" stroke="black" stroke-width="10"/>
<path d="M1664,576 L1664,640 z" fill="none" stroke="black" stroke-width="10"/>
<path d="M1664,640 L1600,640 z" fill="none" stroke="black" stroke-width="10"/>
<path d="M1600,640 L1600,656 z" fill="none" stroke="black" stroke-width="10"/>
<path d="M1600,656 L1680,656 z" fill="none" stroke="black" stroke-width="10"/>
<path d="M1680,656 L1680,576 z" fill="none" stroke="black" stroke-width="10"/>
<path d="M1344,448 L1344,384 z" fill="none" stroke="black" stroke-width="10"/>
<path d="M1328,384 L1328,448 z" fill="none" stroke="black" stroke-width="10"/>
<path d="M1328,448 L1344,448 z" fill="none" stroke="black" stroke-width="10"/>
<path d="M1344,576 L1328,576 z" fill="none" stroke="black" stroke-width="10"/>
<path d="M1408,640 L1408,576 z" fill="none" stroke="black" stroke-width="10"/>
<path d="M1408,576 L1344,576 z" fill="none" stroke="black" stroke-width="10"/>
<path d="M1328,576 L1328,656 z" fill="none" stroke="black" stroke-width="10"/>
<path d="M1328,656 L1408,656 z" fill="none" stroke="black" stroke-width="10"/>
<path d="M1408,656 L1408,640 z" fill="none" stroke="black" stroke-width="10"/>
<path d="M1664,448 L1664,576 z" fill="none" stroke="black" stroke-width="10"/>
<path d="M1600,640 L1408,640 z" fill="none" stroke="black" stroke-width="10"/>
<path d="M1344,576 L1344,448 z" fill="none" stroke="black" stroke-width="10"/>
<path d="M1680,384 L1744,320 z" fill="none" stroke="black" stroke-width="10"/>
<path d="M1744,320 L1744,64 z" fill="none" stroke="black" stroke-width="10"/>
<path d="M1744,64 L1664,-16 z" fill="none" stroke="black" stroke-width="10"/>
<path d="M1920,-384 L2176,-128 z" fill="none" stroke="black" stroke-width="10"/>
<path d="M2176,-128 L2176,64 z" fill="none" stroke="black" stroke-width="10"/>
<path d="M2176,64 L2240,192 z" fill="none" stroke="black" stroke-width="10"/>
<path d="M2240,192 L2240,448 z" fill="none" stroke="black" stroke-width="10"/>
<path d="M2240,448 L1984,704 z" fill="none" stroke="black" stroke-width="10"/>
<path d="M1984,704 L1984,960 z" fill="none" stroke="black" stroke-width="10"/>
<path d="M1984,960 L1728,1152 z" fill="none" stroke="black" stroke-width="10"/>
<path d="M1344,1152 L1088,960 z" fill="none" stroke="black" stroke-width="10"/>
<path d="M1088,960 L832,960 z" fill="none" stroke="black" stroke-width="10"/>
<path d="M832,960 L640,768 z" fill="none" stroke="black" stroke-width="10"/>
<path d="M640,768 L640,384 z" fill="none" stroke="black" stroke-width="10"/>
<path d="M640,384 L896,128 z" fill="none" stroke="black" stroke-width="10"/>
<path d="M1336,-8 L1264,64 z" fill="none" stroke="black" stroke-width="10"/>
<path d="M1264,64 L1264,256 z" fill="none" stroke="black" stroke-width="10"/>
<path d="M1264,320 L1328,384 z" fill="none" stroke="black" stroke-width="10"/>
<path d="M240,384 L624,384 z" fill="none" stroke="black" stroke-width="10"/>
<path d="M128,496 L240,384 z" fill="none" stroke="black" stroke-width="10"/>
<path d="M624,768 L832,976 z" fill="none" stroke="black" stroke-width="10"/>
<path d="M256,1216 L128,1088 z" fill="none" stroke="black" stroke-width="10"/>
<path d="M192,-256 L448,-256 z" fill="none" stroke="black" stroke-width="10"/>
<path d="M448,-256 L640,-64 z" fill="none" stroke="black" stroke-width="10"/>
<path d="M832,128 L640,320 z" fill="none" stroke="black" stroke-width="10"/>
<path d="M640,320 L384,320 z" fill="none" stroke="black" stroke-width="10"/>
<path d="M384,320 L192,128 z" fill="none" stroke="black" stroke-width="10"/>
<path d="M192,128 L192,-256 z" fill="none" stroke="black" stroke-width="10"/>
<path d="M640,-64 L768,-64 z" fill="none" stroke="black" stroke-width="10"/>
<path d="M768,-64 L832,-64 z" fill="none" stroke="black" stroke-width="10"/>
<path d="M832,-64 L832,0 z" fill="none" stroke="black" stroke-width="10"/>
<path d="M832,0 L832,128 z" fill="none" stroke="black" stroke-width="10"/>
<path d="M768,-64 L768,0 z" fill="none" stroke="black" stroke-width="10"/>
<path d="M768,0 L832,0 z" fill="none" stroke="black" stroke-width="10"/>
<path d="M832,976 L1088,976 z" fill="none" stroke="black" stroke-width="10"/>
<path d="M1088,976 L1152,1040 z" fill="none" stroke="black" stroke-width="10"/>
<path d="M1152,1040 L1152,1088 z" fill="none" stroke="black" stroke-width="10"/>
<path d="M1152,1088 L1216,1088 z" fill="none" stroke="black" stroke-width="10"/>
<path d="M1216,1088 L1216,1152 z" fill="none" stroke="black" stroke-width="10"/>
<path d="M1216,1152 L1152,1152 z" fill="none" stroke="black" stroke-width="10"/>
<path d="M1152,1088 L1152,1152 z" fill="none" stroke="black" stroke-width="10"/>
<path d="M640,128 L576,128 z" fill="none" stroke="black" stroke-width="10"/>
<path d="M576,128 L576,192 z" fill="none" stroke="black" stroke-width="10"/>
<path d="M576,192 L640,192 z" fill="none" stroke="black" stroke-width="10"/>
<path d="M640,192 L640,128 z" fill="none" stroke="black" stroke-width="10"/>
<path d="M512,0 L512,-64 z" fill="none" stroke="black" stroke-width="10"/>
<path d="M512,-64 L448,-64 z" fill="none" stroke="black" stroke-width="10"/>
<path d="M448,-64 L448,0 z" fill="none" stroke="black" stroke-width="10"/>
<path d="M448,0 L512,0 z" fill="none" stroke="black" stroke-width="10"/>
<path d="M416,160 L416,96 z" fill="none" stroke="black" stroke-width="10"/>
<path d="M416,96 L352,96 z" fill="none" stroke="black" stroke-width="10"/>
<path d="M352,96 L352,160 z" fill="none" stroke="black" stroke-width="10"/>
<path d="M352,160 L416,160 z" fill="none" stroke="black" stroke-width="10"/>
<path d="M352,-64 L352,-128 z" fill="none" stroke="black" stroke-width="10"/>
<path d="M352,-128 L288,-128 z" fill="none" stroke="black" stroke-width="10"/>
<path d="M288,-128 L288,-64 z" fill="none" stroke="black" stroke-width="10"/>
<path d="M288,-64 L352,-64 z" fill="none" stroke="black" stroke-width="10"/>
<path d="M-128,704 L-192,640 z" fill="none" stroke="black" stroke-width="10"/>
<path d="M-192,640 L-192,512 z" fill="none" stroke="black" stroke-width="10"/>
<path d="M-192,512 L-128,448 z" fill="none" stroke="black" stroke-width="10"/>
<path d="M-128,448 L0,576 z" fill="none" stroke="black" stroke-width="10"/>
<path d="M0,576 L64,576 z" fill="none" stroke="black" stroke-width="10"/>
<path d="M64,832 L0,896 z" fill="none" stroke="black" stroke-width="10"/>
<path d="M0,896 L96,992 z" fill="none" stroke="black" stroke-width="10"/>
<path d="M96,992 L96,1184 z" fill="none" stroke="black" stroke-width="10"/>
<path d="M96,1184 L0,1280 z" fill="none" stroke="black" stroke-width="10"/>
<path d="M-256,1088 L-200,1032 z" fill="none" stroke="black" stroke-width="10"/>
<path d="M-200,1032 L-288,944 z" fill="none" stroke="black" stroke-width="10"/>
<path d="M-288,944 L-288,768 z" fill="none" stroke="black" stroke-width="10"/>
<path d="M-192,768 L-128,704 z" fill="none" stroke="black" stroke-width="10"/>
<path d="M-256,1216 L-256,1088 z" fill="none" stroke="black" stroke-width="10"/>
<path d="M64,576 L64,640 z" fill="none" stroke="black" stroke-width="10"/>
<path d="M64,640 L64,832 z" fill="none" stroke="black" stroke-width="10"/>
<path d="M0,576 L0,640 z" fill="none" stroke="black" stroke-width="10"/>
<path d="M0,640 L64,640 z" fill="none" stroke="black" stroke-width="10"/>
<path d="M-192,384 L-256,384 z" fill="none" stroke="black" stroke-width="10"/>
<path d="M-256,384 L-256,320 z" fill="none" stroke="black" stroke-width="10"/>
<path d="M-256,320 L-256,-576 z" fill="none" stroke="black" stroke-width="10"/>
<path d="M-256,-576 L-256,-640 z" fill="none" stroke="black" stroke-width="10"/>
<path d="M-256,-640 L-192,-640 z" fill="none" stroke="black" stroke-width="10"/>
<path d="M-192,-640 L-192,-576 z" fill="none" stroke="black" stroke-width="10"/>
<path d="M-192,-576 L-192,320 z" fill="none" stroke="black" stroke-width="10"/>
<path d="M-192,320 L-192,384 z" fill="none" stroke="black" stroke-width="10"/>
<path d="M-256,-576 L-192,-576 z" fill="none" stroke="black" stroke-width="10"/>
<path d="M-192,320 L-256,320 z" fill="none" stroke="black" stroke-width="10"/>
<path d="M656,1152 L448,944 z" fill="none" stroke="black" stroke-width="10"/>
<path d="M448,944 L408,984 z" fill="none" stroke="black" stroke-width="10"/>
<path d="M576,1152 L640,1152 z" fill="none" stroke="black" stroke-width="10"/>
<path d="M640,1152 L640,1216 z" fill="none" stroke="black" stroke-width="10"/>
<path d="M640,1216 L576,1216 z" fill="none" stroke="black" stroke-width="10"/>
<path d="M576,1152 L576,1216 z" fill="none" stroke="black" stroke-width="10"/>
<path d="M2112,704 L2112,640 z" fill="none" stroke="black" stroke-width="10"/>
<path d="M2112,640 L2176,640 z" fill="none" stroke="black" stroke-width="10"/>
<path d="M2176,640 L2176,704 z" fill="none" stroke="black" stroke-width="10"/>
<path d="M2176,704 L2288,816 z" fill="none" stroke="black" stroke-width="10"/>
<path d="M2288,1088 L2240,1088 z" fill="none" stroke="black" stroke-width="10"/>
<path d="M2176,1088 L2176,1112 z" fill="none" stroke="black" stroke-width="10"/>
<path d="M2176,1112 L2176,1128 z" fill="none" stroke="black" stroke-width="10"/>
<path d="M2176,1128 L2176,1152 z" fill="none" stroke="black" stroke-width="10"/>
<path d="M2176,1152 L2224,1184 z" fill="none" stroke="black" stroke-width="10"/>
<path d="M2224,1184 L2176,1264 z" fill="none" stroke="black" stroke-width="10"/>
<path d="M2176,1264 L2160,1264 z" fill="none" stroke="black" stroke-width="10"/>
<path d="M2160,1264 L2128,1264 z" fill="none" stroke="black" stroke-width="10"/>
<path d="M2128,1264 L2112,1264 z" fill="none" stroke="black" stroke-width="10"/>
<path d="M2112,1264 L2064,1184 z" fill="none" stroke="black" stroke-width="10"/>
<path d="M2064,1184 L2112,1152 z" fill="none" stroke="black" stroke-width="10"/>
<path d="M2112,1152 L2112,1128 z" fill="none" stroke="black" stroke-width="10"/>
<path d="M2112,1128 L2112,1112 z" fill="none" stroke="black" stroke-width="10"/>
<path d="M2112,1112 L2112,1088 z" fill="none" stroke="black" stroke-width="10"/>
<path d="M2048,1088 L2000,1088 z" fill="none" stroke="black" stroke-width="10"/>
<path d="M2000,816 L2112,704 z" fill="none" stroke="black" stroke-width="10"/>
<path d="M2176,1088 L2112,1088 z" fill="none" stroke="black" stroke-width="10"/>
<path d="M2176,1112 L2112,1112 z" fill="none" stroke="black" stroke-width="10"/>
<path d="M2112,1128 L2176,1128 z" fill="none" stroke="black" stroke-width="10"/>
<path d="M2112,1152 L2176,1152 z" fill="none" stroke="black" stroke-width="10"/>
<path d="M2112,704 L2176,704 z" fill="none" stroke="black" stroke-width="10"/>
<path d="M1664,-16 L1664,-320 z" fill="none" stroke="black" stroke-width="10"/>
<path d="M1664,-320 L1664,-384 z" fill="none" stroke="black" stroke-width="10"/>
<path d="M1664,-384 L1728,-384 z" fill="none" stroke="black" stroke-width="10"/>
<path d="M1728,-384 L1920,-384 z" fill="none" stroke="black" stroke-width="10"/>
<path d="M1664,-320 L1728,-320 z" fill="none" stroke="black" stroke-width="10"/>
<path d="M1728,-320 L1728,-384 z" fill="none" stroke="black" stroke-width="10"/>
<path d="M1216,-128 L1280,-128 z" fill="none" stroke="black" stroke-width="10"/>
<path d="M1280,-128 L1280,-64 z" fill="none" stroke="black" stroke-width="10"/>
<path d="M1280,-64 L1336,-8 z" fill="none" stroke="black" stroke-width="10"/>
<path d="M1216,-128 L1216,-64 z" fill="none" stroke="black" stroke-width="10"/>
<path d="M1216,-64 L1280,-64 z" fill="none" stroke="black" stroke-width="10"/>
<path d="M1328,656 L1088,960 z" fill="none" stroke="black" stroke-width="10"/>
<path d="M1984,960 L1680,656 z" fill="none" stroke="black" stroke-width="10"/>
<path d="M1344,1152 L1408,656 z" fill="none" stroke="black" stroke-width="10"/>
<path d="M1600,656 L1728,1152 z" fill="none" stroke="black" stroke-width="10"/>
<path d="M1728,1152 L1664,1152 z" fill="none" stroke="black" stroke-width="10"/>
<path d="M1664,1152 L1664,1184 z" fill="none" stroke="black" stroke-width="10"/>
<path d="M1664,1184 L1408,1184 z" fill="none" stroke="black" stroke-width="10"/>
<path d="M1408,1184 L1408,1152 z" fill="none" stroke="black" stroke-width="10"/>
<path d="M1408,1152 L1344,1152 z" fill="none" stroke="black" stroke-width="10"/>
<path d="M1664,1152 L1408,1152 z" fill="none" stroke="black" stroke-width="10"/>
<path d="M64,832 L-128,704 z" fill="none" stroke="black" stroke-width="10"/>
<path d="M-192,768 L0,896 z" fill="none" stroke="black" stroke-width="10"/>
<path d="M1216,-384 L1280,-384 z" fill="none" stroke="black" stroke-width="10"/>
<path d="M1280,-224 L1216,-224 z" fill="none" stroke="black" stroke-width="10"/>
<path d="M1280,-384 L1280,-336 z" fill="none" stroke="black" stroke-width="10"/>
<path d="M1280,-336 L1280,-272 z" fill="none" stroke="black" stroke-width="10"/>
<path d="M1280,-272 L1280,-224 z" fill="none" stroke="black" stroke-width="10"/>
<path d="M1216,-384 L1216,-336 z" fill="none" stroke="black" stroke-width="10"/>
<path d="M1216,-336 L1216,-272 z" fill="none" stroke="black" stroke-width="10"/>
<path d="M1216,-272 L1216,-224 z" fill="none" stroke="black" stroke-width="10"/>
<path d="M1216,-336 L1280,-336 z" fill="none" stroke="black" stroke-width="10"/>
<path d="M1280,-272 L1216,-272 z" fill="none" stroke="black" stroke-width="10"/>
<path d="M1216,-416 L1216,-384 z" fill="none" stroke="black" stroke-width="10"/>
<path d="M1280,-384 L1280,-416 z" fill="none" stroke="black" stroke-width="10"/>
<path d="M1216,-224 L1216,-192 z" fill="none" stroke="black" stroke-width="10"/>
<path d="M1280,-192 L1280,-224 z" fill="none" stroke="black" stroke-width="10"/>
<path d="M1088,-416 L1088,-192 z" fill="none" stroke="black" stroke-width="10"/>
<path d="M2176,-128 L1744,64 z" fill="none" stroke="black" stroke-width="10"/>
<path d="M1744,320 L2240,192 z" fill="none" stroke="black" stroke-width="10"/>
<path d="M2112,512 L1984,384 z" fill="none" stroke="black" stroke-width="10"/>
<path d="M1984,384 L1944,552 z" fill="none" stroke="black" stroke-width="10"/>
<path d="M1944,552 L2112,512 z" fill="none" stroke="black" stroke-width="10"/>
<path d="M1792,128 L2080,0 z" fill="none" stroke="black" stroke-width="10"/>
<path d="M2080,0 L2136,144 z" fill="none" stroke="black" stroke-width="10"/>
<path d="M2136,144 L1816,224 z" fill="none" stroke="black" stroke-width="10"/>
<path d="M1816,224 L1792,128 z" fill="none" stroke="black" stroke-width="10"/>
<path d="M896,384 L960,680 z" fill="none" stroke="black" stroke-width="10"/>
<path d="M1088,640 L1088,384 z" fill="none" stroke="black" stroke-width="10"/>
<path d="M896,128 L1264,64 z" fill="none" stroke="black" stroke-width="10"/>
<path d="M960,680 L640,768 z" fill="none" stroke="black" stroke-width="10"/>
<path d="M1088,640 L960,680 z" fill="none" stroke="black" stroke-width="10"/>
<path d="M1328,576 L1088,640 z" fill="none" stroke="black" stroke-width="10"/>
<path d="M1088,384 L1328,384 z" fill="none" stroke="black" stroke-width="10"/>
<path d="M896,384 L1088,384 z" fill="none" stroke="black" stroke-width="10"/>
<path d="M640,384 L896,384 z" fill="none" stroke="black" stroke-width="10"/>
<path d="M1600,576 L1600,640 z" fill="none" stroke="black" stroke-width="10"/>
<path d="M1664,576 L1600,576 z" fill="none" stroke="black" stroke-width="10"/>
<path d="M712,632 L776,632 z" fill="none" stroke="black" stroke-width="10"/>
<path d="M776,632 L776,568 z" fill="none" stroke="black" stroke-width="10"/>
<path d="M776,568 L712,568 z" fill="none" stroke="black" stroke-width="10"/>
<path d="M712,568 L712,632 z" fill="none" stroke="black" stroke-width="10"/>
<path d="M1208,520 L1288,520 z" fill="none" stroke="black" stroke-width="10"/>
<path d="M1288,520 L1288,440 z" fill="none" stroke="black" stroke-width="10"/>
<path d="M1288,440 L1208,440 z" fill="none" stroke="black" stroke-width="10"/>
<path d="M1208,440 L1208,520 z" fill="none" stroke="black" stroke-width="10"/>
<path d="M656,1152 L832,976 z" fill="none" stroke="black" stroke-width="10"/>
<path d="M624,768 L448,944 z" fill="none" stroke="black" stroke-width="10"/>
<path d="M832,1216 L768,1216 z" fill="none" stroke="black" stroke-width="10"/>
<path d="M768,1216 L768,1152 z" fill="none" stroke="black" stroke-width="10"/>
<path d="M768,1152 L656,1152 z" fill="none" stroke="black" stroke-width="10"/>
<path d="M832,1152 L768,1152 z" fill="none" stroke="black" stroke-width="10"/>
<path d="M1152,-88 L1136,-120 z" fill="none" stroke="black" stroke-width="10"/>
<path d="M1136,-120 L952,-64 z" fill="none" stroke="black" stroke-width="10"/>
<path d="M952,-64 L960,-32 z" fill="none" stroke="black" stroke-width="10"/>
<path d="M960,-32 L1152,-88 z" fill="none" stroke="black" stroke-width="10"/>
<path d="M-192,1280 L-256,1280 z" fill="none" stroke="black" stroke-width="10"/>
<path d="M-256,1280 L-256,1216 z" fill="none" stroke="black" stroke-width="10"/>
<path d="M-192,1280 L-192,1216 z" fill="none" stroke="black" stroke-width="10"/>
<path d="M-192,1216 L-256,1216 z" fill="none" stroke="black" stroke-width="10"/>
<path d="M408,984 L408,1088 z" fill="none" stroke="black" stroke-width="10"/>
<path d="M424,1088 L440,1088 z" fill="none" stroke="black" stroke-width="10"/>
<path d="M544,1088 L576,1152 z" fill="none" stroke="black" stroke-width="10"/>
<path d="M440,1216 L424,1216 z" fill="none" stroke="black" stroke-width="10"/>
<path d="M408,1216 L256,1216 z" fill="none" stroke="black" stroke-width="10"/>
<path d="M408,1088 L408,1216 z" fill="none" stroke="black" stroke-width="10"/>
<path d="M424,1088 L424,1216 z" fill="none" stroke="black" stroke-width="10"/>
<path d="M440,1216 L440,1088 z" fill="none" stroke="black" stroke-width="10"/>
<path d="M408,1088 L424,1088 z" fill="none" stroke="black" stroke-width="10"/>
<path d="M440,1088 L544,1088 z" fill="none" stroke="black" stroke-width="10"/>
<path d="M576,1216 L440,1216 z" fill="none" stroke="black" stroke-width="10"/>
<path d="M424,1216 L408,1216 z" fill="none" stroke="black" stroke-width="10"/>
<path d="M1152,1152 L896,1152 z" fill="none" stroke="black" stroke-width="10"/>
<path d="M896,1152 L896,1216 z" fill="none" stroke="black" stroke-width="10"/>
<path d="M896,1216 L960,1216 z" fill="none" stroke="black" stroke-width="10"/>
<path d="M832,1344 L832,1216 z" fill="none" stroke="black" stroke-width="10"/>
<path d="M832,1152 L832,1216 z" fill="none" stroke="black" stroke-width="10"/>
<path d="M896,1152 L832,1152 z" fill="none" stroke="black" stroke-width="10"/>
<path d="M832,1216 L896,1216 z" fill="none" stroke="black" stroke-width="10"/>
<path d="M960,1216 L960,1280 z" fill="none" stroke="black" stroke-width="10"/>
<path d="M960,1280 L960,1344 z" fill="none" stroke="black" stroke-width="10"/>
<path d="M960,1344 L896,1344 z" fill="none" stroke="black" stroke-width="10"/>
<path d="M896,1344 L832,1344 z" fill="none" stroke="black" stroke-width="10"/>
<path d="M960,1280 L896,1280 z" fill="none" stroke="black" stroke-width="10"/>
<path d="M896,1280 L896,1344 z" fill="none" stroke="black" stroke-width="10"/>
<path d="M-288,768 L-288,736 z" fill="none" stroke="black" stroke-width="10"/>
<path d="M-288,736 L-288,704 z" fill="none" stroke="black" stroke-width="10"/>
<path d="M-288,704 L-288,672 z" fill="none" stroke="black" stroke-width="10"/>
<path d="M-288,672 L-288,640 z" fill="none" stroke="black" stroke-width="10"/>
<path d="M-288,640 L-288,608 z" fill="none" stroke="black" stroke-width="10"/>
<path d="M-288,608 L-288,576 z" fill="none" stroke="black" stroke-width="10"/>
<path d="M-288,400 L-224,400 z" fill="none" stroke="black" stroke-width="10"/>
<path d="M-224,576 L-224,608 z" fill="none" stroke="black" stroke-width="10"/>
<path d="M-224,608 L-224,640 z" fill="none" stroke="black" stroke-width="10"/>
<path d="M-224,640 L-224,672 z" fill="none" stroke="black" stroke-width="10"/>
<path d="M-224,672 L-224,704 z" fill="none" stroke="black" stroke-width="10"/>
<path d="M-224,704 L-224,736 z" fill="none" stroke="black" stroke-width="10"/>
<path d="M-224,736 L-224,768 z" fill="none" stroke="black" stroke-width="10"/>
<path d="M-224,768 L-192,768 z" fill="none" stroke="black" stroke-width="10"/>
<path d="M-288,768 L-224,768 z" fill="none" stroke="black" stroke-width="10"/>
<path d="M-288,736 L-224,736 z" fill="none" stroke="black" stroke-width="10"/>
<path d="M-288,704 L-224,704 z" fill="none" stroke="black" stroke-width="10"/>
<path d="M-288,672 L-224,672 z" fill="none" stroke="black" stroke-width="10"/>
<path d="M-288,640 L-224,640 z" fill="none" stroke="black" stroke-width="10"/>
<path d="M-288,608 L-224,608 z" fill="none" stroke="black" stroke-width="10"/>
<path d="M-288,512 L-288,400 z" fill="none" stroke="black" stroke-width="10"/>
<path d="M-224,400 L-224,512 z" fill="none" stroke="black" stroke-width="10"/>
<path d="M-288,512 L-224,512 z" fill="none" stroke="black" stroke-width="10"/>
<path d="M128,1088 L128,720 z" fill="none" stroke="black" stroke-width="10"/>
<path d="M624,384 L624,496 z" fill="none" stroke="black" stroke-width="10"/>
<path d="M624,720 L624,768 z" fill="none" stroke="black" stroke-width="10"/>
<path d="M128,496 L624,496 z" fill="none" stroke="black" stroke-width="10"/>
<path d="M624,720 L128,720 z" fill="none" stroke="black" stroke-width="10"/>
<path d="M1184,-184 L1200,-160 z" fill="none" stroke="black" stroke-width="10"/>
<path d="M1200,-160 L1216,-128 z" fill="none" stroke="black" stroke-width="10"/>
<path d="M1152,-88 L1216,-128 z" fill="none" stroke="black" stroke-width="10"/>
<path d="M1200,-160 L1136,-120 z" fill="none" stroke="black" stroke-width="10"/>
<path d="M896,128 L896,-16 z" fill="none" stroke="black" stroke-width="10"/>
<path d="M896,-16 L888,-56 z" fill="none" stroke="black" stroke-width="10"/>
<path d="M888,-56 L888,-128 z" fill="none" stroke="black" stroke-width="10"/>
<path d="M952,-64 L888,-56 z" fill="none" stroke="black" stroke-width="10"/>
<path d="M896,-16 L960,-32 z" fill="none" stroke="black" stroke-width="10"/>
<path d="M888,-128 L1088,-184 z" fill="none" stroke="black" stroke-width="10"/>
<path d="M1088,-184 L1184,-184 z" fill="none" stroke="black" stroke-width="10"/>
<path d="M128,720 L128,632 z" fill="none" stroke="black" stroke-width="10"/>
<path d="M128,632 L320,632 z" fill="none" stroke="black" stroke-width="10"/>
<path d="M320,616 L320,600 z" fill="none" stroke="black" stroke-width="10"/>
<path d="M320,600 L320,584 z" fill="none" stroke="black" stroke-width="10"/>
<path d="M320,584 L312,584 z" fill="none" stroke="black" stroke-width="10"/>
<path d="M120,496 L128,496 z" fill="none" stroke="black" stroke-width="10"/>
<path d="M624,496 L632,496 z" fill="none" stroke="black" stroke-width="10"/>
<path d="M456,584 L448,584 z" fill="none" stroke="black" stroke-width="10"/>
<path d="M448,584 L448,600 z" fill="none" stroke="black" stroke-width="10"/>
<path d="M448,600 L448,616 z" fill="none" stroke="black" stroke-width="10"/>
<path d="M448,616 L448,624 z" fill="none" stroke="black" stroke-width="10"/>
<path d="M624,632 L624,720 z" fill="none" stroke="black" stroke-width="10"/>
<path d="M320,632 L448,632 z" fill="none" stroke="black" stroke-width="10"/>
<path d="M448,584 L320,584 z" fill="none" stroke="black" stroke-width="10"/>
<path d="M448,600 L320,600 z" fill="none" stroke="black" stroke-width="10"/>
<path d="M320,616 L448,616 z" fill="none" stroke="black" stroke-width="10"/>
<path d="M2000,1088 L2000,960 z" fill="none" stroke="black" stroke-width="10"/>
<path d="M2000,960 L2000,896 z" fill="none" stroke="black" stroke-width="10"/>
<path d="M2000,896 L2000,816 z" fill="none" stroke="black" stroke-width="10"/>
<path d="M2288,816 L2288,896 z" fill="none" stroke="black" stroke-width="10"/>
<path d="M2288,896 L2288,960 z" fill="none" stroke="black" stroke-width="10"/>
<path d="M2288,960 L2288,1088 z" fill="none" stroke="black" stroke-width="10"/>
<path d="M128,320 L184,424 z" fill="none" stroke="black" stroke-width="10"/>
<path d="M-128,-384 L-128,-480 z" fill="none" stroke="black" stroke-width="10"/>
<path d="M-128,-480 L-128,-576 z" fill="none" stroke="black" stroke-width="10"/>
<path d="M-64,-640 L32,-640 z" fill="none" stroke="black" stroke-width="10"/>
<path d="M32,-640 L128,-640 z" fill="none" stroke="black" stroke-width="10"/>
<path d="M32,-576 L32,-640 z" fill="none" stroke="black" stroke-width="10"/>
<path d="M-128,-480 L-64,-480 z" fill="none" stroke="black" stroke-width="10"/>
<path d="M-64,-480 L-32,-448 z" fill="none" stroke="black" stroke-width="10"/>
<path d="M-32,-448 L0,-512 z" fill="none" stroke="black" stroke-width="10"/>
<path d="M0,-512 L64,-544 z" fill="none" stroke="black" stroke-width="10"/>
<path d="M64,-544 L32,-576 z" fill="none" stroke="black" stroke-width="10"/>
<path d="M2288,896 L2000,896 z" fill="none" stroke="black" stroke-width="10"/>
<path d="M2000,960 L2288,960 z" fill="none" stroke="black" stroke-width="10"/>
<path d="M0,1280 L-32,1280 z" fill="none" stroke="black" stroke-width="10"/>
<path d="M-32,1280 L-32,1312 z" fill="none" stroke="black" stroke-width="10"/>
<path d="M-32,1312 L-160,1312 z" fill="none" stroke="black" stroke-width="10"/>
<path d="M-160,1312 L-160,1280 z" fill="none" stroke="black" stroke-width="10"/>
<path d="M-160,1280 L-192,1280 z" fill="none" stroke="black" stroke-width="10"/>
<path d="M-32,1280 L-160,1280 z" fill="none" stroke="black" stroke-width="10"/>
<path d="M2288,816 L2000,816 z" fill="none" stroke="black" stroke-width="10"/>
<path d="M1200,256 L1216,256 z" fill="none" stroke="black" stroke-width="10"/>
<path d="M1216,256 L1216,192 z" fill="none" stroke="black" stroke-width="10"/>
<path d="M1216,192 L1200,192 z" fill="none" stroke="black" stroke-width="10"/>
<path d="M1200,192 L1200,256 z" fill="none" stroke="black" stroke-width="10"/>
<path d="M1272,256 L1272,312 z" fill="none" stroke="black" stroke-width="10"/>
<path d="M1272,312 L1264,312 z" fill="none" stroke="black" stroke-width="10"/>
<path d="M1264,312 L1264,320 z" fill="none" stroke="black" stroke-width="10"/>
<path d="M1264,256 L1272,256 z" fill="none" stroke="black" stroke-width="10"/>
<path d="M1264,256 L1264,312 z" fill="none" stroke="black" stroke-width="10"/>
<path d="M128,720 L120,720 z" fill="none" stroke="black" stroke-width="10"/>
<path d="M120,720 L120,624 z" fill="none" stroke="black" stroke-width="10"/>
<path d="M120,624 L320,624 z" fill="none" stroke="black" stroke-width="10"/>
<path d="M320,624 L320,616 z" fill="none" stroke="black" stroke-width="10"/>
<path d="M448,632 L624,632 z" fill="none" stroke="black" stroke-width="10"/>
<path d="M448,624 L632,624 z" fill="none" stroke="black" stroke-width="10"/>
<path d="M632,624 L632,720 z" fill="none" stroke="black" stroke-width="10"/>
<path d="M632,720 L624,720 z" fill="none" stroke="black" stroke-width="10"/>
<path d="M312,584 L312,592 z" fill="none" stroke="black" stroke-width="10"/>
<path d="M312,592 L120,592 z" fill="none" stroke="black" stroke-width="10"/>
<path d="M120,592 L120,496 z" fill="none" stroke="black" stroke-width="10"/>
<path d="M312,584 L128,584 z" fill="none" stroke="black" stroke-width="10"/>
<path d="M128,584 L128,496 z" fill="none" stroke="black" stroke-width="10"/>
<path d="M624,496 L624,584 z" fill="none" stroke="black" stroke-width="10"/>
<path d="M624,584 L456,584 z" fill="none" stroke="black" stroke-width="10"/>
<path d="M456,592 L456,584 z" fill="none" stroke="black" stroke-width="10"/>
<path d="M632,592 L456,592 z" fill="none" stroke="black" stroke-width="10"/>
<path d="M632,496 L632,592 z" fill="none" stroke="black" stroke-width="10"/>
<path d="M320,632 L320,624 z" fill="none" stroke="black" stroke-width="10"/>
<path d="M448,624 L448,632 z" fill="none" stroke="black" stroke-width="10"/>
<path d="M-288,576 L-224,576 z" fill="none" stroke="black" stroke-width="10"/>
<path d="M-288,544 L-224,544 z" fill="none" stroke="black" stroke-width="10"/>
<path d="M-288,576 L-288,544 z" fill="none" stroke="black" stroke-width="10"/>
<path d="M-288,544 L-288,512 z" fill="none" stroke="black" stroke-width="10"/>
<path d="M-224,512 L-224,544 z" fill="none" stroke="black" stroke-width="10"/>
<path d="M-224,544 L-224,576 z" fill="none" stroke="black" stroke-width="10"/>
<path d="M2112,1088 L2048,1088 z" fill="none" stroke="black" stroke-width="10"/>
<path d="M2240,1088 L2176,1088 z" fill="none" stroke="black" stroke-width="10"/>
</svg>