<svg viewBox="0 -3400 10000 10000" xmlns="http://www.w3.org/2000/svg">
<path d="M-128,1024 L-128,960 z" fill="none" stroke="black" stroke-width="10"/>
<path d="M-128,960 L-256,832 z" fill="none" stroke="black" stroke-width="10"/>
<path d="M-256,832 L-320,832 z" fill="none" stroke="black" stroke-width="10"/>
<path d="M-320,832 L-320,768 z" fill="none" stroke="black" stroke-width="10"/>
<path d="M-320,768 L-256,768 z" fill="none" stroke="black" stroke-width="10"/>
<path d="M-256,768 L-128,640 z" fill="none" stroke="black" stroke-width="10"/>
<path d="M-128,640 L-128,576 z" fill="none" stroke="black" stroke-width="10"/>
<path d="M-128,576 L-64,576 z" fill="none" stroke="black" stroke-width="10"/>
<path d="M-64,576 L-64,640 z" fill="none" stroke="black" stroke-width="10"/>
<path d="M-64,640 L64,768 z" fill="none" stroke="black" stroke-width="10"/>
<path d="M64,768 L128,768 z" fill="none" stroke="black" stroke-width="10"/>
<path d="M128,768 L128,832 z" fill="none" stroke="black" stroke-width="10"/>
<path d="M128,832 L64,832 z" fill="none" stroke="black" stroke-width="10"/>
<path d="M64,832 L-64,960 z" fill="none" stroke="black" stroke-width="10"/>
<path d="M-64,960 L-64,1024 z" fill="none" stroke="black" stroke-width="10"/>
<path d="M-64,1024 L-128,1024 z" fill="none" stroke="black" stroke-width="10"/>
<path d="M-256,832 L-256,768 z" fill="none" stroke="black" stroke-width="10"/>
<path d="M-128,640 L-64,640 z" fill="none" stroke="black" stroke-width="10"/>
<path d="M64,768 L64,832 z" fill="none" stroke="black" stroke-width="10"/>
<path d="M-64,960 L-128,960 z" fill="none" stroke="black" stroke-width="10"/>
<path d="M-112,816 L-80,816 z" fill="none" stroke="black" stroke-width="10"/>
<path d="M-80,816 L-80,784 z" fill="none" stroke="black" stroke-width="10"/>
<path d="M-80,784 L-112,784 z" fill="none" stroke="black" stroke-width="10"/>
<path d="M-112,784 L-112,816 z" fill="none" stroke="black" stroke-width="10"/>
<path d="M48,832 L64,832 z" fill="none" stroke="black" stroke-width="10"/>
<path d="M32,832 L48,832 z" fill="none" stroke="black" stroke-width="10"/>
<path d="M16,832 L32,832 z" fill="none" stroke="black" stroke-width="10"/>
<path d="M16,768 L16,832 z" fill="none" stroke="black" stroke-width="10"/>
<path d="M32,768 L16,768 z" fill="none" stroke="black" stroke-width="10"/>
<path d="M48,768 L32,768 z" fill="none" stroke="black" stroke-width="10"/>
<path d="M64,768 L48,768 z" fill="none" stroke="black" stroke-width="10"/>
<path d="M32,768 L32,832 z" fill="none" stroke="black" stroke-width="10"/>
<path d="M-64,656 L-64,640 z" fill="none" stroke="black" stroke-width="10"/>
<path d="M-64,672 L-64,656 z" fill="none" stroke="black" stroke-width="10"/>
<path d="M-64,688 L-64,672 z" fill="none" stroke="black" stroke-width="10"/>
<path d="M-128,688 L-64,688 z" fill="none" stroke="black" stroke-width="10"/>
<path d="M-128,672 L-128,688 z" fill="none" stroke="black" stroke-width="10"/>
<path d="M-128,656 L-128,672 z" fill="none" stroke="black" stroke-width="10"/>
<path d="M-128,640 L-128,656 z" fill="none" stroke="black" stroke-width="10"/>
<path d="M-128,656 L-64,656 z" fill="none" stroke="black" stroke-width="10"/>
<path d="M-128,672 L-64,672 z" fill="none" stroke="black" stroke-width="10"/>
<path d="M-256,832 L-240,832 z" fill="none" stroke="black" stroke-width="10"/>
<path d="M-240,832 L-224,832 z" fill="none" stroke="black" stroke-width="10"/>
<path d="M-224,832 L-208,832 z" fill="none" stroke="black" stroke-width="10"/>
<path d="M-208,832 L-208,768 z" fill="none" stroke="black" stroke-width="10"/>
<path d="M-208,768 L-224,768 z" fill="none" stroke="black" stroke-width="10"/>
<path d="M-224,768 L-240,768 z" fill="none" stroke="black" stroke-width="10"/>
<path d="M-240,768 L-256,768 z" fill="none" stroke="black" stroke-width="10"/>
<path d="M-240,832 L-240,768 z" fill="none" stroke="black" stroke-width="10"/>
<path d="M-224,832 L-224,768 z" fill="none" stroke="black" stroke-width="10"/>
<path d="M-64,960 L-64,944 z" fill="none" stroke="black" stroke-width="10"/>
<path d="M-64,944 L-64,928 z" fill="none" stroke="black" stroke-width="10"/>
<path d="M-64,928 L-64,912 z" fill="none" stroke="black" stroke-width="10"/>
<path d="M-64,912 L-128,912 z" fill="none" stroke="black" stroke-width="10"/>
<path d="M-128,912 L-128,928 z" fill="none" stroke="black" stroke-width="10"/>
<path d="M-128,928 L-128,944 z" fill="none" stroke="black" stroke-width="10"/>
<path d="M-128,944 L-128,960 z" fill="none" stroke="black" stroke-width="10"/>
<path d="M-64,944 L-128,944 z" fill="none" stroke="black" stroke-width="10"/>
<path d="M-64,928 L-128,928 z" fill="none" stroke="black" stroke-width="10"/>
<path d="M48,768 L48,832 z" fill="none" stroke="black" stroke-width="10"/>
<path d="M-64,560 L-64,576 z" fill="none" stroke="black" stroke-width="10"/>
<path d="M80,512 L-64,560 z" fill="none" stroke="black" stroke-width="10"/>
<path d="M80,216 L80,512 z" fill="none" stroke="black" stroke-width="10"/>
<path d="M-272,512 L-272,216 z" fill="none" stroke="black" stroke-width="10"/>
<path d="M-128,560 L-272,512 z" fill="none" stroke="black" stroke-width="10"/>
<path d="M-128,576 L-128,560 z" fill="none" stroke="black" stroke-width="10"/>
<path d="M-64,560 L-128,560 z" fill="none" stroke="black" stroke-width="10"/>
<path d="M-320,832 L-336,832 z" fill="none" stroke="black" stroke-width="10"/>
<path d="M-336,832 L-384,976 z" fill="none" stroke="black" stroke-width="10"/>
<path d="M-384,976 L-680,976 z" fill="none" stroke="black" stroke-width="10"/>
<path d="M-680,624 L-384,624 z" fill="none" stroke="black" stroke-width="10"/>
<path d="M-384,624 L-336,768 z" fill="none" stroke="black" stroke-width="10"/>
<path d="M-336,768 L-320,768 z" fill="none" stroke="black" stroke-width="10"/>
<path d="M-336,768 L-336,832 z" fill="none" stroke="black" stroke-width="10"/>
<path d="M-64,1024 L-64,1040 z" fill="none" stroke="black" stroke-width="10"/>
<path d="M-64,1040 L80,1088 z" fill="none" stroke="black" stroke-width="10"/>
<path d="M80,1088 L80,1384 z" fill="none" stroke="black" stroke-width="10"/>
<path d="M-272,1384 L-272,1088 z" fill="none" stroke="black" stroke-width="10"/>
<path d="M-272,1088 L-128,1040 z" fill="none" stroke="black" stroke-width="10"/>
<path d="M-128,1040 L-128,1024 z" fill="none" stroke="black" stroke-width="10"/>
<path d="M-128,1040 L-64,1040 z" fill="none" stroke="black" stroke-width="10"/>
<path d="M144,832 L144,768 z" fill="none" stroke="black" stroke-width="10"/>
<path d="M144,832 L128,832 z" fill="none" stroke="black" stroke-width="10"/>
<path d="M128,768 L144,768 z" fill="none" stroke="black" stroke-width="10"/>
<path d="M144,768 L192,624 z" fill="none" stroke="black" stroke-width="10"/>
<path d="M192,624 L488,624 z" fill="none" stroke="black" stroke-width="10"/>
<path d="M488,976 L192,976 z" fill="none" stroke="black" stroke-width="10"/>
<path d="M192,976 L144,832 z" fill="none" stroke="black" stroke-width="10"/>
<path d="M512,752 L576,688 z" fill="none" stroke="black" stroke-width="10"/>
<path d="M576,688 L576,448 z" fill="none" stroke="black" stroke-width="10"/>
<path d="M576,448 L480,288 z" fill="none" stroke="black" stroke-width="10"/>
<path d="M480,288 L760,-48 z" fill="none" stroke="black" stroke-width="10"/>
<path d="M768,-64 L1024,-64 z" fill="none" stroke="black" stroke-width="10"/>
<path d="M1024,-64 L1024,-320 z" fill="none" stroke="black" stroke-width="10"/>
<path d="M1024,-320 L768,-320 z" fill="none" stroke="black" stroke-width="10"/>
<path d="M768,-320 L768,-64 z" fill="none" stroke="black" stroke-width="10"/>
<path d="M752,-56 L416,224 z" fill="none" stroke="black" stroke-width="10"/>
<path d="M416,224 L256,128 z" fill="none" stroke="black" stroke-width="10"/>
<path d="M256,128 L16,128 z" fill="none" stroke="black" stroke-width="10"/>
<path d="M16,128 L-48,192 z" fill="none" stroke="black" stroke-width="10"/>
<path d="M-48,1408 L16,1472 z" fill="none" stroke="black" stroke-width="10"/>
<path d="M16,1472 L264,1472 z" fill="none" stroke="black" stroke-width="10"/>
<path d="M264,1472 L416,1376 z" fill="none" stroke="black" stroke-width="10"/>
<path d="M416,1376 L752,1656 z" fill="none" stroke="black" stroke-width="10"/>
<path d="M768,1664 L768,1920 z" fill="none" stroke="black" stroke-width="10"/>
<path d="M768,1920 L1024,1920 z" fill="none" stroke="black" stroke-width="10"/>
<path d="M1024,1920 L1024,1664 z" fill="none" stroke="black" stroke-width="10"/>
<path d="M1024,1664 L768,1664 z" fill="none" stroke="black" stroke-width="10"/>
<path d="M760,1648 L480,1312 z" fill="none" stroke="black" stroke-width="10"/>
<path d="M480,1312 L576,1152 z" fill="none" stroke="black" stroke-width="10"/>
<path d="M576,1152 L576,912 z" fill="none" stroke="black" stroke-width="10"/>
<path d="M576,912 L512,848 z" fill="none" stroke="black" stroke-width="10"/>
<path d="M-704,848 L-768,912 z" fill="none" stroke="black" stroke-width="10"/>
<path d="M-768,912 L-768,1152 z" fill="none" stroke="black" stroke-width="10"/>
<path d="M-768,1152 L-672,1312 z" fill="none" stroke="black" stroke-width="10"/>
<path d="M-672,1312 L-952,1648 z" fill="none" stroke="black" stroke-width="10"/>
<path d="M-960,1664 L-1216,1664 z" fill="none" stroke="black" stroke-width="10"/>
<path d="M-1216,1664 L-1216,1920 z" fill="none" stroke="black" stroke-width="10"/>
<path d="M-1216,1920 L-960,1920 z" fill="none" stroke="black" stroke-width="10"/>
<path d="M-960,1920 L-960,1664 z" fill="none" stroke="black" stroke-width="10"/>
<path d="M-944,1656 L-608,1368 z" fill="none" stroke="black" stroke-width="10"/>
<path d="M-608,1368 L-448,1472 z" fill="none" stroke="black" stroke-width="10"/>
<path d="M-448,1472 L-208,1472 z" fill="none" stroke="black" stroke-width="10"/>
<path d="M-208,1472 L-144,1408 z" fill="none" stroke="black" stroke-width="10"/>
<path d="M-144,192 L-208,128 z" fill="none" stroke="black" stroke-width="10"/>
<path d="M-208,128 L-448,128 z" fill="none" stroke="black" stroke-width="10"/>
<path d="M-448,128 L-608,224 z" fill="none" stroke="black" stroke-width="10"/>
<path d="M-608,224 L-944,-56 z" fill="none" stroke="black" stroke-width="10"/>
<path d="M-960,-64 L-960,-320 z" fill="none" stroke="black" stroke-width="10"/>
<path d="M-960,-320 L-1216,-320 z" fill="none" stroke="black" stroke-width="10"/>
<path d="M-1216,-320 L-1216,-64 z" fill="none" stroke="black" stroke-width="10"/>
<path d="M-1216,-64 L-960,-64 z" fill="none" stroke="black" stroke-width="10"/>
<path d="M-952,-48 L-672,288 z" fill="none" stroke="black" stroke-width="10"/>
<path d="M-672,288 L-768,448 z" fill="none" stroke="black" stroke-width="10"/>
<path d="M-768,448 L-768,688 z" fill="none" stroke="black" stroke-width="10"/>
<path d="M-768,688 L-704,752 z" fill="none" stroke="black" stroke-width="10"/>
<path d="M-48,192 L-144,192 z" fill="none" stroke="black" stroke-width="10"/>
<path d="M-704,752 L-704,848 z" fill="none" stroke="black" stroke-width="10"/>
<path d="M-144,1408 L-48,1408 z" fill="none" stroke="black" stroke-width="10"/>
<path d="M512,848 L512,752 z" fill="none" stroke="black" stroke-width="10"/>
<path d="M-272,512 L80,512 z" fill="none" stroke="black" stroke-width="10"/>
<path d="M-384,976 L-384,624 z" fill="none" stroke="black" stroke-width="10"/>
<path d="M80,1088 L-272,1088 z" fill="none" stroke="black" stroke-width="10"/>
<path d="M192,624 L192,976 z" fill="none" stroke="black" stroke-width="10"/>
<path d="M1472,-768 L1472,2368 z" fill="none" stroke="black" stroke-width="10"/>
<path d="M-88,-1664 L1472,-768 z" fill="none" stroke="black" stroke-width="10"/>
<path d="M-1664,-760 L-88,-1664 z" fill="none" stroke="black" stroke-width="10"/>
<path d="M-1664,2368 L-1664,-760 z" fill="none" stroke="black" stroke-width="10"/>
<path d="M-88,3392 L-1664,2368 z" fill="none" stroke="black" stroke-width="10"/>
<path d="M1472,2368 L-88,3392 z" fill="none" stroke="black" stroke-width="10"/>
<path d="M512,2304 L384,2304 z" fill="none" stroke="black" stroke-width="10"/>
<path d="M512,2432 L512,2304 z" fill="none" stroke="black" stroke-width="10"/>
<path d="M384,2432 L512,2432 z" fill="none" stroke="black" stroke-width="10"/>
<path d="M384,2304 L384,2432 z" fill="none" stroke="black" stroke-width="10"/>
<path d="M-576,2304 L-704,2304 z" fill="none" stroke="black" stroke-width="10"/>
<path d="M-576,2432 L-576,2304 z" fill="none" stroke="black" stroke-width="10"/>
<path d="M-704,2432 L-576,2432 z" fill="none" stroke="black" stroke-width="10"/>
<path d="M-704,2304 L-704,2432 z" fill="none" stroke="black" stroke-width="10"/>
<path d="M1216,1152 L1088,1152 z" fill="none" stroke="black" stroke-width="10"/>
<path d="M1216,1280 L1216,1152 z" fill="none" stroke="black" stroke-width="10"/>
<path d="M1088,1280 L1216,1280 z" fill="none" stroke="black" stroke-width="10"/>
<path d="M1088,1152 L1088,1280 z" fill="none" stroke="black" stroke-width="10"/>
<path d="M1216,320 L1088,320 z" fill="none" stroke="black" stroke-width="10"/>
<path d="M1216,448 L1216,320 z" fill="none" stroke="black" stroke-width="10"/>
<path d="M1088,448 L1216,448 z" fill="none" stroke="black" stroke-width="10"/>
<path d="M1088,320 L1088,448 z" fill="none" stroke="black" stroke-width="10"/>
<path d="M-1280,1152 L-1408,1152 z" fill="none" stroke="black" stroke-width="10"/>
<path d="M-1280,1280 L-1280,1152 z" fill="none" stroke="black" stroke-width="10"/>
<path d="M-1408,1280 L-1280,1280 z" fill="none" stroke="black" stroke-width="10"/>
<path d="M-1408,1152 L-1408,1280 z" fill="none" stroke="black" stroke-width="10"/>
<path d="M-1280,320 L-1408,320 z" fill="none" stroke="black" stroke-width="10"/>
<path d="M-1280,448 L-1280,320 z" fill="none" stroke="black" stroke-width="10"/>
<path d="M-1408,448 L-1280,448 z" fill="none" stroke="black" stroke-width="10"/>
<path d="M-1408,320 L-1408,448 z" fill="none" stroke="black" stroke-width="10"/>
<path d="M-512,-704 L-640,-704 z" fill="none" stroke="black" stroke-width="10"/>
<path d="M-512,-576 L-512,-704 z" fill="none" stroke="black" stroke-width="10"/>
<path d="M-640,-576 L-512,-576 z" fill="none" stroke="black" stroke-width="10"/>
<path d="M-640,-704 L-640,-576 z" fill="none" stroke="black" stroke-width="10"/>
<path d="M448,-704 L320,-704 z" fill="none" stroke="black" stroke-width="10"/>
<path d="M448,-576 L448,-704 z" fill="none" stroke="black" stroke-width="10"/>
<path d="M320,-576 L448,-576 z" fill="none" stroke="black" stroke-width="10"/>
<path d="M320,-704 L320,-576 z" fill="none" stroke="black" stroke-width="10"/>
<path d="M-160,1856 L-32,1856 z" fill="none" stroke="black" stroke-width="10"/>
<path d="M-32,1856 L-32,1728 z" fill="none" stroke="black" stroke-width="10"/>
<path d="M-32,1728 L-160,1728 z" fill="none" stroke="black" stroke-width="10"/>
<path d="M-160,1728 L-160,1856 z" fill="none" stroke="black" stroke-width="10"/>
<path d="M-1152,864 L-1024,864 z" fill="none" stroke="black" stroke-width="10"/>
<path d="M-1024,864 L-1024,736 z" fill="none" stroke="black" stroke-width="10"/>
<path d="M-1024,736 L-1152,736 z" fill="none" stroke="black" stroke-width="10"/>
<path d="M-1152,736 L-1152,864 z" fill="none" stroke="black" stroke-width="10"/>
<path d="M832,864 L960,864 z" fill="none" stroke="black" stroke-width="10"/>
<path d="M960,864 L960,736 z" fill="none" stroke="black" stroke-width="10"/>
<path d="M960,736 L832,736 z" fill="none" stroke="black" stroke-width="10"/>
<path d="M832,736 L832,864 z" fill="none" stroke="black" stroke-width="10"/>
<path d="M-160,-128 L-32,-128 z" fill="none" stroke="black" stroke-width="10"/>
<path d="M-32,-128 L-32,-256 z" fill="none" stroke="black" stroke-width="10"/>
<path d="M-32,-256 L-160,-256 z" fill="none" stroke="black" stroke-width="10"/>
<path d="M-160,-256 L-160,-128 z" fill="none" stroke="black" stroke-width="10"/>
<path d="M752,1656 L760,1648 z" fill="none" stroke="black" stroke-width="10"/>
<path d="M760,-48 L752,-56 z" fill="none" stroke="black" stroke-width="10"/>
<path d="M-944,-56 L-952,-48 z" fill="none" stroke="black" stroke-width="10"/>
<path d="M-952,1648 L-944,1656 z" fill="none" stroke="black" stroke-width="10"/>
<path d="M-272,216 L-144,216 z" fill="none" stroke="black" stroke-width="10"/>
<path d="M-144,216 L-144,192 z" fill="none" stroke="black" stroke-width="10"/>
<path d="M-48,192 L-48,216 z" fill="none" stroke="black" stroke-width="10"/>
<path d="M-48,216 L80,216 z" fill="none" stroke="black" stroke-width="10"/>
<path d="M80,1384 L-48,1384 z" fill="none" stroke="black" stroke-width="10"/>
<path d="M-48,1384 L-48,1408 z" fill="none" stroke="black" stroke-width="10"/>
<path d="M-144,1408 L-144,1384 z" fill="none" stroke="black" stroke-width="10"/>
<path d="M-144,1384 L-272,1384 z" fill="none" stroke="black" stroke-width="10"/>
<path d="M512,848 L488,848 z" fill="none" stroke="black" stroke-width="10"/>
<path d="M488,848 L488,976 z" fill="none" stroke="black" stroke-width="10"/>
<path d="M488,752 L512,752 z" fill="none" stroke="black" stroke-width="10"/>
<path d="M488,624 L488,752 z" fill="none" stroke="black" stroke-width="10"/>
<path d="M-680,848 L-704,848 z" fill="none" stroke="black" stroke-width="10"/>
<path d="M-680,976 L-680,848 z" fill="none" stroke="black" stroke-width="10"/>
<path d="M-704,752 L-680,752 z" fill="none" stroke="black" stroke-width="10"/>
<path d="M-680,752 L-680,624 z" fill="none" stroke="black" stroke-width="10"/>
</svg>