<svg viewBox="0 -3400 10000 10000" xmlns="http://www.w3.org/2000/svg">
<path d="M576,448 L512,448 z" fill="none" stroke="black" stroke-width="10"/>
<path d="M512,448 L384,576 z" fill="none" stroke="black" stroke-width="10"/>
<path d="M384,576 L448,640 z" fill="none" stroke="black" stroke-width="10"/>
<path d="M448,640 L640,640 z" fill="none" stroke="black" stroke-width="10"/>
<path d="M640,640 L704,832 z" fill="none" stroke="black" stroke-width="10"/>
<path d="M704,832 L512,1024 z" fill="none" stroke="black" stroke-width="10"/>
<path d="M512,1024 L320,960 z" fill="none" stroke="black" stroke-width="10"/>
<path d="M320,960 L320,768 z" fill="none" stroke="black" stroke-width="10"/>
<path d="M320,768 L256,704 z" fill="none" stroke="black" stroke-width="10"/>
<path d="M256,704 L128,768 z" fill="none" stroke="black" stroke-width="10"/>
<path d="M128,768 L128,832 z" fill="none" stroke="black" stroke-width="10"/>
<path d="M128,832 L256,960 z" fill="none" stroke="black" stroke-width="10"/>
<path d="M256,960 L256,1152 z" fill="none" stroke="black" stroke-width="10"/>
<path d="M256,1152 L64,1344 z" fill="none" stroke="black" stroke-width="10"/>
<path d="M64,1344 L-128,1152 z" fill="none" stroke="black" stroke-width="10"/>
<path d="M-128,1152 L-128,960 z" fill="none" stroke="black" stroke-width="10"/>
<path d="M-128,960 L0,832 z" fill="none" stroke="black" stroke-width="10"/>
<path d="M0,832 L0,768 z" fill="none" stroke="black" stroke-width="10"/>
<path d="M0,768 L-128,704 z" fill="none" stroke="black" stroke-width="10"/>
<path d="M-128,704 L-192,768 z" fill="none" stroke="black" stroke-width="10"/>
<path d="M-192,768 L-192,960 z" fill="none" stroke="black" stroke-width="10"/>
<path d="M-192,960 L-384,1024 z" fill="none" stroke="black" stroke-width="10"/>
<path d="M-384,1024 L-576,832 z" fill="none" stroke="black" stroke-width="10"/>
<path d="M-576,832 L-512,640 z" fill="none" stroke="black" stroke-width="10"/>
<path d="M-512,640 L-320,640 z" fill="none" stroke="black" stroke-width="10"/>
<path d="M-320,640 L-256,576 z" fill="none" stroke="black" stroke-width="10"/>
<path d="M-256,576 L-320,448 z" fill="none" stroke="black" stroke-width="10"/>
<path d="M-320,448 L-384,448 z" fill="none" stroke="black" stroke-width="10"/>
<path d="M-384,448 L-512,576 z" fill="none" stroke="black" stroke-width="10"/>
<path d="M-512,576 L-704,576 z" fill="none" stroke="black" stroke-width="10"/>
<path d="M-704,576 L-896,384 z" fill="none" stroke="black" stroke-width="10"/>
<path d="M-896,384 L-704,192 z" fill="none" stroke="black" stroke-width="10"/>
<path d="M-704,192 L-512,192 z" fill="none" stroke="black" stroke-width="10"/>
<path d="M-512,192 L-384,320 z" fill="none" stroke="black" stroke-width="10"/>
<path d="M-384,320 L-320,320 z" fill="none" stroke="black" stroke-width="10"/>
<path d="M-320,320 L-256,192 z" fill="none" stroke="black" stroke-width="10"/>
<path d="M-256,192 L-320,128 z" fill="none" stroke="black" stroke-width="10"/>
<path d="M-320,128 L-512,128 z" fill="none" stroke="black" stroke-width="10"/>
<path d="M-512,128 L-576,-64 z" fill="none" stroke="black" stroke-width="10"/>
<path d="M-576,-64 L-384,-256 z" fill="none" stroke="black" stroke-width="10"/>
<path d="M-384,-256 L-192,-192 z" fill="none" stroke="black" stroke-width="10"/>
<path d="M-192,-192 L-192,0 z" fill="none" stroke="black" stroke-width="10"/>
<path d="M-192,0 L-128,64 z" fill="none" stroke="black" stroke-width="10"/>
<path d="M-128,64 L0,0 z" fill="none" stroke="black" stroke-width="10"/>
<path d="M0,0 L0,-64 z" fill="none" stroke="black" stroke-width="10"/>
<path d="M0,-64 L-128,-192 z" fill="none" stroke="black" stroke-width="10"/>
<path d="M-128,-192 L-128,-384 z" fill="none" stroke="black" stroke-width="10"/>
<path d="M-128,-384 L64,-576 z" fill="none" stroke="black" stroke-width="10"/>
<path d="M64,-576 L256,-384 z" fill="none" stroke="black" stroke-width="10"/>
<path d="M256,-384 L256,-192 z" fill="none" stroke="black" stroke-width="10"/>
<path d="M256,-192 L128,-64 z" fill="none" stroke="black" stroke-width="10"/>
<path d="M128,-64 L128,0 z" fill="none" stroke="black" stroke-width="10"/>
<path d="M128,0 L256,64 z" fill="none" stroke="black" stroke-width="10"/>
<path d="M256,64 L320,0 z" fill="none" stroke="black" stroke-width="10"/>
<path d="M320,0 L320,-192 z" fill="none" stroke="black" stroke-width="10"/>
<path d="M320,-192 L512,-256 z" fill="none" stroke="black" stroke-width="10"/>
<path d="M512,-256 L704,-64 z" fill="none" stroke="black" stroke-width="10"/>
<path d="M704,-64 L640,128 z" fill="none" stroke="black" stroke-width="10"/>
<path d="M640,128 L448,128 z" fill="none" stroke="black" stroke-width="10"/>
<path d="M448,128 L384,192 z" fill="none" stroke="black" stroke-width="10"/>
<path d="M384,192 L512,320 z" fill="none" stroke="black" stroke-width="10"/>
<path d="M512,320 L576,320 z" fill="none" stroke="black" stroke-width="10"/>
<path d="M576,320 L640,192 z" fill="none" stroke="black" stroke-width="10"/>
<path d="M640,192 L768,192 z" fill="none" stroke="black" stroke-width="10"/>
<path d="M768,192 L832,320 z" fill="none" stroke="black" stroke-width="10"/>
<path d="M832,448 L768,576 z" fill="none" stroke="black" stroke-width="10"/>
<path d="M768,576 L640,576 z" fill="none" stroke="black" stroke-width="10"/>
<path d="M640,576 L576,448 z" fill="none" stroke="black" stroke-width="10"/>
<path d="M832,320 L856,320 z" fill="none" stroke="black" stroke-width="10"/>
<path d="M856,320 L872,320 z" fill="none" stroke="black" stroke-width="10"/>
<path d="M872,320 L896,320 z" fill="none" stroke="black" stroke-width="10"/>
<path d="M896,320 L896,128 z" fill="none" stroke="black" stroke-width="10"/>
<path d="M896,128 L1408,128 z" fill="none" stroke="black" stroke-width="10"/>
<path d="M1408,128 L1408,-384 z" fill="none" stroke="black" stroke-width="10"/>
<path d="M1696,-384 L1920,-384 z" fill="none" stroke="black" stroke-width="10"/>
<path d="M1920,-384 L1920,128 z" fill="none" stroke="black" stroke-width="10"/>
<path d="M1920,128 L2432,128 z" fill="none" stroke="black" stroke-width="10"/>
<path d="M2432,640 L1920,640 z" fill="none" stroke="black" stroke-width="10"/>
<path d="M1920,640 L1920,1152 z" fill="none" stroke="black" stroke-width="10"/>
<path d="M1920,1152 L1696,1152 z" fill="none" stroke="black" stroke-width="10"/>
<path d="M1408,1152 L1408,640 z" fill="none" stroke="black" stroke-width="10"/>
<path d="M1408,640 L896,640 z" fill="none" stroke="black" stroke-width="10"/>
<path d="M896,640 L896,448 z" fill="none" stroke="black" stroke-width="10"/>
<path d="M896,448 L872,448 z" fill="none" stroke="black" stroke-width="10"/>
<path d="M872,448 L856,448 z" fill="none" stroke="black" stroke-width="10"/>
<path d="M856,448 L832,448 z" fill="none" stroke="black" stroke-width="10"/>
<path d="M856,320 L856,448 z" fill="none" stroke="black" stroke-width="10"/>
<path d="M872,448 L872,320 z" fill="none" stroke="black" stroke-width="10"/>
<path d="M1728,448 L1600,448 z" fill="none" stroke="black" stroke-width="10"/>
<path d="M1728,320 L1728,448 z" fill="none" stroke="black" stroke-width="10"/>
<path d="M1600,320 L1728,320 z" fill="none" stroke="black" stroke-width="10"/>
<path d="M1600,448 L1600,320 z" fill="none" stroke="black" stroke-width="10"/>
<path d="M2432,128 L2432,256 z" fill="none" stroke="black" stroke-width="10"/>
<path d="M2432,256 L2432,320 z" fill="none" stroke="black" stroke-width="10"/>
<path d="M2432,448 L2432,512 z" fill="none" stroke="black" stroke-width="10"/>
<path d="M2432,512 L2432,640 z" fill="none" stroke="black" stroke-width="10"/>
<path d="M2432,320 L2448,320 z" fill="none" stroke="black" stroke-width="10"/>
<path d="M2448,320 L2496,320 z" fill="none" stroke="black" stroke-width="10"/>
<path d="M2448,448 L2432,448 z" fill="none" stroke="black" stroke-width="10"/>
<path d="M2448,464 L2448,448 z" fill="none" stroke="black" stroke-width="10"/>
<path d="M2496,464 L2448,464 z" fill="none" stroke="black" stroke-width="10"/>
<path d="M2432,320 L2432,448 z" fill="none" stroke="black" stroke-width="10"/>
<path d="M2448,448 L2448,320 z" fill="none" stroke="black" stroke-width="10"/>
<path d="M2496,320 L2544,320 z" fill="none" stroke="black" stroke-width="10"/>
<path d="M2544,320 L2560,320 z" fill="none" stroke="black" stroke-width="10"/>
<path d="M2496,448 L2496,464 z" fill="none" stroke="black" stroke-width="10"/>
<path d="M1408,-384 L1632,-384 z" fill="none" stroke="black" stroke-width="10"/>
<path d="M1632,-384 L1632,-448 z" fill="none" stroke="black" stroke-width="10"/>
<path d="M1632,-448 L1696,-448 z" fill="none" stroke="black" stroke-width="10"/>
<path d="M1696,-448 L1696,-384 z" fill="none" stroke="black" stroke-width="10"/>
<path d="M1632,-384 L1696,-384 z" fill="none" stroke="black" stroke-width="10"/>
<path d="M1632,1152 L1408,1152 z" fill="none" stroke="black" stroke-width="10"/>
<path d="M1632,1216 L1632,1152 z" fill="none" stroke="black" stroke-width="10"/>
<path d="M1696,1216 L1632,1216 z" fill="none" stroke="black" stroke-width="10"/>
<path d="M1696,1152 L1696,1216 z" fill="none" stroke="black" stroke-width="10"/>
<path d="M1696,1152 L1632,1152 z" fill="none" stroke="black" stroke-width="10"/>
<path d="M2496,320 L2496,312 z" fill="none" stroke="black" stroke-width="10"/>
<path d="M2544,312 L2544,320 z" fill="none" stroke="black" stroke-width="10"/>
<path d="M2496,464 L2496,472 z" fill="none" stroke="black" stroke-width="10"/>
<path d="M2448,472 L2448,464 z" fill="none" stroke="black" stroke-width="10"/>
<path d="M2448,472 L2496,472 z" fill="none" stroke="black" stroke-width="10"/>
<path d="M2496,312 L2544,312 z" fill="none" stroke="black" stroke-width="10"/>
<path d="M2496,472 L2496,480 z" fill="none" stroke="black" stroke-width="10"/>
<path d="M2496,480 L2448,480 z" fill="none" stroke="black" stroke-width="10"/>
<path d="M2448,480 L2448,472 z" fill="none" stroke="black" stroke-width="10"/>
<path d="M2560,320 L2560,304 z" fill="none" stroke="black" stroke-width="10"/>
<path d="M2560,304 L2560,256 z" fill="none" stroke="black" stroke-width="10"/>
<path d="M2560,192 L2624,192 z" fill="none" stroke="black" stroke-width="10"/>
<path d="M2624,256 L2624,304 z" fill="none" stroke="black" stroke-width="10"/>
<path d="M2624,304 L2624,320 z" fill="none" stroke="black" stroke-width="10"/>
<path d="M2624,448 L2496,448 z" fill="none" stroke="black" stroke-width="10"/>
<path d="M2640,448 L2624,448 z" fill="none" stroke="black" stroke-width="10"/>
<path d="M2640,400 L2640,448 z" fill="none" stroke="black" stroke-width="10"/>
<path d="M2624,400 L2640,400 z" fill="none" stroke="black" stroke-width="10"/>
<path d="M2624,320 L2624,400 z" fill="none" stroke="black" stroke-width="10"/>
<path d="M2624,192 L2624,256 z" fill="none" stroke="black" stroke-width="10"/>
<path d="M2560,256 L2560,192 z" fill="none" stroke="black" stroke-width="10"/>
<path d="M2560,304 L2624,304 z" fill="none" stroke="black" stroke-width="10"/>
<path d="M2640,400 L2648,400 z" fill="none" stroke="black" stroke-width="10"/>
<path d="M2648,400 L2656,400 z" fill="none" stroke="black" stroke-width="10"/>
<path d="M2656,400 L2656,448 z" fill="none" stroke="black" stroke-width="10"/>
<path d="M2656,448 L2648,448 z" fill="none" stroke="black" stroke-width="10"/>
<path d="M2648,448 L2640,448 z" fill="none" stroke="black" stroke-width="10"/>
<path d="M2648,448 L2648,400 z" fill="none" stroke="black" stroke-width="10"/>
<path d="M2560,256 L2624,256 z" fill="none" stroke="black" stroke-width="10"/>
<path d="M1728,512 L1024,512 z" fill="none" stroke="black" stroke-width="10"/>
<path d="M2304,320 L1792,320 z" fill="none" stroke="black" stroke-width="10"/>
<path d="M2304,256 L2304,320 z" fill="none" stroke="black" stroke-width="10"/>
<path d="M1600,256 L2304,256 z" fill="none" stroke="black" stroke-width="10"/>
<path d="M1728,1024 L1728,512 z" fill="none" stroke="black" stroke-width="10"/>
<path d="M1792,1024 L1728,1024 z" fill="none" stroke="black" stroke-width="10"/>
<path d="M1792,320 L1792,1024 z" fill="none" stroke="black" stroke-width="10"/>
<path d="M1536,448 L1536,-256 z" fill="none" stroke="black" stroke-width="10"/>
<path d="M1536,-256 L1600,-256 z" fill="none" stroke="black" stroke-width="10"/>
<path d="M1600,-256 L1600,256 z" fill="none" stroke="black" stroke-width="10"/>
<path d="M1024,512 L1024,448 z" fill="none" stroke="black" stroke-width="10"/>
<path d="M1024,448 L1536,448 z" fill="none" stroke="black" stroke-width="10"/>
<path d="M2496,312 L2496,256 z" fill="none" stroke="black" stroke-width="10"/>
<path d="M2496,256 L2544,256 z" fill="none" stroke="black" stroke-width="10"/>
<path d="M2544,256 L2544,312 z" fill="none" stroke="black" stroke-width="10"/>
<path d="M2656,400 L2688,400 z" fill="none" stroke="black" stroke-width="10"/>
<path d="M2688,400 L2688,448 z" fill="none" stroke="black" stroke-width="10"/>
<path d="M2688,448 L2656,448 z" fill="none" stroke="black" stroke-width="10"/>
<path d="M2448,512 L2448,480 z" fill="none" stroke="black" stroke-width="10"/>
<path d="M2496,512 L2448,512 z" fill="none" stroke="black" stroke-width="10"/>
<path d="M2496,480 L2496,512 z" fill="none" stroke="black" stroke-width="10"/>
</svg>