<svg viewBox="0 -3400 10000 10000" xmlns="http://www.w3.org/2000/svg">
<path d="M448,1984 L-64,1984 z" fill="none" stroke="black" stroke-width="10"/>
<path d="M-64,1984 L-768,1280 z" fill="none" stroke="black" stroke-width="10"/>
<path d="M-768,1280 L-768,448 z" fill="none" stroke="black" stroke-width="10"/>
<path d="M-768,448 L32,448 z" fill="none" stroke="black" stroke-width="10"/>
<path d="M1152,448 L1152,1280 z" fill="none" stroke="black" stroke-width="10"/>
<path d="M1152,1280 L448,1984 z" fill="none" stroke="black" stroke-width="10"/>
<path d="M352,448 L1152,448 z" fill="none" stroke="black" stroke-width="10"/>
<path d="M32,448 L96,448 z" fill="none" stroke="black" stroke-width="10"/>
<path d="M128,448 L256,448 z" fill="none" stroke="black" stroke-width="10"/>
<path d="M288,448 L352,448 z" fill="none" stroke="black" stroke-width="10"/>
<path d="M32,448 L32,456 z" fill="none" stroke="black" stroke-width="10"/>
<path d="M32,456 L96,456 z" fill="none" stroke="black" stroke-width="10"/>
<path d="M96,456 L96,448 z" fill="none" stroke="black" stroke-width="10"/>
<path d="M288,448 L288,456 z" fill="none" stroke="black" stroke-width="10"/>
<path d="M288,456 L352,456 z" fill="none" stroke="black" stroke-width="10"/>
<path d="M352,456 L352,448 z" fill="none" stroke="black" stroke-width="10"/>
<path d="M96,456 L288,456 z" fill="none" stroke="black" stroke-width="10"/>
<path d="M128,448 L128,432 z" fill="none" stroke="black" stroke-width="10"/>
<path d="M256,432 L256,448 z" fill="none" stroke="black" stroke-width="10"/>
<path d="M128,432 L128,416 z" fill="none" stroke="black" stroke-width="10"/>
<path d="M128,416 L128,128 z" fill="none" stroke="black" stroke-width="10"/>
<path d="M256,192 L256,416 z" fill="none" stroke="black" stroke-width="10"/>
<path d="M256,416 L256,432 z" fill="none" stroke="black" stroke-width="10"/>
<path d="M128,432 L256,432 z" fill="none" stroke="black" stroke-width="10"/>
<path d="M256,416 L128,416 z" fill="none" stroke="black" stroke-width="10"/>
<path d="M192,-64 L256,64 z" fill="none" stroke="black" stroke-width="10"/>
<path d="M96,448 L128,448 z" fill="none" stroke="black" stroke-width="10"/>
<path d="M256,448 L288,448 z" fill="none" stroke="black" stroke-width="10"/>
<path d="M0,-192 L128,-128 z" fill="none" stroke="black" stroke-width="10"/>
<path d="M128,-128 L192,-64 z" fill="none" stroke="black" stroke-width="10"/>
<path d="M128,128 L96,64 z" fill="none" stroke="black" stroke-width="10"/>
<path d="M96,64 L0,-32 z" fill="none" stroke="black" stroke-width="10"/>
<path d="M0,-32 L-64,-64 z" fill="none" stroke="black" stroke-width="10"/>
<path d="M-64,-64 L-128,-64 z" fill="none" stroke="black" stroke-width="10"/>
<path d="M-128,-192 L-64,-192 z" fill="none" stroke="black" stroke-width="10"/>
<path d="M-704,-576 L-496,-576 z" fill="none" stroke="black" stroke-width="10"/>
<path d="M-496,-576 L-288,-504 z" fill="none" stroke="black" stroke-width="10"/>
<path d="M-288,-504 L-160,-384 z" fill="none" stroke="black" stroke-width="10"/>
<path d="M-160,-384 L-128,-256 z" fill="none" stroke="black" stroke-width="10"/>
<path d="M-128,-256 L-128,-192 z" fill="none" stroke="black" stroke-width="10"/>
<path d="M-896,-64 L-960,-320 z" fill="none" stroke="black" stroke-width="10"/>
<path d="M-768,96 L-896,-64 z" fill="none" stroke="black" stroke-width="10"/>
<path d="M-896,-560 L-832,-576 z" fill="none" stroke="black" stroke-width="10"/>
<path d="M-1088,-384 L-896,-560 z" fill="none" stroke="black" stroke-width="10"/>
<path d="M-592,160 L-768,96 z" fill="none" stroke="black" stroke-width="10"/>
<path d="M-392,152 L-592,160 z" fill="none" stroke="black" stroke-width="10"/>
<path d="M-192,96 L-392,152 z" fill="none" stroke="black" stroke-width="10"/>
<path d="M-128,0 L-192,96 z" fill="none" stroke="black" stroke-width="10"/>
<path d="M-128,-64 L-128,0 z" fill="none" stroke="black" stroke-width="10"/>
<path d="M-832,-448 L-704,-448 z" fill="none" stroke="black" stroke-width="10"/>
<path d="M-752,-288 L-648,-360 z" fill="none" stroke="black" stroke-width="10"/>
<path d="M-680,-200 L-568,-280 z" fill="none" stroke="black" stroke-width="10"/>
<path d="M-504,-112 L-448,-216 z" fill="none" stroke="black" stroke-width="10"/>
<path d="M-352,-64 L-352,-192 z" fill="none" stroke="black" stroke-width="10"/>
<path d="M-128,-256 L-248,-192 z" fill="none" stroke="black" stroke-width="10"/>
<path d="M-256,-64 L-192,96 z" fill="none" stroke="black" stroke-width="10"/>
<path d="M-248,-192 L-352,-192 z" fill="none" stroke="black" stroke-width="10"/>
<path d="M-352,-64 L-256,-64 z" fill="none" stroke="black" stroke-width="10"/>
<path d="M-352,-192 L-448,-216 z" fill="none" stroke="black" stroke-width="10"/>
<path d="M-504,-112 L-352,-64 z" fill="none" stroke="black" stroke-width="10"/>
<path d="M-752,-288 L-680,-200 z" fill="none" stroke="black" stroke-width="10"/>
<path d="M-568,-280 L-648,-360 z" fill="none" stroke="black" stroke-width="10"/>
<path d="M-648,-360 L-704,-448 z" fill="none" stroke="black" stroke-width="10"/>
<path d="M-832,-448 L-752,-288 z" fill="none" stroke="black" stroke-width="10"/>
<path d="M-704,-448 L-704,-576 z" fill="none" stroke="black" stroke-width="10"/>
<path d="M-832,-576 L-832,-448 z" fill="none" stroke="black" stroke-width="10"/>
<path d="M-832,-576 L-704,-576 z" fill="none" stroke="black" stroke-width="10"/>
<path d="M-832,-576 L-832,-640 z" fill="none" stroke="black" stroke-width="10"/>
<path d="M-832,-640 L-896,-704 z" fill="none" stroke="black" stroke-width="10"/>
<path d="M-832,-1152 L-960,-1216 z" fill="none" stroke="black" stroke-width="10"/>
<path d="M-960,-1216 L-1088,-1376 z" fill="none" stroke="black" stroke-width="10"/>
<path d="M-1088,-1376 L-1088,-1592 z" fill="none" stroke="black" stroke-width="10"/>
<path d="M-1088,-1592 L-960,-1720 z" fill="none" stroke="black" stroke-width="10"/>
<path d="M-960,-1720 L-832,-1720 z" fill="none" stroke="black" stroke-width="10"/>
<path d="M-832,-1720 L-832,-1744 z" fill="none" stroke="black" stroke-width="10"/>
<path d="M-832,-1744 L-832,-1760 z" fill="none" stroke="black" stroke-width="10"/>
<path d="M-832,-1760 L-832,-1792 z" fill="none" stroke="black" stroke-width="10"/>
<path d="M-704,-1856 L-768,-1792 z" fill="none" stroke="black" stroke-width="10"/>
<path d="M-768,-1792 L-768,-1760 z" fill="none" stroke="black" stroke-width="10"/>
<path d="M-768,-1760 L-768,-1744 z" fill="none" stroke="black" stroke-width="10"/>
<path d="M-768,-1744 L-768,-1720 z" fill="none" stroke="black" stroke-width="10"/>
<path d="M-768,-1720 L-632,-1720 z" fill="none" stroke="black" stroke-width="10"/>
<path d="M-632,-1720 L-512,-1592 z" fill="none" stroke="black" stroke-width="10"/>
<path d="M-512,-1592 L-512,-1376 z" fill="none" stroke="black" stroke-width="10"/>
<path d="M-512,-1376 L-640,-1216 z" fill="none" stroke="black" stroke-width="10"/>
<path d="M-640,-1216 L-768,-1152 z" fill="none" stroke="black" stroke-width="10"/>
<path d="M-608,-736 L-704,-640 z" fill="none" stroke="black" stroke-width="10"/>
<path d="M-704,-640 L-704,-576 z" fill="none" stroke="black" stroke-width="10"/>
<path d="M256,64 L320,64 z" fill="none" stroke="black" stroke-width="10"/>
<path d="M320,64 L384,0 z" fill="none" stroke="black" stroke-width="10"/>
<path d="M384,0 L384,-64 z" fill="none" stroke="black" stroke-width="10"/>
<path d="M384,-64 L512,-64 z" fill="none" stroke="black" stroke-width="10"/>
<path d="M512,-64 L512,32 z" fill="none" stroke="black" stroke-width="10"/>
<path d="M512,32 L384,192 z" fill="none" stroke="black" stroke-width="10"/>
<path d="M384,192 L320,192 z" fill="none" stroke="black" stroke-width="10"/>
<path d="M384,-64 L384,-96 z" fill="none" stroke="black" stroke-width="10"/>
<path d="M344,-96 L320,-176 z" fill="none" stroke="black" stroke-width="10"/>
<path d="M288,-232 L24,-488 z" fill="none" stroke="black" stroke-width="10"/>
<path d="M24,-488 L200,-832 z" fill="none" stroke="black" stroke-width="10"/>
<path d="M200,-832 L704,-832 z" fill="none" stroke="black" stroke-width="10"/>
<path d="M704,-832 L832,-576 z" fill="none" stroke="black" stroke-width="10"/>
<path d="M832,-576 L832,-512 z" fill="none" stroke="black" stroke-width="10"/>
<path d="M832,-512 L832,-448 z" fill="none" stroke="black" stroke-width="10"/>
<path d="M832,-448 L320,-176 z" fill="none" stroke="black" stroke-width="10"/>
<path d="M512,-96 L512,-64 z" fill="none" stroke="black" stroke-width="10"/>
<path d="M576,-96 L512,-96 z" fill="none" stroke="black" stroke-width="10"/>
<path d="M832,-288 L592,-96 z" fill="none" stroke="black" stroke-width="10"/>
<path d="M832,-512 L768,-512 z" fill="none" stroke="black" stroke-width="10"/>
<path d="M768,-512 L288,-232 z" fill="none" stroke="black" stroke-width="10"/>
<path d="M512,-96 L384,-96 z" fill="none" stroke="black" stroke-width="10"/>
<path d="M832,-448 L832,-288 z" fill="none" stroke="black" stroke-width="10"/>
<path d="M-248,-192 L-256,-64 z" fill="none" stroke="black" stroke-width="10"/>
<path d="M832,-512 L856,-512 z" fill="none" stroke="black" stroke-width="10"/>
<path d="M856,-512 L856,-448 z" fill="none" stroke="black" stroke-width="10"/>
<path d="M856,-448 L832,-448 z" fill="none" stroke="black" stroke-width="10"/>
<path d="M856,-512 L864,-512 z" fill="none" stroke="black" stroke-width="10"/>
<path d="M864,-448 L856,-448 z" fill="none" stroke="black" stroke-width="10"/>
<path d="M864,-512 L896,-512 z" fill="none" stroke="black" stroke-width="10"/>
<path d="M896,-512 L896,-832 z" fill="none" stroke="black" stroke-width="10"/>
<path d="M896,-832 L832,-896 z" fill="none" stroke="black" stroke-width="10"/>
<path d="M832,-896 L-248,-896 z" fill="none" stroke="black" stroke-width="10"/>
<path d="M960,-896 L960,-448 z" fill="none" stroke="black" stroke-width="10"/>
<path d="M896,-960 L960,-896 z" fill="none" stroke="black" stroke-width="10"/>
<path d="M-128,-960 L896,-960 z" fill="none" stroke="black" stroke-width="10"/>
<path d="M960,-448 L864,-448 z" fill="none" stroke="black" stroke-width="10"/>
<path d="M864,-448 L864,-512 z" fill="none" stroke="black" stroke-width="10"/>
<path d="M-248,-896 L-320,-1024 z" fill="none" stroke="black" stroke-width="10"/>
<path d="M-320,-1024 L-832,-1024 z" fill="none" stroke="black" stroke-width="10"/>
<path d="M-768,-1088 L-128,-1088 z" fill="none" stroke="black" stroke-width="10"/>
<path d="M-128,-1088 L-128,-960 z" fill="none" stroke="black" stroke-width="10"/>
<path d="M-832,-1744 L-768,-1744 z" fill="none" stroke="black" stroke-width="10"/>
<path d="M-768,-1760 L-832,-1760 z" fill="none" stroke="black" stroke-width="10"/>
<path d="M-832,-1792 L-896,-1856 z" fill="none" stroke="black" stroke-width="10"/>
<path d="M-896,-1856 L-896,-1920 z" fill="none" stroke="black" stroke-width="10"/>
<path d="M-896,-1920 L-832,-1984 z" fill="none" stroke="black" stroke-width="10"/>
<path d="M-832,-1984 L-832,-2008 z" fill="none" stroke="black" stroke-width="10"/>
<path d="M-832,-2008 L-832,-2016 z" fill="none" stroke="black" stroke-width="10"/>
<path d="M-832,-2016 L-896,-2016 z" fill="none" stroke="black" stroke-width="10"/>
<path d="M-896,-2016 L-1024,-2208 z" fill="none" stroke="black" stroke-width="10"/>
<path d="M-1024,-2208 L-896,-2368 z" fill="none" stroke="black" stroke-width="10"/>
<path d="M-896,-2368 L-704,-2368 z" fill="none" stroke="black" stroke-width="10"/>
<path d="M-704,-2368 L-576,-2208 z" fill="none" stroke="black" stroke-width="10"/>
<path d="M-576,-2208 L-704,-2016 z" fill="none" stroke="black" stroke-width="10"/>
<path d="M-704,-2016 L-768,-2016 z" fill="none" stroke="black" stroke-width="10"/>
<path d="M-768,-2016 L-768,-2008 z" fill="none" stroke="black" stroke-width="10"/>
<path d="M-768,-2008 L-768,-1984 z" fill="none" stroke="black" stroke-width="10"/>
<path d="M-768,-1984 L-704,-1920 z" fill="none" stroke="black" stroke-width="10"/>
<path d="M-832,-2008 L-768,-2008 z" fill="none" stroke="black" stroke-width="10"/>
<path d="M-768,-2016 L-832,-2016 z" fill="none" stroke="black" stroke-width="10"/>
<path d="M-704,-640 L-832,-640 z" fill="none" stroke="black" stroke-width="10"/>
<path d="M-832,-2240 L-832,-2176 z" fill="none" stroke="black" stroke-width="10"/>
<path d="M-832,-2176 L-768,-2176 z" fill="none" stroke="black" stroke-width="10"/>
<path d="M-768,-2176 L-768,-2240 z" fill="none" stroke="black" stroke-width="10"/>
<path d="M384,-96 L344,-96 z" fill="none" stroke="black" stroke-width="10"/>
<path d="M320,192 L256,192 z" fill="none" stroke="black" stroke-width="10"/>
<path d="M-448,-216 L-568,-280 z" fill="none" stroke="black" stroke-width="10"/>
<path d="M-680,-200 L-504,-112 z" fill="none" stroke="black" stroke-width="10"/>
<path d="M-768,-2240 L-832,-2240 z" fill="none" stroke="black" stroke-width="10"/>
<path d="M-896,-1856 L-904,-1856 z" fill="none" stroke="black" stroke-width="10"/>
<path d="M-904,-1856 L-960,-1856 z" fill="none" stroke="black" stroke-width="10"/>
<path d="M-960,-1856 L-960,-1920 z" fill="none" stroke="black" stroke-width="10"/>
<path d="M-960,-1920 L-904,-1920 z" fill="none" stroke="black" stroke-width="10"/>
<path d="M-904,-1920 L-896,-1920 z" fill="none" stroke="black" stroke-width="10"/>
<path d="M-904,-1920 L-904,-1856 z" fill="none" stroke="black" stroke-width="10"/>
<path d="M-1152,-128 L-1088,-384 z" fill="none" stroke="black" stroke-width="10"/>
<path d="M-832,256 L-1152,-128 z" fill="none" stroke="black" stroke-width="10"/>
<path d="M0,256 L-832,256 z" fill="none" stroke="black" stroke-width="10"/>
<path d="M0,64 L0,256 z" fill="none" stroke="black" stroke-width="10"/>
<path d="M-128,0 L0,64 z" fill="none" stroke="black" stroke-width="10"/>
<path d="M-192,192 L-192,96 z" fill="none" stroke="black" stroke-width="10"/>
<path d="M-704,192 L-192,192 z" fill="none" stroke="black" stroke-width="10"/>
<path d="M-960,-64 L-704,192 z" fill="none" stroke="black" stroke-width="10"/>
<path d="M-984,-320 L-960,-64 z" fill="none" stroke="black" stroke-width="10"/>
<path d="M-960,-320 L-984,-320 z" fill="none" stroke="black" stroke-width="10"/>
<path d="M-192,192 L0,64 z" fill="none" stroke="black" stroke-width="10"/>
<path d="M-896,-704 L-896,-832 z" fill="none" stroke="black" stroke-width="10"/>
<path d="M-896,-832 L-832,-896 z" fill="none" stroke="black" stroke-width="10"/>
<path d="M-832,-896 L-704,-896 z" fill="none" stroke="black" stroke-width="10"/>
<path d="M-704,-896 L-608,-800 z" fill="none" stroke="black" stroke-width="10"/>
<path d="M-608,-800 L-320,-800 z" fill="none" stroke="black" stroke-width="10"/>
<path d="M-352,-736 L-608,-736 z" fill="none" stroke="black" stroke-width="10"/>
<path d="M-320,-800 L0,-512 z" fill="none" stroke="black" stroke-width="10"/>
<path d="M0,-512 L0,-208 z" fill="none" stroke="black" stroke-width="10"/>
<path d="M0,-208 L0,-192 z" fill="none" stroke="black" stroke-width="10"/>
<path d="M-64,-192 L-64,-208 z" fill="none" stroke="black" stroke-width="10"/>
<path d="M-64,-208 L-64,-480 z" fill="none" stroke="black" stroke-width="10"/>
<path d="M-64,-480 L-352,-736 z" fill="none" stroke="black" stroke-width="10"/>
<path d="M-64,-192 L0,-192 z" fill="none" stroke="black" stroke-width="10"/>
<path d="M0,-208 L-64,-208 z" fill="none" stroke="black" stroke-width="10"/>
<path d="M-704,-1920 L-704,-1856 z" fill="none" stroke="black" stroke-width="10"/>
<path d="M-832,-1024 L-832,-1136 z" fill="none" stroke="black" stroke-width="10"/>
<path d="M-832,-1136 L-832,-1152 z" fill="none" stroke="black" stroke-width="10"/>
<path d="M-768,-1152 L-768,-1136 z" fill="none" stroke="black" stroke-width="10"/>
<path d="M-768,-1136 L-768,-1088 z" fill="none" stroke="black" stroke-width="10"/>
<path d="M-768,-1152 L-832,-1152 z" fill="none" stroke="black" stroke-width="10"/>
<path d="M-832,-1136 L-768,-1136 z" fill="none" stroke="black" stroke-width="10"/>
<path d="M592,-96 L576,-96 z" fill="none" stroke="black" stroke-width="10"/>
<path d="M320,-176 L288,-232 z" fill="none" stroke="black" stroke-width="10"/>
<path d="M160,1512 L256,1512 z" fill="none" stroke="black" stroke-width="10"/>
<path d="M256,1512 L320,1512 z" fill="none" stroke="black" stroke-width="10"/>
<path d="M320,1512 L384,1600 z" fill="none" stroke="black" stroke-width="10"/>
<path d="M384,1600 L320,1696 z" fill="none" stroke="black" stroke-width="10"/>
<path d="M320,1696 L160,1696 z" fill="none" stroke="black" stroke-width="10"/>
<path d="M160,1696 L96,1600 z" fill="none" stroke="black" stroke-width="10"/>
<path d="M96,1600 L160,1512 z" fill="none" stroke="black" stroke-width="10"/>
<path d="M-128,-192 L-128,-64 z" fill="none" stroke="black" stroke-width="10"/>
<path d="M-64,-64 L-64,-192 z" fill="none" stroke="black" stroke-width="10"/>
<path d="M256,192 L256,64 z" fill="none" stroke="black" stroke-width="10"/>
</svg>