<svg viewBox="0 -3400 10000 10000" xmlns="http://www.w3.org/2000/svg">
<path d="M1984,128 L2200,256 z" fill="none" stroke="black" stroke-width="10"/>
<path d="M1600,-360 L1600,-128 z" fill="none" stroke="black" stroke-width="10"/>
<path d="M2144,-1536 L1600,-360 z" fill="none" stroke="black" stroke-width="10"/>
<path d="M1808,-2120 L2144,-1536 z" fill="none" stroke="black" stroke-width="10"/>
<path d="M1640,-2048 L1808,-2120 z" fill="none" stroke="black" stroke-width="10"/>
<path d="M1792,-1536 L1696,-1856 z" fill="none" stroke="black" stroke-width="10"/>
<path d="M1432,-1088 L1792,-1536 z" fill="none" stroke="black" stroke-width="10"/>
<path d="M1112,-1832 L1248,-1536 z" fill="none" stroke="black" stroke-width="10"/>
<path d="M1184,-2680 L1120,-2496 z" fill="none" stroke="black" stroke-width="10"/>
<path d="M1552,-2936 L1184,-2680 z" fill="none" stroke="black" stroke-width="10"/>
<path d="M1528,-2968 L1552,-2936 z" fill="none" stroke="black" stroke-width="10"/>
<path d="M1056,-2800 L1472,-3048 z" fill="none" stroke="black" stroke-width="10"/>
<path d="M816,-2288 L1056,-2800 z" fill="none" stroke="black" stroke-width="10"/>
<path d="M816,-2240 L816,-2288 z" fill="none" stroke="black" stroke-width="10"/>
<path d="M608,-2096 L816,-1816 z" fill="none" stroke="black" stroke-width="10"/>
<path d="M624,-2936 L528,-2688 z" fill="none" stroke="black" stroke-width="10"/>
<path d="M504,-2992 L544,-3056 z" fill="none" stroke="black" stroke-width="10"/>
<path d="M320,-2720 L504,-2992 z" fill="none" stroke="black" stroke-width="10"/>
<path d="M320,-2496 L320,-2720 z" fill="none" stroke="black" stroke-width="10"/>
<path d="M536,-1632 L384,-2088 z" fill="none" stroke="black" stroke-width="10"/>
<path d="M80,-1920 L536,-1632 z" fill="none" stroke="black" stroke-width="10"/>
<path d="M24,-2176 L64,-1936 z" fill="none" stroke="black" stroke-width="10"/>
<path d="M64,-2680 L8,-2248 z" fill="none" stroke="black" stroke-width="10"/>
<path d="M-56,-2728 L64,-2680 z" fill="none" stroke="black" stroke-width="10"/>
<path d="M-192,-2296 L-56,-2728 z" fill="none" stroke="black" stroke-width="10"/>
<path d="M-136,-1776 L-192,-2296 z" fill="none" stroke="black" stroke-width="10"/>
<path d="M280,-1352 L-120,-1760 z" fill="none" stroke="black" stroke-width="10"/>
<path d="M-136,-1352 L280,-1352 z" fill="none" stroke="black" stroke-width="10"/>
<path d="M-424,-1648 L-136,-1352 z" fill="none" stroke="black" stroke-width="10"/>
<path d="M-424,-1856 L-424,-1648 z" fill="none" stroke="black" stroke-width="10"/>
<path d="M-568,-1856 L-424,-1856 z" fill="none" stroke="black" stroke-width="10"/>
<path d="M-568,-1568 L-568,-1856 z" fill="none" stroke="black" stroke-width="10"/>
<path d="M-272,-1168 L-568,-1568 z" fill="none" stroke="black" stroke-width="10"/>
<path d="M280,-992 L192,-1016 z" fill="none" stroke="black" stroke-width="10"/>
<path d="M768,192 L624,-176 z" fill="none" stroke="black" stroke-width="10"/>
<path d="M552,808 L768,192 z" fill="none" stroke="black" stroke-width="10"/>
<path d="M2200,320 L1984,448 z" fill="none" stroke="black" stroke-width="10"/>
<path d="M2200,256 L2200,320 z" fill="none" stroke="black" stroke-width="10"/>
<path d="M2200,256 L2224,256 z" fill="none" stroke="black" stroke-width="10"/>
<path d="M2224,256 L2248,232 z" fill="none" stroke="black" stroke-width="10"/>
<path d="M2248,232 L2248,208 z" fill="none" stroke="black" stroke-width="10"/>
<path d="M2248,208 L2304,208 z" fill="none" stroke="black" stroke-width="10"/>
<path d="M2304,208 L2304,248 z" fill="none" stroke="black" stroke-width="10"/>
<path d="M2304,248 L2264,320 z" fill="none" stroke="black" stroke-width="10"/>
<path d="M2264,320 L2200,320 z" fill="none" stroke="black" stroke-width="10"/>
<path d="M2224,256 L2264,320 z" fill="none" stroke="black" stroke-width="10"/>
<path d="M2248,232 L2304,248 z" fill="none" stroke="black" stroke-width="10"/>
<path d="M2248,208 L2200,152 z" fill="none" stroke="black" stroke-width="10"/>
<path d="M2200,152 L2240,120 z" fill="none" stroke="black" stroke-width="10"/>
<path d="M2240,120 L2304,208 z" fill="none" stroke="black" stroke-width="10"/>
<path d="M1600,-128 L1800,-128 z" fill="none" stroke="black" stroke-width="10"/>
<path d="M1800,-128 L1984,0 z" fill="none" stroke="black" stroke-width="10"/>
<path d="M1984,0 L1984,128 z" fill="none" stroke="black" stroke-width="10"/>
<path d="M1984,448 L1984,512 z" fill="none" stroke="black" stroke-width="10"/>
<path d="M1984,512 L832,896 z" fill="none" stroke="black" stroke-width="10"/>
<path d="M1568,320 L1640,352 z" fill="none" stroke="black" stroke-width="10"/>
<path d="M1640,352 L1744,296 z" fill="none" stroke="black" stroke-width="10"/>
<path d="M1744,296 L1744,232 z" fill="none" stroke="black" stroke-width="10"/>
<path d="M1744,232 L1680,192 z" fill="none" stroke="black" stroke-width="10"/>
<path d="M1680,192 L1568,216 z" fill="none" stroke="black" stroke-width="10"/>
<path d="M1568,216 L1568,320 z" fill="none" stroke="black" stroke-width="10"/>
<path d="M832,896 L552,808 z" fill="none" stroke="black" stroke-width="10"/>
<path d="M1344,56 L1400,144 z" fill="none" stroke="black" stroke-width="10"/>
<path d="M1400,144 L1504,144 z" fill="none" stroke="black" stroke-width="10"/>
<path d="M1504,144 L1728,0 z" fill="none" stroke="black" stroke-width="10"/>
<path d="M1728,0 L1536,0 z" fill="none" stroke="black" stroke-width="10"/>
<path d="M1536,0 L1472,-128 z" fill="none" stroke="black" stroke-width="10"/>
<path d="M1472,-128 L1376,-128 z" fill="none" stroke="black" stroke-width="10"/>
<path d="M1376,-128 L1344,56 z" fill="none" stroke="black" stroke-width="10"/>
<path d="M1216,112 L1136,112 z" fill="none" stroke="black" stroke-width="10"/>
<path d="M1248,192 L1216,112 z" fill="none" stroke="black" stroke-width="10"/>
<path d="M1136,304 L1248,192 z" fill="none" stroke="black" stroke-width="10"/>
<path d="M1016,192 L1136,304 z" fill="none" stroke="black" stroke-width="10"/>
<path d="M1136,112 L1016,192 z" fill="none" stroke="black" stroke-width="10"/>
<path d="M1656,472 L1440,384 z" fill="none" stroke="black" stroke-width="10"/>
<path d="M1600,576 L1656,472 z" fill="none" stroke="black" stroke-width="10"/>
<path d="M1408,576 L1600,576 z" fill="none" stroke="black" stroke-width="10"/>
<path d="M1272,440 L1408,576 z" fill="none" stroke="black" stroke-width="10"/>
<path d="M1336,344 L1272,440 z" fill="none" stroke="black" stroke-width="10"/>
<path d="M1440,320 L1336,344 z" fill="none" stroke="black" stroke-width="10"/>
<path d="M1440,384 L1440,320 z" fill="none" stroke="black" stroke-width="10"/>
<path d="M864,696 L1000,696 z" fill="none" stroke="black" stroke-width="10"/>
<path d="M784,624 L864,696 z" fill="none" stroke="black" stroke-width="10"/>
<path d="M784,512 L784,624 z" fill="none" stroke="black" stroke-width="10"/>
<path d="M816,400 L784,512 z" fill="none" stroke="black" stroke-width="10"/>
<path d="M968,352 L816,400 z" fill="none" stroke="black" stroke-width="10"/>
<path d="M1176,440 L968,352 z" fill="none" stroke="black" stroke-width="10"/>
<path d="M1200,568 L1176,440 z" fill="none" stroke="black" stroke-width="10"/>
<path d="M1176,672 L1200,568 z" fill="none" stroke="black" stroke-width="10"/>
<path d="M1112,672 L1176,672 z" fill="none" stroke="black" stroke-width="10"/>
<path d="M1136,552 L1112,672 z" fill="none" stroke="black" stroke-width="10"/>
<path d="M1032,456 L1136,552 z" fill="none" stroke="black" stroke-width="10"/>
<path d="M888,456 L1032,456 z" fill="none" stroke="black" stroke-width="10"/>
<path d="M888,536 L888,456 z" fill="none" stroke="black" stroke-width="10"/>
<path d="M1000,616 L888,536 z" fill="none" stroke="black" stroke-width="10"/>
<path d="M1000,696 L1000,616 z" fill="none" stroke="black" stroke-width="10"/>
<path d="M960,72 L1032,72 z" fill="none" stroke="black" stroke-width="10"/>
<path d="M1032,72 L1056,16 z" fill="none" stroke="black" stroke-width="10"/>
<path d="M1056,16 L960,-80 z" fill="none" stroke="black" stroke-width="10"/>
<path d="M960,-80 L1024,-144 z" fill="none" stroke="black" stroke-width="10"/>
<path d="M1024,-144 L1152,-64 z" fill="none" stroke="black" stroke-width="10"/>
<path d="M1152,-64 L1152,16 z" fill="none" stroke="black" stroke-width="10"/>
<path d="M1152,16 L1200,16 z" fill="none" stroke="black" stroke-width="10"/>
<path d="M1200,16 L1224,-96 z" fill="none" stroke="black" stroke-width="10"/>
<path d="M1224,-96 L1192,-136 z" fill="none" stroke="black" stroke-width="10"/>
<path d="M1192,-136 L1224,-192 z" fill="none" stroke="black" stroke-width="10"/>
<path d="M1224,-192 L1336,-160 z" fill="none" stroke="black" stroke-width="10"/>
<path d="M1336,-160 L1336,-240 z" fill="none" stroke="black" stroke-width="10"/>
<path d="M1336,-240 L1192,-240 z" fill="none" stroke="black" stroke-width="10"/>
<path d="M1192,-240 L1144,-384 z" fill="none" stroke="black" stroke-width="10"/>
<path d="M1144,-384 L1184,-520 z" fill="none" stroke="black" stroke-width="10"/>
<path d="M1184,-520 L1360,-520 z" fill="none" stroke="black" stroke-width="10"/>
<path d="M1360,-520 L1360,-584 z" fill="none" stroke="black" stroke-width="10"/>
<path d="M1360,-584 L1152,-584 z" fill="none" stroke="black" stroke-width="10"/>
<path d="M1152,-584 L1072,-408 z" fill="none" stroke="black" stroke-width="10"/>
<path d="M1072,-408 L1112,-192 z" fill="none" stroke="black" stroke-width="10"/>
<path d="M1112,-192 L1000,-192 z" fill="none" stroke="black" stroke-width="10"/>
<path d="M1000,-192 L840,-480 z" fill="none" stroke="black" stroke-width="10"/>
<path d="M840,-480 L800,-432 z" fill="none" stroke="black" stroke-width="10"/>
<path d="M800,-432 L880,-360 z" fill="none" stroke="black" stroke-width="10"/>
<path d="M880,-360 L912,-208 z" fill="none" stroke="black" stroke-width="10"/>
<path d="M912,-208 L840,-136 z" fill="none" stroke="black" stroke-width="10"/>
<path d="M840,-136 L760,-200 z" fill="none" stroke="black" stroke-width="10"/>
<path d="M760,-200 L736,-312 z" fill="none" stroke="black" stroke-width="10"/>
<path d="M736,-312 L720,-312 z" fill="none" stroke="black" stroke-width="10"/>
<path d="M720,-312 L720,-176 z" fill="none" stroke="black" stroke-width="10"/>
<path d="M720,-176 L960,72 z" fill="none" stroke="black" stroke-width="10"/>
<path d="M1472,-128 L1600,-128 z" fill="none" stroke="black" stroke-width="10"/>
<path d="M768,192 L1016,192 z" fill="none" stroke="black" stroke-width="10"/>
<path d="M1136,304 L1272,440 z" fill="none" stroke="black" stroke-width="10"/>
<path d="M1440,320 L1568,320 z" fill="none" stroke="black" stroke-width="10"/>
<path d="M1568,216 L1504,144 z" fill="none" stroke="black" stroke-width="10"/>
<path d="M1336,-448 L1288,-400 z" fill="none" stroke="black" stroke-width="10"/>
<path d="M1408,-448 L1336,-448 z" fill="none" stroke="black" stroke-width="10"/>
<path d="M1424,-360 L1408,-448 z" fill="none" stroke="black" stroke-width="10"/>
<path d="M1336,-312 L1424,-360 z" fill="none" stroke="black" stroke-width="10"/>
<path d="M1288,-400 L1336,-312 z" fill="none" stroke="black" stroke-width="10"/>
<path d="M1424,-360 L1600,-360 z" fill="none" stroke="black" stroke-width="10"/>
<path d="M1336,-240 L1336,-312 z" fill="none" stroke="black" stroke-width="10"/>
<path d="M624,-176 L360,-712 z" fill="none" stroke="black" stroke-width="10"/>
<path d="M624,-176 L720,-176 z" fill="none" stroke="black" stroke-width="10"/>
<path d="M1792,-1536 L2144,-1536 z" fill="none" stroke="black" stroke-width="10"/>
<path d="M1688,-1992 L1840,-1992 z" fill="none" stroke="black" stroke-width="10"/>
<path d="M1840,-1992 L1840,-2016 z" fill="none" stroke="black" stroke-width="10"/>
<path d="M1840,-2016 L1688,-2016 z" fill="none" stroke="black" stroke-width="10"/>
<path d="M1688,-2016 L1688,-1992 z" fill="none" stroke="black" stroke-width="10"/>
<path d="M1696,-1856 L1680,-1920 z" fill="none" stroke="black" stroke-width="10"/>
<path d="M1680,-1920 L1640,-2048 z" fill="none" stroke="black" stroke-width="10"/>
<path d="M1680,-1920 L1728,-1920 z" fill="none" stroke="black" stroke-width="10"/>
<path d="M1728,-1920 L1760,-1888 z" fill="none" stroke="black" stroke-width="10"/>
<path d="M1760,-1888 L1728,-1856 z" fill="none" stroke="black" stroke-width="10"/>
<path d="M1728,-1856 L1696,-1856 z" fill="none" stroke="black" stroke-width="10"/>
<path d="M1696,-1856 L1680,-1856 z" fill="none" stroke="black" stroke-width="10"/>
<path d="M1672,-1840 L1648,-1936 z" fill="none" stroke="black" stroke-width="10"/>
<path d="M1664,-1920 L1680,-1920 z" fill="none" stroke="black" stroke-width="10"/>
<path d="M1648,-1936 L1664,-1936 z" fill="none" stroke="black" stroke-width="10"/>
<path d="M1664,-1936 L1664,-1920 z" fill="none" stroke="black" stroke-width="10"/>
<path d="M1680,-1856 L1680,-1840 z" fill="none" stroke="black" stroke-width="10"/>
<path d="M1680,-1840 L1672,-1840 z" fill="none" stroke="black" stroke-width="10"/>
<path d="M1680,-1856 L1664,-1920 z" fill="none" stroke="black" stroke-width="10"/>
<path d="M1664,-1064 L1664,-1144 z" fill="none" stroke="black" stroke-width="10"/>
<path d="M1664,-1144 L1736,-1216 z" fill="none" stroke="black" stroke-width="10"/>
<path d="M1736,-1216 L1848,-1144 z" fill="none" stroke="black" stroke-width="10"/>
<path d="M1848,-1144 L1848,-992 z" fill="none" stroke="black" stroke-width="10"/>
<path d="M1848,-992 L1688,-896 z" fill="none" stroke="black" stroke-width="10"/>
<path d="M1688,-896 L1600,-896 z" fill="none" stroke="black" stroke-width="10"/>
<path d="M1600,-896 L1728,-1024 z" fill="none" stroke="black" stroke-width="10"/>
<path d="M1728,-1024 L1664,-1064 z" fill="none" stroke="black" stroke-width="10"/>
<path d="M1560,-704 L1600,-768 z" fill="none" stroke="black" stroke-width="10"/>
<path d="M1600,-768 L1640,-704 z" fill="none" stroke="black" stroke-width="10"/>
<path d="M1640,-704 L1600,-640 z" fill="none" stroke="black" stroke-width="10"/>
<path d="M1600,-640 L1560,-704 z" fill="none" stroke="black" stroke-width="10"/>
<path d="M1152,-704 L1344,-704 z" fill="none" stroke="black" stroke-width="10"/>
<path d="M1344,-704 L1408,-832 z" fill="none" stroke="black" stroke-width="10"/>
<path d="M1408,-832 L1408,-960 z" fill="none" stroke="black" stroke-width="10"/>
<path d="M1408,-960 L1280,-1088 z" fill="none" stroke="black" stroke-width="10"/>
<path d="M1280,-1088 L1152,-1088 z" fill="none" stroke="black" stroke-width="10"/>
<path d="M1152,-1088 L1088,-1024 z" fill="none" stroke="black" stroke-width="10"/>
<path d="M1088,-1024 L1152,-960 z" fill="none" stroke="black" stroke-width="10"/>
<path d="M1152,-960 L1192,-1024 z" fill="none" stroke="black" stroke-width="10"/>
<path d="M1192,-1024 L1288,-976 z" fill="none" stroke="black" stroke-width="10"/>
<path d="M1288,-976 L1328,-848 z" fill="none" stroke="black" stroke-width="10"/>
<path d="M1328,-848 L1272,-768 z" fill="none" stroke="black" stroke-width="10"/>
<path d="M1272,-768 L1136,-768 z" fill="none" stroke="black" stroke-width="10"/>
<path d="M1136,-768 L1152,-704 z" fill="none" stroke="black" stroke-width="10"/>
<path d="M944,-560 L992,-544 z" fill="none" stroke="black" stroke-width="10"/>
<path d="M992,-544 L1056,-736 z" fill="none" stroke="black" stroke-width="10"/>
<path d="M1056,-736 L1008,-752 z" fill="none" stroke="black" stroke-width="10"/>
<path d="M1008,-752 L944,-560 z" fill="none" stroke="black" stroke-width="10"/>
<path d="M1152,-584 L1152,-704 z" fill="none" stroke="black" stroke-width="10"/>
<path d="M1280,-1088 L1432,-1088 z" fill="none" stroke="black" stroke-width="10"/>
<path d="M472,-848 L448,-848 z" fill="none" stroke="black" stroke-width="10"/>
<path d="M448,-848 L448,-712 z" fill="none" stroke="black" stroke-width="10"/>
<path d="M448,-712 L608,-640 z" fill="none" stroke="black" stroke-width="10"/>
<path d="M608,-640 L736,-728 z" fill="none" stroke="black" stroke-width="10"/>
<path d="M736,-728 L704,-896 z" fill="none" stroke="black" stroke-width="10"/>
<path d="M704,-896 L776,-920 z" fill="none" stroke="black" stroke-width="10"/>
<path d="M776,-920 L888,-792 z" fill="none" stroke="black" stroke-width="10"/>
<path d="M888,-792 L912,-808 z" fill="none" stroke="black" stroke-width="10"/>
<path d="M912,-808 L816,-944 z" fill="none" stroke="black" stroke-width="10"/>
<path d="M816,-944 L872,-1016 z" fill="none" stroke="black" stroke-width="10"/>
<path d="M872,-1016 L984,-1016 z" fill="none" stroke="black" stroke-width="10"/>
<path d="M984,-1016 L960,-904 z" fill="none" stroke="black" stroke-width="10"/>
<path d="M928,-904 L928,-880 z" fill="none" stroke="black" stroke-width="10"/>
<path d="M984,-880 L1024,-1024 z" fill="none" stroke="black" stroke-width="10"/>
<path d="M1024,-1024 L976,-1216 z" fill="none" stroke="black" stroke-width="10"/>
<path d="M976,-1216 L944,-1216 z" fill="none" stroke="black" stroke-width="10"/>
<path d="M944,-1216 L976,-1064 z" fill="none" stroke="black" stroke-width="10"/>
<path d="M976,-1064 L848,-1088 z" fill="none" stroke="black" stroke-width="10"/>
<path d="M848,-1088 L800,-1040 z" fill="none" stroke="black" stroke-width="10"/>
<path d="M800,-1040 L704,-1144 z" fill="none" stroke="black" stroke-width="10"/>
<path d="M704,-1144 L616,-1144 z" fill="none" stroke="black" stroke-width="10"/>
<path d="M616,-1144 L616,-1120 z" fill="none" stroke="black" stroke-width="10"/>
<path d="M616,-1120 L688,-1120 z" fill="none" stroke="black" stroke-width="10"/>
<path d="M688,-1120 L688,-1024 z" fill="none" stroke="black" stroke-width="10"/>
<path d="M688,-1024 L640,-984 z" fill="none" stroke="black" stroke-width="10"/>
<path d="M640,-984 L568,-1032 z" fill="none" stroke="black" stroke-width="10"/>
<path d="M568,-1032 L552,-1144 z" fill="none" stroke="black" stroke-width="10"/>
<path d="M552,-1144 L528,-1144 z" fill="none" stroke="black" stroke-width="10"/>
<path d="M528,-1144 L528,-1032 z" fill="none" stroke="black" stroke-width="10"/>
<path d="M528,-1032 L448,-1032 z" fill="none" stroke="black" stroke-width="10"/>
<path d="M448,-1032 L440,-992 z" fill="none" stroke="black" stroke-width="10"/>
<path d="M440,-992 L536,-992 z" fill="none" stroke="black" stroke-width="10"/>
<path d="M536,-992 L680,-768 z" fill="none" stroke="black" stroke-width="10"/>
<path d="M680,-768 L608,-696 z" fill="none" stroke="black" stroke-width="10"/>
<path d="M608,-696 L512,-736 z" fill="none" stroke="black" stroke-width="10"/>
<path d="M512,-736 L472,-848 z" fill="none" stroke="black" stroke-width="10"/>
<path d="M360,-712 L280,-992 z" fill="none" stroke="black" stroke-width="10"/>
<path d="M360,-712 L448,-712 z" fill="none" stroke="black" stroke-width="10"/>
<path d="M608,-640 L800,-432 z" fill="none" stroke="black" stroke-width="10"/>
<path d="M1024,-1024 L1088,-1024 z" fill="none" stroke="black" stroke-width="10"/>
<path d="M280,-992 L440,-992 z" fill="none" stroke="black" stroke-width="10"/>
<path d="M280,-992 L280,-1240 z" fill="none" stroke="black" stroke-width="10"/>
<path d="M280,-1352 L536,-1632 z" fill="none" stroke="black" stroke-width="10"/>
<path d="M536,-1632 L816,-1816 z" fill="none" stroke="black" stroke-width="10"/>
<path d="M1040,-2216 L1112,-1856 z" fill="none" stroke="black" stroke-width="10"/>
<path d="M1000,-1344 L1072,-1304 z" fill="none" stroke="black" stroke-width="10"/>
<path d="M1072,-1304 L1152,-1304 z" fill="none" stroke="black" stroke-width="10"/>
<path d="M1152,-1304 L1184,-1376 z" fill="none" stroke="black" stroke-width="10"/>
<path d="M1184,-1376 L1144,-1440 z" fill="none" stroke="black" stroke-width="10"/>
<path d="M1144,-1440 L1064,-1464 z" fill="none" stroke="black" stroke-width="10"/>
<path d="M1064,-1464 L1000,-1432 z" fill="none" stroke="black" stroke-width="10"/>
<path d="M1000,-1432 L1000,-1344 z" fill="none" stroke="black" stroke-width="10"/>
<path d="M608,-1416 L512,-1392 z" fill="none" stroke="black" stroke-width="10"/>
<path d="M512,-1392 L512,-1304 z" fill="none" stroke="black" stroke-width="10"/>
<path d="M512,-1304 L560,-1248 z" fill="none" stroke="black" stroke-width="10"/>
<path d="M560,-1248 L656,-1248 z" fill="none" stroke="black" stroke-width="10"/>
<path d="M656,-1248 L680,-1320 z" fill="none" stroke="black" stroke-width="10"/>
<path d="M680,-1320 L752,-1320 z" fill="none" stroke="black" stroke-width="10"/>
<path d="M752,-1320 L800,-1296 z" fill="none" stroke="black" stroke-width="10"/>
<path d="M800,-1296 L880,-1296 z" fill="none" stroke="black" stroke-width="10"/>
<path d="M880,-1296 L880,-1376 z" fill="none" stroke="black" stroke-width="10"/>
<path d="M880,-1376 L840,-1440 z" fill="none" stroke="black" stroke-width="10"/>
<path d="M840,-1440 L792,-1440 z" fill="none" stroke="black" stroke-width="10"/>
<path d="M792,-1440 L760,-1352 z" fill="none" stroke="black" stroke-width="10"/>
<path d="M760,-1352 L656,-1352 z" fill="none" stroke="black" stroke-width="10"/>
<path d="M656,-1352 L608,-1416 z" fill="none" stroke="black" stroke-width="10"/>
<path d="M776,-1648 L600,-1600 z" fill="none" stroke="black" stroke-width="10"/>
<path d="M600,-1600 L600,-1528 z" fill="none" stroke="black" stroke-width="10"/>
<path d="M600,-1528 L712,-1528 z" fill="none" stroke="black" stroke-width="10"/>
<path d="M712,-1528 L800,-1616 z" fill="none" stroke="black" stroke-width="10"/>
<path d="M800,-1616 L776,-1648 z" fill="none" stroke="black" stroke-width="10"/>
<path d="M1032,-1712 L936,-1712 z" fill="none" stroke="black" stroke-width="10"/>
<path d="M872,-1568 L992,-1512 z" fill="none" stroke="black" stroke-width="10"/>
<path d="M992,-1512 L1088,-1568 z" fill="none" stroke="black" stroke-width="10"/>
<path d="M1088,-1568 L1032,-1712 z" fill="none" stroke="black" stroke-width="10"/>
<path d="M448,-1256 L360,-1240 z" fill="none" stroke="black" stroke-width="10"/>
<path d="M392,-1288 L448,-1256 z" fill="none" stroke="black" stroke-width="10"/>
<path d="M400,-1304 L392,-1288 z" fill="none" stroke="black" stroke-width="10"/>
<path d="M480,-1264 L400,-1304 z" fill="none" stroke="black" stroke-width="10"/>
<path d="M440,-1184 L480,-1264 z" fill="none" stroke="black" stroke-width="10"/>
<path d="M424,-1192 L440,-1184 z" fill="none" stroke="black" stroke-width="10"/>
<path d="M448,-1240 L424,-1192 z" fill="none" stroke="black" stroke-width="10"/>
<path d="M360,-1224 L448,-1240 z" fill="none" stroke="black" stroke-width="10"/>
<path d="M352,-1200 L360,-1224 z" fill="none" stroke="black" stroke-width="10"/>
<path d="M296,-1192 L352,-1200 z" fill="none" stroke="black" stroke-width="10"/>
<path d="M312,-1224 L296,-1192 z" fill="none" stroke="black" stroke-width="10"/>
<path d="M280,-1240 L312,-1224 z" fill="none" stroke="black" stroke-width="10"/>
<path d="M336,-1256 L280,-1240 z" fill="none" stroke="black" stroke-width="10"/>
<path d="M360,-1240 L336,-1256 z" fill="none" stroke="black" stroke-width="10"/>
<path d="M512,-1304 L528,-1312 z" fill="none" stroke="black" stroke-width="10"/>
<path d="M568,-1264 L528,-1312 z" fill="none" stroke="black" stroke-width="10"/>
<path d="M528,-1368 L616,-1368 z" fill="none" stroke="black" stroke-width="10"/>
<path d="M616,-1368 L640,-1344 z" fill="none" stroke="black" stroke-width="10"/>
<path d="M640,-1344 L640,-1264 z" fill="none" stroke="black" stroke-width="10"/>
<path d="M640,-1264 L568,-1264 z" fill="none" stroke="black" stroke-width="10"/>
<path d="M568,-1264 L560,-1248 z" fill="none" stroke="black" stroke-width="10"/>
<path d="M1152,-1088 L1152,-1304 z" fill="none" stroke="black" stroke-width="10"/>
<path d="M1312,-1376 L1432,-1088 z" fill="none" stroke="black" stroke-width="10"/>
<path d="M1184,-1376 L1312,-1376 z" fill="none" stroke="black" stroke-width="10"/>
<path d="M880,-1376 L1000,-1344 z" fill="none" stroke="black" stroke-width="10"/>
<path d="M1248,-1536 L1312,-1376 z" fill="none" stroke="black" stroke-width="10"/>
<path d="M1144,-1440 L1248,-1536 z" fill="none" stroke="black" stroke-width="10"/>
<path d="M400,-1304 L512,-1392 z" fill="none" stroke="black" stroke-width="10"/>
<path d="M960,-904 L928,-904 z" fill="none" stroke="black" stroke-width="10"/>
<path d="M928,-880 L984,-880 z" fill="none" stroke="black" stroke-width="10"/>
<path d="M816,-2288 L976,-2240 z" fill="none" stroke="black" stroke-width="10"/>
<path d="M1056,-2800 L1184,-2680 z" fill="none" stroke="black" stroke-width="10"/>
<path d="M816,-1816 L904,-1832 z" fill="none" stroke="black" stroke-width="10"/>
<path d="M904,-1832 L904,-1856 z" fill="none" stroke="black" stroke-width="10"/>
<path d="M904,-1856 L896,-1856 z" fill="none" stroke="black" stroke-width="10"/>
<path d="M896,-1856 L896,-1840 z" fill="none" stroke="black" stroke-width="10"/>
<path d="M896,-1840 L816,-1840 z" fill="none" stroke="black" stroke-width="10"/>
<path d="M816,-1840 L816,-1912 z" fill="none" stroke="black" stroke-width="10"/>
<path d="M816,-1912 L880,-1912 z" fill="none" stroke="black" stroke-width="10"/>
<path d="M880,-1912 L880,-1920 z" fill="none" stroke="black" stroke-width="10"/>
<path d="M880,-1920 L816,-1920 z" fill="none" stroke="black" stroke-width="10"/>
<path d="M816,-1920 L816,-1984 z" fill="none" stroke="black" stroke-width="10"/>
<path d="M816,-1984 L880,-1984 z" fill="none" stroke="black" stroke-width="10"/>
<path d="M880,-1984 L880,-1992 z" fill="none" stroke="black" stroke-width="10"/>
<path d="M880,-1992 L816,-1992 z" fill="none" stroke="black" stroke-width="10"/>
<path d="M816,-1992 L816,-2048 z" fill="none" stroke="black" stroke-width="10"/>
<path d="M816,-2048 L880,-2048 z" fill="none" stroke="black" stroke-width="10"/>
<path d="M880,-2048 L880,-2056 z" fill="none" stroke="black" stroke-width="10"/>
<path d="M880,-2056 L816,-2056 z" fill="none" stroke="black" stroke-width="10"/>
<path d="M816,-2056 L816,-2112 z" fill="none" stroke="black" stroke-width="10"/>
<path d="M816,-2112 L880,-2112 z" fill="none" stroke="black" stroke-width="10"/>
<path d="M880,-2112 L880,-2120 z" fill="none" stroke="black" stroke-width="10"/>
<path d="M880,-2120 L816,-2120 z" fill="none" stroke="black" stroke-width="10"/>
<path d="M816,-2120 L816,-2176 z" fill="none" stroke="black" stroke-width="10"/>
<path d="M816,-2176 L880,-2176 z" fill="none" stroke="black" stroke-width="10"/>
<path d="M880,-2176 L880,-2184 z" fill="none" stroke="black" stroke-width="10"/>
<path d="M880,-2184 L816,-2184 z" fill="none" stroke="black" stroke-width="10"/>
<path d="M816,-2184 L816,-2232 z" fill="none" stroke="black" stroke-width="10"/>
<path d="M816,-2232 L880,-2232 z" fill="none" stroke="black" stroke-width="10"/>
<path d="M880,-2232 L880,-2240 z" fill="none" stroke="black" stroke-width="10"/>
<path d="M880,-2240 L816,-2240 z" fill="none" stroke="black" stroke-width="10"/>
<path d="M896,-1856 L880,-1912 z" fill="none" stroke="black" stroke-width="10"/>
<path d="M880,-1920 L880,-1984 z" fill="none" stroke="black" stroke-width="10"/>
<path d="M880,-1992 L880,-2048 z" fill="none" stroke="black" stroke-width="10"/>
<path d="M880,-2056 L880,-2112 z" fill="none" stroke="black" stroke-width="10"/>
<path d="M880,-2120 L880,-2176 z" fill="none" stroke="black" stroke-width="10"/>
<path d="M880,-2184 L880,-2232 z" fill="none" stroke="black" stroke-width="10"/>
<path d="M1040,-2256 L976,-2256 z" fill="none" stroke="black" stroke-width="10"/>
<path d="M976,-2256 L976,-2240 z" fill="none" stroke="black" stroke-width="10"/>
<path d="M976,-2240 L1040,-2216 z" fill="none" stroke="black" stroke-width="10"/>
<path d="M976,-2088 L1040,-2088 z" fill="none" stroke="black" stroke-width="10"/>
<path d="M1040,-2088 L1008,-2136 z" fill="none" stroke="black" stroke-width="10"/>
<path d="M1008,-2136 L976,-2088 z" fill="none" stroke="black" stroke-width="10"/>
<path d="M1000,-2528 L1112,-2472 z" fill="none" stroke="black" stroke-width="10"/>
<path d="M1120,-2496 L1008,-2552 z" fill="none" stroke="black" stroke-width="10"/>
<path d="M1008,-2552 L1000,-2528 z" fill="none" stroke="black" stroke-width="10"/>
<path d="M1112,-1856 L1112,-1832 z" fill="none" stroke="black" stroke-width="10"/>
<path d="M1112,-1856 L904,-1856 z" fill="none" stroke="black" stroke-width="10"/>
<path d="M904,-1832 L1112,-1832 z" fill="none" stroke="black" stroke-width="10"/>
<path d="M1120,-2496 L1112,-2472 z" fill="none" stroke="black" stroke-width="10"/>
<path d="M1112,-2472 L1040,-2256 z" fill="none" stroke="black" stroke-width="10"/>
<path d="M1264,-2832 L1264,-2872 z" fill="none" stroke="black" stroke-width="10"/>
<path d="M1264,-2872 L1296,-2912 z" fill="none" stroke="black" stroke-width="10"/>
<path d="M1296,-2912 L1328,-2872 z" fill="none" stroke="black" stroke-width="10"/>
<path d="M1328,-2872 L1296,-2824 z" fill="none" stroke="black" stroke-width="10"/>
<path d="M1296,-2824 L1264,-2832 z" fill="none" stroke="black" stroke-width="10"/>
<path d="M960,-1976 L976,-2016 z" fill="none" stroke="black" stroke-width="10"/>
<path d="M976,-2016 L1032,-2000 z" fill="none" stroke="black" stroke-width="10"/>
<path d="M1032,-2000 L1040,-1960 z" fill="none" stroke="black" stroke-width="10"/>
<path d="M1040,-1960 L1008,-1936 z" fill="none" stroke="black" stroke-width="10"/>
<path d="M1008,-1936 L960,-1976 z" fill="none" stroke="black" stroke-width="10"/>
<path d="M984,-2424 L1016,-2448 z" fill="none" stroke="black" stroke-width="10"/>
<path d="M1008,-2384 L984,-2424 z" fill="none" stroke="black" stroke-width="10"/>
<path d="M1032,-2408 L1008,-2384 z" fill="none" stroke="black" stroke-width="10"/>
<path d="M1016,-2448 L1032,-2408 z" fill="none" stroke="black" stroke-width="10"/>
<path d="M1472,-3048 L1496,-3064 z" fill="none" stroke="black" stroke-width="10"/>
<path d="M1496,-3064 L1640,-3120 z" fill="none" stroke="black" stroke-width="10"/>
<path d="M1576,-2952 L1552,-2936 z" fill="none" stroke="black" stroke-width="10"/>
<path d="M1672,-3072 L1576,-2952 z" fill="none" stroke="black" stroke-width="10"/>
<path d="M1640,-3120 L1672,-3072 z" fill="none" stroke="black" stroke-width="10"/>
<path d="M1576,-2952 L1496,-3064 z" fill="none" stroke="black" stroke-width="10"/>
<path d="M1472,-3048 L1496,-3016 z" fill="none" stroke="black" stroke-width="10"/>
<path d="M1496,-3016 L1528,-2968 z" fill="none" stroke="black" stroke-width="10"/>
<path d="M384,-2088 L392,-2096 z" fill="none" stroke="black" stroke-width="10"/>
<path d="M392,-2096 L512,-2096 z" fill="none" stroke="black" stroke-width="10"/>
<path d="M512,-2096 L512,-2104 z" fill="none" stroke="black" stroke-width="10"/>
<path d="M512,-2104 L392,-2104 z" fill="none" stroke="black" stroke-width="10"/>
<path d="M392,-2104 L376,-2120 z" fill="none" stroke="black" stroke-width="10"/>
<path d="M376,-2120 L360,-2272 z" fill="none" stroke="black" stroke-width="10"/>
<path d="M360,-2272 L368,-2280 z" fill="none" stroke="black" stroke-width="10"/>
<path d="M368,-2280 L488,-2280 z" fill="none" stroke="black" stroke-width="10"/>
<path d="M488,-2280 L488,-2288 z" fill="none" stroke="black" stroke-width="10"/>
<path d="M488,-2288 L368,-2288 z" fill="none" stroke="black" stroke-width="10"/>
<path d="M368,-2288 L360,-2304 z" fill="none" stroke="black" stroke-width="10"/>
<path d="M360,-2304 L344,-2472 z" fill="none" stroke="black" stroke-width="10"/>
<path d="M344,-2472 L352,-2480 z" fill="none" stroke="black" stroke-width="10"/>
<path d="M352,-2480 L480,-2480 z" fill="none" stroke="black" stroke-width="10"/>
<path d="M480,-2480 L480,-2536 z" fill="none" stroke="black" stroke-width="10"/>
<path d="M480,-2536 L472,-2536 z" fill="none" stroke="black" stroke-width="10"/>
<path d="M472,-2536 L472,-2488 z" fill="none" stroke="black" stroke-width="10"/>
<path d="M472,-2488 L352,-2488 z" fill="none" stroke="black" stroke-width="10"/>
<path d="M352,-2488 L320,-2496 z" fill="none" stroke="black" stroke-width="10"/>
<path d="M592,-2192 L608,-2096 z" fill="none" stroke="black" stroke-width="10"/>
<path d="M480,-2192 L592,-2192 z" fill="none" stroke="black" stroke-width="10"/>
<path d="M480,-2200 L480,-2192 z" fill="none" stroke="black" stroke-width="10"/>
<path d="M592,-2200 L480,-2200 z" fill="none" stroke="black" stroke-width="10"/>
<path d="M560,-2392 L592,-2200 z" fill="none" stroke="black" stroke-width="10"/>
<path d="M440,-2392 L560,-2392 z" fill="none" stroke="black" stroke-width="10"/>
<path d="M440,-2400 L440,-2392 z" fill="none" stroke="black" stroke-width="10"/>
<path d="M552,-2400 L440,-2400 z" fill="none" stroke="black" stroke-width="10"/>
<path d="M560,-2408 L552,-2400 z" fill="none" stroke="black" stroke-width="10"/>
<path d="M536,-2560 L560,-2408 z" fill="none" stroke="black" stroke-width="10"/>
<path d="M416,-2616 L528,-2672 z" fill="none" stroke="black" stroke-width="10"/>
<path d="M416,-2560 L416,-2616 z" fill="none" stroke="black" stroke-width="10"/>
<path d="M408,-2560 L416,-2560 z" fill="none" stroke="black" stroke-width="10"/>
<path d="M408,-2624 L408,-2560 z" fill="none" stroke="black" stroke-width="10"/>
<path d="M528,-2688 L408,-2624 z" fill="none" stroke="black" stroke-width="10"/>
<path d="M512,-2096 L608,-2096 z" fill="none" stroke="black" stroke-width="10"/>
<path d="M472,-2536 L416,-2560 z" fill="none" stroke="black" stroke-width="10"/>
<path d="M528,-1832 L592,-1928 z" fill="none" stroke="black" stroke-width="10"/>
<path d="M592,-1928 L680,-1904 z" fill="none" stroke="black" stroke-width="10"/>
<path d="M680,-1904 L704,-1816 z" fill="none" stroke="black" stroke-width="10"/>
<path d="M704,-1816 L640,-1792 z" fill="none" stroke="black" stroke-width="10"/>
<path d="M640,-1792 L528,-1832 z" fill="none" stroke="black" stroke-width="10"/>
<path d="M872,-1576 L872,-1568 z" fill="none" stroke="black" stroke-width="10"/>
<path d="M944,-1696 L1024,-1696 z" fill="none" stroke="black" stroke-width="10"/>
<path d="M1024,-1696 L1024,-1568 z" fill="none" stroke="black" stroke-width="10"/>
<path d="M1024,-1568 L904,-1568 z" fill="none" stroke="black" stroke-width="10"/>
<path d="M904,-1568 L872,-1576 z" fill="none" stroke="black" stroke-width="10"/>
<path d="M936,-1712 L944,-1696 z" fill="none" stroke="black" stroke-width="10"/>
<path d="M352,-2488 L408,-2560 z" fill="none" stroke="black" stroke-width="10"/>
<path d="M528,-2672 L536,-2560 z" fill="none" stroke="black" stroke-width="10"/>
<path d="M552,-2560 L536,-2560 z" fill="none" stroke="black" stroke-width="10"/>
<path d="M552,-2560 L544,-2672 z" fill="none" stroke="black" stroke-width="10"/>
<path d="M528,-2672 L544,-2672 z" fill="none" stroke="black" stroke-width="10"/>
<path d="M544,-2672 L592,-2704 z" fill="none" stroke="black" stroke-width="10"/>
<path d="M592,-2704 L640,-2704 z" fill="none" stroke="black" stroke-width="10"/>
<path d="M640,-2704 L640,-2560 z" fill="none" stroke="black" stroke-width="10"/>
<path d="M640,-2560 L552,-2560 z" fill="none" stroke="black" stroke-width="10"/>
<path d="M592,-3144 L696,-3088 z" fill="none" stroke="black" stroke-width="10"/>
<path d="M656,-3000 L624,-2936 z" fill="none" stroke="black" stroke-width="10"/>
<path d="M544,-3056 L656,-3000 z" fill="none" stroke="black" stroke-width="10"/>
<path d="M664,-3016 L552,-3072 z" fill="none" stroke="black" stroke-width="10"/>
<path d="M552,-3072 L592,-3144 z" fill="none" stroke="black" stroke-width="10"/>
<path d="M696,-3088 L664,-3016 z" fill="none" stroke="black" stroke-width="10"/>
<path d="M544,-3056 L552,-3072 z" fill="none" stroke="black" stroke-width="10"/>
<path d="M664,-3016 L656,-3000 z" fill="none" stroke="black" stroke-width="10"/>
<path d="M-64,-2560 L0,-2560 z" fill="none" stroke="black" stroke-width="10"/>
<path d="M0,-2560 L0,-2624 z" fill="none" stroke="black" stroke-width="10"/>
<path d="M0,-2624 L-64,-2624 z" fill="none" stroke="black" stroke-width="10"/>
<path d="M-64,-2624 L-64,-2560 z" fill="none" stroke="black" stroke-width="10"/>
<path d="M-192,-2296 L8,-2248 z" fill="none" stroke="black" stroke-width="10"/>
<path d="M-272,-1168 L-136,-1352 z" fill="none" stroke="black" stroke-width="10"/>
<path d="M-568,-1568 L-424,-1648 z" fill="none" stroke="black" stroke-width="10"/>
<path d="M192,-1280 L0,-1280 z" fill="none" stroke="black" stroke-width="10"/>
<path d="M192,-1016 L192,-1280 z" fill="none" stroke="black" stroke-width="10"/>
<path d="M0,-1280 L-32,-1080 z" fill="none" stroke="black" stroke-width="10"/>
<path d="M176,-1016 L-16,-1072 z" fill="none" stroke="black" stroke-width="10"/>
<path d="M-32,-1080 L-272,-1168 z" fill="none" stroke="black" stroke-width="10"/>
<path d="M-568,-1856 L-568,-1864 z" fill="none" stroke="black" stroke-width="10"/>
<path d="M-568,-1864 L-528,-2048 z" fill="none" stroke="black" stroke-width="10"/>
<path d="M-528,-2048 L-464,-2048 z" fill="none" stroke="black" stroke-width="10"/>
<path d="M-464,-2048 L-424,-1864 z" fill="none" stroke="black" stroke-width="10"/>
<path d="M-424,-1864 L-424,-1856 z" fill="none" stroke="black" stroke-width="10"/>
<path d="M-424,-1864 L-568,-1864 z" fill="none" stroke="black" stroke-width="10"/>
<path d="M8,-2248 L24,-2176 z" fill="none" stroke="black" stroke-width="10"/>
<path d="M8,-2248 L40,-2240 z" fill="none" stroke="black" stroke-width="10"/>
<path d="M40,-2240 L40,-2176 z" fill="none" stroke="black" stroke-width="10"/>
<path d="M40,-2176 L24,-2176 z" fill="none" stroke="black" stroke-width="10"/>
<path d="M40,-2240 L64,-2240 z" fill="none" stroke="black" stroke-width="10"/>
<path d="M64,-2176 L40,-2176 z" fill="none" stroke="black" stroke-width="10"/>
<path d="M64,-2176 L64,-2240 z" fill="none" stroke="black" stroke-width="10"/>
<path d="M64,-2240 L104,-2240 z" fill="none" stroke="black" stroke-width="10"/>
<path d="M104,-2240 L104,-2176 z" fill="none" stroke="black" stroke-width="10"/>
<path d="M104,-2176 L64,-2176 z" fill="none" stroke="black" stroke-width="10"/>
<path d="M64,-1936 L-136,-1776 z" fill="none" stroke="black" stroke-width="10"/>
<path d="M-120,-1760 L80,-1920 z" fill="none" stroke="black" stroke-width="10"/>
<path d="M64,-1936 L80,-1920 z" fill="none" stroke="black" stroke-width="10"/>
<path d="M-120,-1760 L-136,-1776 z" fill="none" stroke="black" stroke-width="10"/>
<path d="M488,-2912 L520,-2960 z" fill="none" stroke="black" stroke-width="10"/>
<path d="M512,-2912 L488,-2912 z" fill="none" stroke="black" stroke-width="10"/>
<path d="M504,-2856 L512,-2912 z" fill="none" stroke="black" stroke-width="10"/>
<path d="M536,-2856 L504,-2856 z" fill="none" stroke="black" stroke-width="10"/>
<path d="M528,-2912 L536,-2856 z" fill="none" stroke="black" stroke-width="10"/>
<path d="M552,-2912 L528,-2912 z" fill="none" stroke="black" stroke-width="10"/>
<path d="M520,-2960 L552,-2912 z" fill="none" stroke="black" stroke-width="10"/>
<path d="M192,-1016 L176,-1016 z" fill="none" stroke="black" stroke-width="10"/>
<path d="M-16,-1072 L16,-1264 z" fill="none" stroke="black" stroke-width="10"/>
<path d="M16,-1264 L176,-1264 z" fill="none" stroke="black" stroke-width="10"/>
<path d="M176,-1264 L176,-1016 z" fill="none" stroke="black" stroke-width="10"/>
<path d="M-16,-1072 L-32,-1080 z" fill="none" stroke="black" stroke-width="10"/>
<path d="M96,-1208 L64,-1152 z" fill="none" stroke="black" stroke-width="10"/>
<path d="M128,-1152 L96,-1208 z" fill="none" stroke="black" stroke-width="10"/>
<path d="M64,-1152 L128,-1152 z" fill="none" stroke="black" stroke-width="10"/>
<path d="M936,-1712 L872,-1576 z" fill="none" stroke="black" stroke-width="10"/>
<path d="M904,-1568 L944,-1696 z" fill="none" stroke="black" stroke-width="10"/>
<path d="M592,-3144 L592,-3160 z" fill="none" stroke="black" stroke-width="10"/>
<path d="M592,-3160 L512,-3264 z" fill="none" stroke="black" stroke-width="10"/>
<path d="M512,-3264 L576,-3392 z" fill="none" stroke="black" stroke-width="10"/>
<path d="M576,-3392 L704,-3456 z" fill="none" stroke="black" stroke-width="10"/>
<path d="M704,-3456 L832,-3392 z" fill="none" stroke="black" stroke-width="10"/>
<path d="M832,-3392 L896,-3264 z" fill="none" stroke="black" stroke-width="10"/>
<path d="M896,-3264 L904,-3136 z" fill="none" stroke="black" stroke-width="10"/>
<path d="M904,-3136 L768,-3072 z" fill="none" stroke="black" stroke-width="10"/>
<path d="M768,-3072 L712,-3104 z" fill="none" stroke="black" stroke-width="10"/>
<path d="M712,-3104 L696,-3088 z" fill="none" stroke="black" stroke-width="10"/>
<path d="M712,-3104 L592,-3160 z" fill="none" stroke="black" stroke-width="10"/>
<path d="M528,-1312 L528,-1368 z" fill="none" stroke="black" stroke-width="10"/>
</svg>