<svg viewBox="0 -3400 10000 10000" xmlns="http://www.w3.org/2000/svg">
<path d="M96,1344 L96,512 z" fill="none" stroke="black" stroke-width="10"/>
<path d="M96,1360 L96,1344 z" fill="none" stroke="black" stroke-width="10"/>
<path d="M24,1448 L96,1360 z" fill="none" stroke="black" stroke-width="10"/>
<path d="M160,1560 L24,1448 z" fill="none" stroke="black" stroke-width="10"/>
<path d="M296,1448 L160,1560 z" fill="none" stroke="black" stroke-width="10"/>
<path d="M224,1360 L296,1448 z" fill="none" stroke="black" stroke-width="10"/>
<path d="M224,1344 L224,1360 z" fill="none" stroke="black" stroke-width="10"/>
<path d="M224,512 L224,1344 z" fill="none" stroke="black" stroke-width="10"/>
<path d="M224,1344 L96,1344 z" fill="none" stroke="black" stroke-width="10"/>
<path d="M96,1360 L224,1360 z" fill="none" stroke="black" stroke-width="10"/>
<path d="M256,512 L224,512 z" fill="none" stroke="black" stroke-width="10"/>
<path d="M448,320 L256,512 z" fill="none" stroke="black" stroke-width="10"/>
<path d="M704,512 L448,320 z" fill="none" stroke="black" stroke-width="10"/>
<path d="M704,960 L704,512 z" fill="none" stroke="black" stroke-width="10"/>
<path d="M1984,1152 L704,960 z" fill="none" stroke="black" stroke-width="10"/>
<path d="M1792,-128 L1984,1152 z" fill="none" stroke="black" stroke-width="10"/>
<path d="M1408,-128 L1792,-128 z" fill="none" stroke="black" stroke-width="10"/>
<path d="M1152,-384 L1408,-128 z" fill="none" stroke="black" stroke-width="10"/>
<path d="M1152,-896 L1152,-384 z" fill="none" stroke="black" stroke-width="10"/>
<path d="M1408,-1152 L1152,-896 z" fill="none" stroke="black" stroke-width="10"/>
<path d="M1792,-1152 L1408,-1152 z" fill="none" stroke="black" stroke-width="10"/>
<path d="M1984,-2432 L1792,-1152 z" fill="none" stroke="black" stroke-width="10"/>
<path d="M704,-2240 L1984,-2432 z" fill="none" stroke="black" stroke-width="10"/>
<path d="M704,-1856 L704,-2240 z" fill="none" stroke="black" stroke-width="10"/>
<path d="M448,-1600 L704,-1856 z" fill="none" stroke="black" stroke-width="10"/>
<path d="M-128,-1600 L448,-1600 z" fill="none" stroke="black" stroke-width="10"/>
<path d="M-384,-1856 L-128,-1600 z" fill="none" stroke="black" stroke-width="10"/>
<path d="M-384,-2240 L-384,-1856 z" fill="none" stroke="black" stroke-width="10"/>
<path d="M-1728,-2432 L-384,-2240 z" fill="none" stroke="black" stroke-width="10"/>
<path d="M-1536,-1152 L-1728,-2432 z" fill="none" stroke="black" stroke-width="10"/>
<path d="M-1088,-1152 L-1536,-1152 z" fill="none" stroke="black" stroke-width="10"/>
<path d="M-832,-896 L-1088,-1152 z" fill="none" stroke="black" stroke-width="10"/>
<path d="M-832,-384 L-832,-896 z" fill="none" stroke="black" stroke-width="10"/>
<path d="M-1088,-128 L-832,-384 z" fill="none" stroke="black" stroke-width="10"/>
<path d="M-1536,-128 L-1088,-128 z" fill="none" stroke="black" stroke-width="10"/>
<path d="M-1728,1152 L-1536,-128 z" fill="none" stroke="black" stroke-width="10"/>
<path d="M-384,960 L-1728,1152 z" fill="none" stroke="black" stroke-width="10"/>
<path d="M-384,512 L-384,960 z" fill="none" stroke="black" stroke-width="10"/>
<path d="M-128,320 L-384,512 z" fill="none" stroke="black" stroke-width="10"/>
<path d="M64,512 L-128,320 z" fill="none" stroke="black" stroke-width="10"/>
<path d="M96,512 L64,512 z" fill="none" stroke="black" stroke-width="10"/>
<path d="M-512,448 L-512,832 z" fill="none" stroke="black" stroke-width="10"/>
<path d="M-512,832 L-1600,1024 z" fill="none" stroke="black" stroke-width="10"/>
<path d="M-1600,1024 L-1408,0 z" fill="none" stroke="black" stroke-width="10"/>
<path d="M-1408,0 L-1024,0 z" fill="none" stroke="black" stroke-width="10"/>
<path d="M-1024,0 L-704,-320 z" fill="none" stroke="black" stroke-width="10"/>
<path d="M-704,-320 L-704,-960 z" fill="none" stroke="black" stroke-width="10"/>
<path d="M-704,-960 L-1024,-1280 z" fill="none" stroke="black" stroke-width="10"/>
<path d="M-1024,-1280 L-1408,-1280 z" fill="none" stroke="black" stroke-width="10"/>
<path d="M-1408,-1280 L-1600,-2304 z" fill="none" stroke="black" stroke-width="10"/>
<path d="M-1600,-2304 L-512,-2112 z" fill="none" stroke="black" stroke-width="10"/>
<path d="M-512,-2112 L-512,-1792 z" fill="none" stroke="black" stroke-width="10"/>
<path d="M-512,-1792 L-192,-1472 z" fill="none" stroke="black" stroke-width="10"/>
<path d="M-192,-1472 L512,-1472 z" fill="none" stroke="black" stroke-width="10"/>
<path d="M512,-1472 L832,-1792 z" fill="none" stroke="black" stroke-width="10"/>
<path d="M832,-1792 L832,-2112 z" fill="none" stroke="black" stroke-width="10"/>
<path d="M832,-2112 L1856,-2304 z" fill="none" stroke="black" stroke-width="10"/>
<path d="M1856,-2304 L1664,-1280 z" fill="none" stroke="black" stroke-width="10"/>
<path d="M1664,-1280 L1344,-1280 z" fill="none" stroke="black" stroke-width="10"/>
<path d="M1344,-1280 L1024,-960 z" fill="none" stroke="black" stroke-width="10"/>
<path d="M1024,-960 L1024,-320 z" fill="none" stroke="black" stroke-width="10"/>
<path d="M1024,-320 L1344,0 z" fill="none" stroke="black" stroke-width="10"/>
<path d="M1344,0 L1664,0 z" fill="none" stroke="black" stroke-width="10"/>
<path d="M1664,0 L1856,1024 z" fill="none" stroke="black" stroke-width="10"/>
<path d="M1856,1024 L832,832 z" fill="none" stroke="black" stroke-width="10"/>
<path d="M832,832 L832,448 z" fill="none" stroke="black" stroke-width="10"/>
<path d="M832,448 L576,192 z" fill="none" stroke="black" stroke-width="10"/>
<path d="M576,192 L-256,192 z" fill="none" stroke="black" stroke-width="10"/>
<path d="M-256,192 L-512,448 z" fill="none" stroke="black" stroke-width="10"/>
<path d="M352,-720 L312,-792 z" fill="none" stroke="black" stroke-width="10"/>
<path d="M312,-792 L240,-832 z" fill="none" stroke="black" stroke-width="10"/>
<path d="M240,-832 L80,-832 z" fill="none" stroke="black" stroke-width="10"/>
<path d="M80,-832 L8,-792 z" fill="none" stroke="black" stroke-width="10"/>
<path d="M8,-792 L-32,-720 z" fill="none" stroke="black" stroke-width="10"/>
<path d="M-32,-720 L-32,-560 z" fill="none" stroke="black" stroke-width="10"/>
<path d="M-32,-560 L8,-488 z" fill="none" stroke="black" stroke-width="10"/>
<path d="M8,-488 L80,-448 z" fill="none" stroke="black" stroke-width="10"/>
<path d="M80,-448 L240,-448 z" fill="none" stroke="black" stroke-width="10"/>
<path d="M240,-448 L312,-488 z" fill="none" stroke="black" stroke-width="10"/>
<path d="M312,-488 L352,-560 z" fill="none" stroke="black" stroke-width="10"/>
<path d="M352,-560 L352,-720 z" fill="none" stroke="black" stroke-width="10"/>
<path d="M-32,-720 L-16,-704 z" fill="none" stroke="black" stroke-width="10"/>
<path d="M-16,-704 L-16,-576 z" fill="none" stroke="black" stroke-width="10"/>
<path d="M-16,-576 L-32,-560 z" fill="none" stroke="black" stroke-width="10"/>
<path d="M80,-448 L96,-464 z" fill="none" stroke="black" stroke-width="10"/>
<path d="M96,-464 L224,-464 z" fill="none" stroke="black" stroke-width="10"/>
<path d="M224,-464 L240,-448 z" fill="none" stroke="black" stroke-width="10"/>
<path d="M352,-560 L336,-576 z" fill="none" stroke="black" stroke-width="10"/>
<path d="M336,-576 L336,-704 z" fill="none" stroke="black" stroke-width="10"/>
<path d="M336,-704 L352,-720 z" fill="none" stroke="black" stroke-width="10"/>
<path d="M240,-832 L224,-816 z" fill="none" stroke="black" stroke-width="10"/>
<path d="M224,-816 L96,-816 z" fill="none" stroke="black" stroke-width="10"/>
<path d="M96,-816 L80,-832 z" fill="none" stroke="black" stroke-width="10"/>
<path d="M-16,-704 L0,-704 z" fill="none" stroke="black" stroke-width="10"/>
<path d="M0,-704 L32,-768 z" fill="none" stroke="black" stroke-width="10"/>
<path d="M32,-768 L96,-800 z" fill="none" stroke="black" stroke-width="10"/>
<path d="M96,-800 L96,-816 z" fill="none" stroke="black" stroke-width="10"/>
<path d="M224,-816 L224,-800 z" fill="none" stroke="black" stroke-width="10"/>
<path d="M224,-800 L288,-768 z" fill="none" stroke="black" stroke-width="10"/>
<path d="M288,-768 L320,-704 z" fill="none" stroke="black" stroke-width="10"/>
<path d="M320,-704 L336,-704 z" fill="none" stroke="black" stroke-width="10"/>
<path d="M96,-464 L96,-480 z" fill="none" stroke="black" stroke-width="10"/>
<path d="M96,-480 L32,-512 z" fill="none" stroke="black" stroke-width="10"/>
<path d="M32,-512 L0,-576 z" fill="none" stroke="black" stroke-width="10"/>
<path d="M0,-576 L-16,-576 z" fill="none" stroke="black" stroke-width="10"/>
<path d="M0,-576 L0,-704 z" fill="none" stroke="black" stroke-width="10"/>
<path d="M96,-800 L224,-800 z" fill="none" stroke="black" stroke-width="10"/>
<path d="M320,-704 L320,-576 z" fill="none" stroke="black" stroke-width="10"/>
<path d="M224,-480 L96,-480 z" fill="none" stroke="black" stroke-width="10"/>
<path d="M224,-480 L224,-464 z" fill="none" stroke="black" stroke-width="10"/>
<path d="M288,-512 L224,-480 z" fill="none" stroke="black" stroke-width="10"/>
<path d="M320,-576 L288,-512 z" fill="none" stroke="black" stroke-width="10"/>
<path d="M336,-576 L320,-576 z" fill="none" stroke="black" stroke-width="10"/>
<path d="M-192,-1472 L-128,-1408 z" fill="none" stroke="black" stroke-width="10"/>
<path d="M-128,-1408 L-64,-1344 z" fill="none" stroke="black" stroke-width="10"/>
<path d="M-64,-1344 L0,-1280 z" fill="none" stroke="black" stroke-width="10"/>
<path d="M0,-1280 L320,-1280 z" fill="none" stroke="black" stroke-width="10"/>
<path d="M320,-1280 L384,-1344 z" fill="none" stroke="black" stroke-width="10"/>
<path d="M384,-1344 L448,-1408 z" fill="none" stroke="black" stroke-width="10"/>
<path d="M448,-1408 L512,-1472 z" fill="none" stroke="black" stroke-width="10"/>
<path d="M-128,-1408 L448,-1408 z" fill="none" stroke="black" stroke-width="10"/>
<path d="M-64,-1344 L384,-1344 z" fill="none" stroke="black" stroke-width="10"/>
</svg>