<svg viewBox="0 -3400 10000 10000" xmlns="http://www.w3.org/2000/svg">
<path d="M576,1984 L64,1984 z" fill="none" stroke="black" stroke-width="10"/>
<path d="M64,1984 L-640,1280 z" fill="none" stroke="black" stroke-width="10"/>
<path d="M-640,1280 L-640,448 z" fill="none" stroke="black" stroke-width="10"/>
<path d="M-640,448 L160,448 z" fill="none" stroke="black" stroke-width="10"/>
<path d="M1280,448 L1280,1152 z" fill="none" stroke="black" stroke-width="10"/>
<path d="M1280,1280 L576,1984 z" fill="none" stroke="black" stroke-width="10"/>
<path d="M480,448 L1280,448 z" fill="none" stroke="black" stroke-width="10"/>
<path d="M160,448 L224,448 z" fill="none" stroke="black" stroke-width="10"/>
<path d="M256,448 L384,448 z" fill="none" stroke="black" stroke-width="10"/>
<path d="M416,448 L480,448 z" fill="none" stroke="black" stroke-width="10"/>
<path d="M160,448 L160,456 z" fill="none" stroke="black" stroke-width="10"/>
<path d="M160,456 L224,456 z" fill="none" stroke="black" stroke-width="10"/>
<path d="M224,456 L224,448 z" fill="none" stroke="black" stroke-width="10"/>
<path d="M416,448 L416,456 z" fill="none" stroke="black" stroke-width="10"/>
<path d="M416,456 L480,456 z" fill="none" stroke="black" stroke-width="10"/>
<path d="M480,456 L480,448 z" fill="none" stroke="black" stroke-width="10"/>
<path d="M224,456 L416,456 z" fill="none" stroke="black" stroke-width="10"/>
<path d="M256,448 L256,432 z" fill="none" stroke="black" stroke-width="10"/>
<path d="M384,432 L384,448 z" fill="none" stroke="black" stroke-width="10"/>
<path d="M256,432 L256,416 z" fill="none" stroke="black" stroke-width="10"/>
<path d="M256,416 L256,128 z" fill="none" stroke="black" stroke-width="10"/>
<path d="M384,192 L384,416 z" fill="none" stroke="black" stroke-width="10"/>
<path d="M384,416 L384,432 z" fill="none" stroke="black" stroke-width="10"/>
<path d="M256,432 L384,432 z" fill="none" stroke="black" stroke-width="10"/>
<path d="M384,416 L256,416 z" fill="none" stroke="black" stroke-width="10"/>
<path d="M320,-64 L384,64 z" fill="none" stroke="black" stroke-width="10"/>
<path d="M224,448 L256,448 z" fill="none" stroke="black" stroke-width="10"/>
<path d="M384,448 L416,448 z" fill="none" stroke="black" stroke-width="10"/>
<path d="M128,-192 L256,-128 z" fill="none" stroke="black" stroke-width="10"/>
<path d="M256,-128 L320,-64 z" fill="none" stroke="black" stroke-width="10"/>
<path d="M256,128 L224,64 z" fill="none" stroke="black" stroke-width="10"/>
<path d="M224,64 L128,-32 z" fill="none" stroke="black" stroke-width="10"/>
<path d="M128,-32 L64,-64 z" fill="none" stroke="black" stroke-width="10"/>
<path d="M64,-64 L0,-64 z" fill="none" stroke="black" stroke-width="10"/>
<path d="M0,-192 L64,-192 z" fill="none" stroke="black" stroke-width="10"/>
<path d="M-576,-576 L-368,-576 z" fill="none" stroke="black" stroke-width="10"/>
<path d="M-368,-576 L-160,-504 z" fill="none" stroke="black" stroke-width="10"/>
<path d="M-160,-504 L-32,-384 z" fill="none" stroke="black" stroke-width="10"/>
<path d="M-32,-384 L0,-256 z" fill="none" stroke="black" stroke-width="10"/>
<path d="M0,-256 L0,-192 z" fill="none" stroke="black" stroke-width="10"/>
<path d="M-768,-64 L-832,-320 z" fill="none" stroke="black" stroke-width="10"/>
<path d="M-640,96 L-768,-64 z" fill="none" stroke="black" stroke-width="10"/>
<path d="M-768,-560 L-704,-576 z" fill="none" stroke="black" stroke-width="10"/>
<path d="M-960,-384 L-768,-560 z" fill="none" stroke="black" stroke-width="10"/>
<path d="M-464,160 L-640,96 z" fill="none" stroke="black" stroke-width="10"/>
<path d="M-264,152 L-464,160 z" fill="none" stroke="black" stroke-width="10"/>
<path d="M-64,96 L-264,152 z" fill="none" stroke="black" stroke-width="10"/>
<path d="M0,0 L-64,96 z" fill="none" stroke="black" stroke-width="10"/>
<path d="M0,-64 L0,0 z" fill="none" stroke="black" stroke-width="10"/>
<path d="M-704,-448 L-576,-448 z" fill="none" stroke="black" stroke-width="10"/>
<path d="M-624,-288 L-520,-360 z" fill="none" stroke="black" stroke-width="10"/>
<path d="M-552,-200 L-440,-280 z" fill="none" stroke="black" stroke-width="10"/>
<path d="M-376,-112 L-320,-216 z" fill="none" stroke="black" stroke-width="10"/>
<path d="M-224,-64 L-224,-192 z" fill="none" stroke="black" stroke-width="10"/>
<path d="M0,-256 L-120,-192 z" fill="none" stroke="black" stroke-width="10"/>
<path d="M-128,-64 L-64,96 z" fill="none" stroke="black" stroke-width="10"/>
<path d="M-120,-192 L-224,-192 z" fill="none" stroke="black" stroke-width="10"/>
<path d="M-224,-64 L-128,-64 z" fill="none" stroke="black" stroke-width="10"/>
<path d="M-224,-192 L-320,-216 z" fill="none" stroke="black" stroke-width="10"/>
<path d="M-376,-112 L-224,-64 z" fill="none" stroke="black" stroke-width="10"/>
<path d="M-624,-288 L-552,-200 z" fill="none" stroke="black" stroke-width="10"/>
<path d="M-440,-280 L-520,-360 z" fill="none" stroke="black" stroke-width="10"/>
<path d="M-520,-360 L-576,-448 z" fill="none" stroke="black" stroke-width="10"/>
<path d="M-704,-448 L-624,-288 z" fill="none" stroke="black" stroke-width="10"/>
<path d="M-576,-448 L-576,-576 z" fill="none" stroke="black" stroke-width="10"/>
<path d="M-704,-576 L-704,-448 z" fill="none" stroke="black" stroke-width="10"/>
<path d="M-704,-576 L-576,-576 z" fill="none" stroke="black" stroke-width="10"/>
<path d="M-704,-576 L-704,-640 z" fill="none" stroke="black" stroke-width="10"/>
<path d="M-704,-640 L-768,-704 z" fill="none" stroke="black" stroke-width="10"/>
<path d="M-704,-1152 L-832,-1216 z" fill="none" stroke="black" stroke-width="10"/>
<path d="M-832,-1216 L-960,-1376 z" fill="none" stroke="black" stroke-width="10"/>
<path d="M-960,-1376 L-960,-1592 z" fill="none" stroke="black" stroke-width="10"/>
<path d="M-960,-1592 L-832,-1720 z" fill="none" stroke="black" stroke-width="10"/>
<path d="M-832,-1720 L-704,-1720 z" fill="none" stroke="black" stroke-width="10"/>
<path d="M-704,-1720 L-704,-1744 z" fill="none" stroke="black" stroke-width="10"/>
<path d="M-704,-1744 L-704,-1760 z" fill="none" stroke="black" stroke-width="10"/>
<path d="M-704,-1760 L-704,-1792 z" fill="none" stroke="black" stroke-width="10"/>
<path d="M-576,-1856 L-640,-1792 z" fill="none" stroke="black" stroke-width="10"/>
<path d="M-640,-1792 L-640,-1760 z" fill="none" stroke="black" stroke-width="10"/>
<path d="M-640,-1760 L-640,-1744 z" fill="none" stroke="black" stroke-width="10"/>
<path d="M-640,-1744 L-640,-1720 z" fill="none" stroke="black" stroke-width="10"/>
<path d="M-640,-1720 L-504,-1720 z" fill="none" stroke="black" stroke-width="10"/>
<path d="M-504,-1720 L-384,-1592 z" fill="none" stroke="black" stroke-width="10"/>
<path d="M-384,-1592 L-384,-1376 z" fill="none" stroke="black" stroke-width="10"/>
<path d="M-384,-1376 L-512,-1216 z" fill="none" stroke="black" stroke-width="10"/>
<path d="M-512,-1216 L-640,-1152 z" fill="none" stroke="black" stroke-width="10"/>
<path d="M-480,-736 L-576,-640 z" fill="none" stroke="black" stroke-width="10"/>
<path d="M-576,-640 L-576,-576 z" fill="none" stroke="black" stroke-width="10"/>
<path d="M384,64 L448,64 z" fill="none" stroke="black" stroke-width="10"/>
<path d="M448,64 L512,0 z" fill="none" stroke="black" stroke-width="10"/>
<path d="M512,0 L512,-64 z" fill="none" stroke="black" stroke-width="10"/>
<path d="M512,-64 L640,-64 z" fill="none" stroke="black" stroke-width="10"/>
<path d="M640,-64 L640,32 z" fill="none" stroke="black" stroke-width="10"/>
<path d="M640,32 L512,192 z" fill="none" stroke="black" stroke-width="10"/>
<path d="M512,192 L448,192 z" fill="none" stroke="black" stroke-width="10"/>
<path d="M512,-64 L512,-96 z" fill="none" stroke="black" stroke-width="10"/>
<path d="M472,-96 L448,-176 z" fill="none" stroke="black" stroke-width="10"/>
<path d="M416,-232 L152,-488 z" fill="none" stroke="black" stroke-width="10"/>
<path d="M152,-488 L328,-832 z" fill="none" stroke="black" stroke-width="10"/>
<path d="M328,-832 L832,-832 z" fill="none" stroke="black" stroke-width="10"/>
<path d="M832,-832 L960,-576 z" fill="none" stroke="black" stroke-width="10"/>
<path d="M960,-576 L960,-512 z" fill="none" stroke="black" stroke-width="10"/>
<path d="M960,-512 L960,-448 z" fill="none" stroke="black" stroke-width="10"/>
<path d="M960,-448 L448,-176 z" fill="none" stroke="black" stroke-width="10"/>
<path d="M640,-96 L640,-64 z" fill="none" stroke="black" stroke-width="10"/>
<path d="M704,-96 L640,-96 z" fill="none" stroke="black" stroke-width="10"/>
<path d="M960,-288 L720,-96 z" fill="none" stroke="black" stroke-width="10"/>
<path d="M960,-512 L896,-512 z" fill="none" stroke="black" stroke-width="10"/>
<path d="M896,-512 L416,-232 z" fill="none" stroke="black" stroke-width="10"/>
<path d="M640,-96 L512,-96 z" fill="none" stroke="black" stroke-width="10"/>
<path d="M960,-448 L960,-288 z" fill="none" stroke="black" stroke-width="10"/>
<path d="M-120,-192 L-128,-64 z" fill="none" stroke="black" stroke-width="10"/>
<path d="M960,-512 L984,-512 z" fill="none" stroke="black" stroke-width="10"/>
<path d="M984,-512 L984,-448 z" fill="none" stroke="black" stroke-width="10"/>
<path d="M984,-448 L960,-448 z" fill="none" stroke="black" stroke-width="10"/>
<path d="M984,-512 L992,-512 z" fill="none" stroke="black" stroke-width="10"/>
<path d="M992,-448 L984,-448 z" fill="none" stroke="black" stroke-width="10"/>
<path d="M992,-512 L1024,-512 z" fill="none" stroke="black" stroke-width="10"/>
<path d="M1024,-512 L1024,-832 z" fill="none" stroke="black" stroke-width="10"/>
<path d="M1024,-832 L960,-896 z" fill="none" stroke="black" stroke-width="10"/>
<path d="M960,-896 L-120,-896 z" fill="none" stroke="black" stroke-width="10"/>
<path d="M1088,-896 L1088,-448 z" fill="none" stroke="black" stroke-width="10"/>
<path d="M1024,-960 L1088,-896 z" fill="none" stroke="black" stroke-width="10"/>
<path d="M0,-960 L1024,-960 z" fill="none" stroke="black" stroke-width="10"/>
<path d="M1088,-448 L992,-448 z" fill="none" stroke="black" stroke-width="10"/>
<path d="M992,-448 L992,-512 z" fill="none" stroke="black" stroke-width="10"/>
<path d="M-120,-896 L-192,-1024 z" fill="none" stroke="black" stroke-width="10"/>
<path d="M-192,-1024 L-704,-1024 z" fill="none" stroke="black" stroke-width="10"/>
<path d="M-640,-1088 L0,-1088 z" fill="none" stroke="black" stroke-width="10"/>
<path d="M0,-1088 L0,-960 z" fill="none" stroke="black" stroke-width="10"/>
<path d="M-704,-1744 L-640,-1744 z" fill="none" stroke="black" stroke-width="10"/>
<path d="M-640,-1760 L-704,-1760 z" fill="none" stroke="black" stroke-width="10"/>
<path d="M-704,-1792 L-768,-1856 z" fill="none" stroke="black" stroke-width="10"/>
<path d="M-768,-1856 L-768,-1920 z" fill="none" stroke="black" stroke-width="10"/>
<path d="M-768,-1920 L-704,-1984 z" fill="none" stroke="black" stroke-width="10"/>
<path d="M-704,-1984 L-704,-2008 z" fill="none" stroke="black" stroke-width="10"/>
<path d="M-704,-2008 L-704,-2016 z" fill="none" stroke="black" stroke-width="10"/>
<path d="M-704,-2016 L-768,-2016 z" fill="none" stroke="black" stroke-width="10"/>
<path d="M-896,-2208 L-768,-2368 z" fill="none" stroke="black" stroke-width="10"/>
<path d="M-768,-2368 L-576,-2368 z" fill="none" stroke="black" stroke-width="10"/>
<path d="M-576,-2368 L-448,-2208 z" fill="none" stroke="black" stroke-width="10"/>
<path d="M-448,-2208 L-576,-2016 z" fill="none" stroke="black" stroke-width="10"/>
<path d="M-576,-2016 L-640,-2016 z" fill="none" stroke="black" stroke-width="10"/>
<path d="M-640,-2016 L-640,-2008 z" fill="none" stroke="black" stroke-width="10"/>
<path d="M-640,-2008 L-640,-1984 z" fill="none" stroke="black" stroke-width="10"/>
<path d="M-640,-1984 L-576,-1920 z" fill="none" stroke="black" stroke-width="10"/>
<path d="M-704,-2008 L-640,-2008 z" fill="none" stroke="black" stroke-width="10"/>
<path d="M-640,-2016 L-704,-2016 z" fill="none" stroke="black" stroke-width="10"/>
<path d="M-576,-640 L-704,-640 z" fill="none" stroke="black" stroke-width="10"/>
<path d="M-704,-2240 L-704,-2176 z" fill="none" stroke="black" stroke-width="10"/>
<path d="M-704,-2176 L-640,-2176 z" fill="none" stroke="black" stroke-width="10"/>
<path d="M-640,-2176 L-640,-2240 z" fill="none" stroke="black" stroke-width="10"/>
<path d="M512,-96 L472,-96 z" fill="none" stroke="black" stroke-width="10"/>
<path d="M448,192 L384,192 z" fill="none" stroke="black" stroke-width="10"/>
<path d="M0,-64 L0,-192 z" fill="none" stroke="black" stroke-width="10"/>
<path d="M-320,-216 L-440,-280 z" fill="none" stroke="black" stroke-width="10"/>
<path d="M-552,-200 L-376,-112 z" fill="none" stroke="black" stroke-width="10"/>
<path d="M-640,-2240 L-704,-2240 z" fill="none" stroke="black" stroke-width="10"/>
<path d="M-768,-1856 L-776,-1856 z" fill="none" stroke="black" stroke-width="10"/>
<path d="M-776,-1856 L-832,-1856 z" fill="none" stroke="black" stroke-width="10"/>
<path d="M-832,-1856 L-832,-1920 z" fill="none" stroke="black" stroke-width="10"/>
<path d="M-832,-1920 L-776,-1920 z" fill="none" stroke="black" stroke-width="10"/>
<path d="M-776,-1920 L-768,-1920 z" fill="none" stroke="black" stroke-width="10"/>
<path d="M-776,-1920 L-776,-1856 z" fill="none" stroke="black" stroke-width="10"/>
<path d="M-1024,-128 L-960,-384 z" fill="none" stroke="black" stroke-width="10"/>
<path d="M-704,256 L-1024,-128 z" fill="none" stroke="black" stroke-width="10"/>
<path d="M128,256 L-704,256 z" fill="none" stroke="black" stroke-width="10"/>
<path d="M128,64 L128,256 z" fill="none" stroke="black" stroke-width="10"/>
<path d="M0,0 L128,64 z" fill="none" stroke="black" stroke-width="10"/>
<path d="M-64,192 L-64,96 z" fill="none" stroke="black" stroke-width="10"/>
<path d="M-576,192 L-64,192 z" fill="none" stroke="black" stroke-width="10"/>
<path d="M-832,-64 L-576,192 z" fill="none" stroke="black" stroke-width="10"/>
<path d="M-856,-320 L-832,-64 z" fill="none" stroke="black" stroke-width="10"/>
<path d="M-832,-320 L-856,-320 z" fill="none" stroke="black" stroke-width="10"/>
<path d="M-64,192 L128,64 z" fill="none" stroke="black" stroke-width="10"/>
<path d="M-768,-704 L-768,-832 z" fill="none" stroke="black" stroke-width="10"/>
<path d="M-768,-832 L-704,-896 z" fill="none" stroke="black" stroke-width="10"/>
<path d="M-704,-896 L-576,-896 z" fill="none" stroke="black" stroke-width="10"/>
<path d="M-576,-896 L-480,-800 z" fill="none" stroke="black" stroke-width="10"/>
<path d="M-480,-800 L-192,-800 z" fill="none" stroke="black" stroke-width="10"/>
<path d="M-224,-736 L-480,-736 z" fill="none" stroke="black" stroke-width="10"/>
<path d="M-192,-800 L128,-512 z" fill="none" stroke="black" stroke-width="10"/>
<path d="M128,-512 L128,-208 z" fill="none" stroke="black" stroke-width="10"/>
<path d="M128,-208 L128,-192 z" fill="none" stroke="black" stroke-width="10"/>
<path d="M64,-192 L64,-208 z" fill="none" stroke="black" stroke-width="10"/>
<path d="M64,-208 L64,-480 z" fill="none" stroke="black" stroke-width="10"/>
<path d="M64,-480 L-224,-736 z" fill="none" stroke="black" stroke-width="10"/>
<path d="M64,-192 L128,-192 z" fill="none" stroke="black" stroke-width="10"/>
<path d="M128,-208 L64,-208 z" fill="none" stroke="black" stroke-width="10"/>
<path d="M-576,-1920 L-576,-1856 z" fill="none" stroke="black" stroke-width="10"/>
<path d="M-704,-1024 L-704,-1136 z" fill="none" stroke="black" stroke-width="10"/>
<path d="M-704,-1136 L-704,-1152 z" fill="none" stroke="black" stroke-width="10"/>
<path d="M-640,-1152 L-640,-1136 z" fill="none" stroke="black" stroke-width="10"/>
<path d="M-640,-1136 L-640,-1088 z" fill="none" stroke="black" stroke-width="10"/>
<path d="M-640,-1152 L-704,-1152 z" fill="none" stroke="black" stroke-width="10"/>
<path d="M-704,-1136 L-640,-1136 z" fill="none" stroke="black" stroke-width="10"/>
<path d="M720,-96 L704,-96 z" fill="none" stroke="black" stroke-width="10"/>
<path d="M448,-176 L416,-232 z" fill="none" stroke="black" stroke-width="10"/>
<path d="M288,1512 L384,1512 z" fill="none" stroke="black" stroke-width="10"/>
<path d="M384,1512 L448,1512 z" fill="none" stroke="black" stroke-width="10"/>
<path d="M448,1512 L512,1600 z" fill="none" stroke="black" stroke-width="10"/>
<path d="M512,1600 L448,1696 z" fill="none" stroke="black" stroke-width="10"/>
<path d="M448,1696 L288,1696 z" fill="none" stroke="black" stroke-width="10"/>
<path d="M288,1696 L224,1600 z" fill="none" stroke="black" stroke-width="10"/>
<path d="M224,1600 L288,1512 z" fill="none" stroke="black" stroke-width="10"/>
<path d="M-896,-2208 L-912,-2208 z" fill="none" stroke="black" stroke-width="10"/>
<path d="M-432,-2208 L-448,-2208 z" fill="none" stroke="black" stroke-width="10"/>
<path d="M-912,-2384 L-912,-2208 z" fill="none" stroke="black" stroke-width="10"/>
<path d="M-432,-2384 L-912,-2384 z" fill="none" stroke="black" stroke-width="10"/>
<path d="M-432,-2208 L-432,-2384 z" fill="none" stroke="black" stroke-width="10"/>
<path d="M-8,-2208 L-432,-2208 z" fill="none" stroke="black" stroke-width="10"/>
<path d="M384,-2816 L-8,-2208 z" fill="none" stroke="black" stroke-width="10"/>
<path d="M-640,-3840 L384,-2816 z" fill="none" stroke="black" stroke-width="10"/>
<path d="M-1736,-2816 L-640,-3840 z" fill="none" stroke="black" stroke-width="10"/>
<path d="M-1344,-2208 L-1736,-2816 z" fill="none" stroke="black" stroke-width="10"/>
<path d="M-912,-2208 L-1344,-2208 z" fill="none" stroke="black" stroke-width="10"/>
<path d="M-768,-2016 L-896,-2208 z" fill="none" stroke="black" stroke-width="10"/>
<path d="M-704,-2624 L-576,-2624 z" fill="none" stroke="black" stroke-width="10"/>
<path d="M-576,-2624 L-576,-2752 z" fill="none" stroke="black" stroke-width="10"/>
<path d="M-576,-2752 L-704,-2752 z" fill="none" stroke="black" stroke-width="10"/>
<path d="M-704,-2752 L-704,-2624 z" fill="none" stroke="black" stroke-width="10"/>
<path d="M-1216,-2816 L-1088,-2816 z" fill="none" stroke="black" stroke-width="10"/>
<path d="M-1088,-2816 L-1088,-2944 z" fill="none" stroke="black" stroke-width="10"/>
<path d="M-1088,-2944 L-1216,-2944 z" fill="none" stroke="black" stroke-width="10"/>
<path d="M-1216,-2944 L-1216,-2816 z" fill="none" stroke="black" stroke-width="10"/>
<path d="M-576,-3008 L-448,-3008 z" fill="none" stroke="black" stroke-width="10"/>
<path d="M-448,-3008 L-448,-3136 z" fill="none" stroke="black" stroke-width="10"/>
<path d="M-448,-3136 L-576,-3136 z" fill="none" stroke="black" stroke-width="10"/>
<path d="M-576,-3136 L-576,-3008 z" fill="none" stroke="black" stroke-width="10"/>
<path d="M-640,-1984 L-560,-1984 z" fill="none" stroke="black" stroke-width="10"/>
<path d="M-560,-1792 L-640,-1792 z" fill="none" stroke="black" stroke-width="10"/>
<path d="M-560,-1792 L-560,-1984 z" fill="none" stroke="black" stroke-width="10"/>
<path d="M-560,-1984 L-512,-1984 z" fill="none" stroke="black" stroke-width="10"/>
<path d="M-512,-1984 L-448,-1920 z" fill="none" stroke="black" stroke-width="10"/>
<path d="M-448,-1920 L-448,-1856 z" fill="none" stroke="black" stroke-width="10"/>
<path d="M-448,-1856 L-512,-1792 z" fill="none" stroke="black" stroke-width="10"/>
<path d="M-512,-1792 L-560,-1792 z" fill="none" stroke="black" stroke-width="10"/>
<path d="M-120,-1216 L-368,-1216 z" fill="none" stroke="black" stroke-width="10"/>
<path d="M128,-1536 L-120,-1216 z" fill="none" stroke="black" stroke-width="10"/>
<path d="M128,-1856 L128,-1536 z" fill="none" stroke="black" stroke-width="10"/>
<path d="M0,-2176 L128,-1856 z" fill="none" stroke="black" stroke-width="10"/>
<path d="M-384,-2176 L0,-2176 z" fill="none" stroke="black" stroke-width="10"/>
<path d="M-384,-1920 L-384,-2176 z" fill="none" stroke="black" stroke-width="10"/>
<path d="M-192,-1920 L-384,-1920 z" fill="none" stroke="black" stroke-width="10"/>
<path d="M-64,-1792 L-192,-1920 z" fill="none" stroke="black" stroke-width="10"/>
<path d="M-128,-1728 L-64,-1792 z" fill="none" stroke="black" stroke-width="10"/>
<path d="M-368,-1728 L-128,-1728 z" fill="none" stroke="black" stroke-width="10"/>
<path d="M-64,-1792 L128,-1856 z" fill="none" stroke="black" stroke-width="10"/>
<path d="M-504,-1720 L-368,-1728 z" fill="none" stroke="black" stroke-width="10"/>
<path d="M-368,-1216 L-512,-1216 z" fill="none" stroke="black" stroke-width="10"/>
<path d="M-368,-1216 L-368,-1728 z" fill="none" stroke="black" stroke-width="10"/>
<path d="M-256,-2752 L-128,-2752 z" fill="none" stroke="black" stroke-width="10"/>
<path d="M-128,-2752 L-128,-2880 z" fill="none" stroke="black" stroke-width="10"/>
<path d="M-128,-2880 L-256,-2880 z" fill="none" stroke="black" stroke-width="10"/>
<path d="M-256,-2880 L-256,-2752 z" fill="none" stroke="black" stroke-width="10"/>
<path d="M1024,-1088 L0,-1088 z" fill="none" stroke="black" stroke-width="10"/>
<path d="M0,-1088 L384,-2048 z" fill="none" stroke="black" stroke-width="10"/>
<path d="M384,-2048 L448,-2048 z" fill="none" stroke="black" stroke-width="10"/>
<path d="M448,-2048 L448,-1536 z" fill="none" stroke="black" stroke-width="10"/>
<path d="M448,-1536 L512,-1536 z" fill="none" stroke="black" stroke-width="10"/>
<path d="M512,-1536 L512,-2048 z" fill="none" stroke="black" stroke-width="10"/>
<path d="M512,-2048 L576,-2048 z" fill="none" stroke="black" stroke-width="10"/>
<path d="M576,-2048 L1024,-1088 z" fill="none" stroke="black" stroke-width="10"/>
<path d="M1024,-1088 L1024,-960 z" fill="none" stroke="black" stroke-width="10"/>
<path d="M736,-80 L720,-96 z" fill="none" stroke="black" stroke-width="10"/>
<path d="M960,-288 L976,-272 z" fill="none" stroke="black" stroke-width="10"/>
<path d="M736,-80 L976,-272 z" fill="none" stroke="black" stroke-width="10"/>
<path d="M736,-48 L736,-80 z" fill="none" stroke="black" stroke-width="10"/>
<path d="M976,-48 L736,-48 z" fill="none" stroke="black" stroke-width="10"/>
<path d="M976,-272 L976,-48 z" fill="none" stroke="black" stroke-width="10"/>
<path d="M448,-2048 L512,-2048 z" fill="none" stroke="black" stroke-width="10"/>
<path d="M-704,256 L-768,256 z" fill="none" stroke="black" stroke-width="10"/>
<path d="M-1024,-64 L-1024,-128 z" fill="none" stroke="black" stroke-width="10"/>
<path d="M-1024,-64 L-768,256 z" fill="none" stroke="black" stroke-width="10"/>
<path d="M-768,256 L-1024,256 z" fill="none" stroke="black" stroke-width="10"/>
<path d="M-1024,256 L-1024,-64 z" fill="none" stroke="black" stroke-width="10"/>
<path d="M416,448 L416,440 z" fill="none" stroke="black" stroke-width="10"/>
<path d="M480,440 L480,448 z" fill="none" stroke="black" stroke-width="10"/>
<path d="M480,440 L416,440 z" fill="none" stroke="black" stroke-width="10"/>
<path d="M416,440 L416,424 z" fill="none" stroke="black" stroke-width="10"/>
<path d="M416,424 L416,384 z" fill="none" stroke="black" stroke-width="10"/>
<path d="M480,384 L480,424 z" fill="none" stroke="black" stroke-width="10"/>
<path d="M480,424 L480,440 z" fill="none" stroke="black" stroke-width="10"/>
<path d="M416,424 L480,424 z" fill="none" stroke="black" stroke-width="10"/>
<path d="M416,384 L448,320 z" fill="none" stroke="black" stroke-width="10"/>
<path d="M448,320 L448,256 z" fill="none" stroke="black" stroke-width="10"/>
<path d="M448,256 L512,256 z" fill="none" stroke="black" stroke-width="10"/>
<path d="M512,256 L512,320 z" fill="none" stroke="black" stroke-width="10"/>
<path d="M512,320 L480,384 z" fill="none" stroke="black" stroke-width="10"/>
<path d="M448,320 L512,320 z" fill="none" stroke="black" stroke-width="10"/>
<path d="M480,384 L416,384 z" fill="none" stroke="black" stroke-width="10"/>
<path d="M1280,1152 L1280,1280 z" fill="none" stroke="black" stroke-width="10"/>
<path d="M1288,1280 L1280,1280 z" fill="none" stroke="black" stroke-width="10"/>
<path d="M1280,1152 L1288,1152 z" fill="none" stroke="black" stroke-width="10"/>
<path d="M1792,1280 L1288,1280 z" fill="none" stroke="black" stroke-width="10"/>
<path d="M1984,960 L1792,1280 z" fill="none" stroke="black" stroke-width="10"/>
<path d="M2176,960 L1984,960 z" fill="none" stroke="black" stroke-width="10"/>
<path d="M2176,896 L2176,960 z" fill="none" stroke="black" stroke-width="10"/>
<path d="M1984,896 L2176,896 z" fill="none" stroke="black" stroke-width="10"/>
<path d="M1984,832 L1984,896 z" fill="none" stroke="black" stroke-width="10"/>
<path d="M2176,832 L1984,832 z" fill="none" stroke="black" stroke-width="10"/>
<path d="M2176,768 L2176,832 z" fill="none" stroke="black" stroke-width="10"/>
<path d="M1984,768 L2176,768 z" fill="none" stroke="black" stroke-width="10"/>
<path d="M1984,704 L1984,768 z" fill="none" stroke="black" stroke-width="10"/>
<path d="M2176,704 L1984,704 z" fill="none" stroke="black" stroke-width="10"/>
<path d="M2176,640 L2176,704 z" fill="none" stroke="black" stroke-width="10"/>
<path d="M1984,640 L2176,640 z" fill="none" stroke="black" stroke-width="10"/>
<path d="M1984,576 L1984,640 z" fill="none" stroke="black" stroke-width="10"/>
<path d="M2176,576 L1984,576 z" fill="none" stroke="black" stroke-width="10"/>
<path d="M2176,512 L2176,576 z" fill="none" stroke="black" stroke-width="10"/>
<path d="M1984,512 L2176,512 z" fill="none" stroke="black" stroke-width="10"/>
<path d="M1984,448 L1984,512 z" fill="none" stroke="black" stroke-width="10"/>
<path d="M2176,448 L1984,448 z" fill="none" stroke="black" stroke-width="10"/>
<path d="M2176,384 L2176,448 z" fill="none" stroke="black" stroke-width="10"/>
<path d="M1984,384 L2176,384 z" fill="none" stroke="black" stroke-width="10"/>
<path d="M1984,320 L1984,384 z" fill="none" stroke="black" stroke-width="10"/>
<path d="M2176,320 L1984,320 z" fill="none" stroke="black" stroke-width="10"/>
<path d="M2176,256 L2176,320 z" fill="none" stroke="black" stroke-width="10"/>
<path d="M1984,256 L2176,256 z" fill="none" stroke="black" stroke-width="10"/>
<path d="M1288,1152 L1600,1152 z" fill="none" stroke="black" stroke-width="10"/>
<path d="M1600,1152 L1664,960 z" fill="none" stroke="black" stroke-width="10"/>
<path d="M1664,960 L1664,896 z" fill="none" stroke="black" stroke-width="10"/>
<path d="M1664,896 L1472,896 z" fill="none" stroke="black" stroke-width="10"/>
<path d="M1472,896 L1472,832 z" fill="none" stroke="black" stroke-width="10"/>
<path d="M1472,832 L1664,832 z" fill="none" stroke="black" stroke-width="10"/>
<path d="M1664,832 L1664,768 z" fill="none" stroke="black" stroke-width="10"/>
<path d="M1664,768 L1472,768 z" fill="none" stroke="black" stroke-width="10"/>
<path d="M1472,768 L1472,704 z" fill="none" stroke="black" stroke-width="10"/>
<path d="M1472,704 L1664,704 z" fill="none" stroke="black" stroke-width="10"/>
<path d="M1664,704 L1664,640 z" fill="none" stroke="black" stroke-width="10"/>
<path d="M1664,640 L1472,640 z" fill="none" stroke="black" stroke-width="10"/>
<path d="M1472,640 L1472,576 z" fill="none" stroke="black" stroke-width="10"/>
<path d="M1472,576 L1664,576 z" fill="none" stroke="black" stroke-width="10"/>
<path d="M1664,576 L1664,512 z" fill="none" stroke="black" stroke-width="10"/>
<path d="M1664,512 L1472,512 z" fill="none" stroke="black" stroke-width="10"/>
<path d="M1472,512 L1472,448 z" fill="none" stroke="black" stroke-width="10"/>
<path d="M1472,448 L1664,448 z" fill="none" stroke="black" stroke-width="10"/>
<path d="M1664,448 L1664,384 z" fill="none" stroke="black" stroke-width="10"/>
<path d="M1664,384 L1472,384 z" fill="none" stroke="black" stroke-width="10"/>
<path d="M1472,384 L1472,320 z" fill="none" stroke="black" stroke-width="10"/>
<path d="M1472,320 L1664,320 z" fill="none" stroke="black" stroke-width="10"/>
<path d="M1664,320 L1664,256 z" fill="none" stroke="black" stroke-width="10"/>
<path d="M1664,256 L1472,256 z" fill="none" stroke="black" stroke-width="10"/>
<path d="M1472,256 L1472,192 z" fill="none" stroke="black" stroke-width="10"/>
<path d="M1472,192 L1664,192 z" fill="none" stroke="black" stroke-width="10"/>
<path d="M1984,192 L1984,256 z" fill="none" stroke="black" stroke-width="10"/>
<path d="M2176,192 L1984,192 z" fill="none" stroke="black" stroke-width="10"/>
<path d="M2176,128 L2176,192 z" fill="none" stroke="black" stroke-width="10"/>
<path d="M1984,128 L2176,128 z" fill="none" stroke="black" stroke-width="10"/>
<path d="M1984,64 L1984,128 z" fill="none" stroke="black" stroke-width="10"/>
<path d="M2112,-128 L2048,-24 z" fill="none" stroke="black" stroke-width="10"/>
<path d="M1664,192 L1664,128 z" fill="none" stroke="black" stroke-width="10"/>
<path d="M1664,128 L1472,128 z" fill="none" stroke="black" stroke-width="10"/>
<path d="M1472,128 L1472,64 z" fill="none" stroke="black" stroke-width="10"/>
<path d="M1472,64 L1664,64 z" fill="none" stroke="black" stroke-width="10"/>
<path d="M1664,64 L1664,0 z" fill="none" stroke="black" stroke-width="10"/>
<path d="M1664,0 L1472,0 z" fill="none" stroke="black" stroke-width="10"/>
<path d="M1472,0 L1472,-64 z" fill="none" stroke="black" stroke-width="10"/>
<path d="M1472,-64 L1664,-64 z" fill="none" stroke="black" stroke-width="10"/>
<path d="M1664,-64 L2048,-384 z" fill="none" stroke="black" stroke-width="10"/>
<path d="M2048,-384 L2048,-576 z" fill="none" stroke="black" stroke-width="10"/>
<path d="M2048,-576 L2112,-576 z" fill="none" stroke="black" stroke-width="10"/>
<path d="M2112,-576 L2112,-384 z" fill="none" stroke="black" stroke-width="10"/>
<path d="M2112,-384 L2176,-384 z" fill="none" stroke="black" stroke-width="10"/>
<path d="M2176,-384 L2176,-576 z" fill="none" stroke="black" stroke-width="10"/>
<path d="M2176,-576 L2240,-576 z" fill="none" stroke="black" stroke-width="10"/>
<path d="M2240,-576 L2240,-384 z" fill="none" stroke="black" stroke-width="10"/>
<path d="M2240,-384 L2304,-384 z" fill="none" stroke="black" stroke-width="10"/>
<path d="M2304,-384 L2304,-576 z" fill="none" stroke="black" stroke-width="10"/>
<path d="M2304,-576 L2368,-576 z" fill="none" stroke="black" stroke-width="10"/>
<path d="M2368,-576 L2368,-384 z" fill="none" stroke="black" stroke-width="10"/>
<path d="M2368,-384 L2432,-384 z" fill="none" stroke="black" stroke-width="10"/>
<path d="M2432,-384 L2432,-576 z" fill="none" stroke="black" stroke-width="10"/>
<path d="M2432,-576 L2496,-576 z" fill="none" stroke="black" stroke-width="10"/>
<path d="M2496,-576 L2496,-384 z" fill="none" stroke="black" stroke-width="10"/>
<path d="M2496,-384 L2560,-384 z" fill="none" stroke="black" stroke-width="10"/>
<path d="M2560,-384 L2560,-576 z" fill="none" stroke="black" stroke-width="10"/>
<path d="M2560,-576 L2624,-576 z" fill="none" stroke="black" stroke-width="10"/>
<path d="M2624,-576 L2624,-384 z" fill="none" stroke="black" stroke-width="10"/>
<path d="M2624,-384 L2688,-384 z" fill="none" stroke="black" stroke-width="10"/>
<path d="M2688,-384 L2688,-576 z" fill="none" stroke="black" stroke-width="10"/>
<path d="M1664,-64 L1664,-384 z" fill="none" stroke="black" stroke-width="10"/>
<path d="M1664,-384 L2048,-384 z" fill="none" stroke="black" stroke-width="10"/>
<path d="M2112,64 L2112,-128 z" fill="none" stroke="black" stroke-width="10"/>
<path d="M2176,64 L2112,64 z" fill="none" stroke="black" stroke-width="10"/>
<path d="M2176,-128 L2176,64 z" fill="none" stroke="black" stroke-width="10"/>
<path d="M2240,-128 L2176,-128 z" fill="none" stroke="black" stroke-width="10"/>
<path d="M2240,64 L2240,-128 z" fill="none" stroke="black" stroke-width="10"/>
<path d="M2304,64 L2240,64 z" fill="none" stroke="black" stroke-width="10"/>
<path d="M2304,-128 L2304,64 z" fill="none" stroke="black" stroke-width="10"/>
<path d="M2368,-128 L2304,-128 z" fill="none" stroke="black" stroke-width="10"/>
<path d="M2368,64 L2368,-128 z" fill="none" stroke="black" stroke-width="10"/>
<path d="M2432,64 L2368,64 z" fill="none" stroke="black" stroke-width="10"/>
<path d="M2432,-128 L2432,64 z" fill="none" stroke="black" stroke-width="10"/>
<path d="M2496,-128 L2432,-128 z" fill="none" stroke="black" stroke-width="10"/>
<path d="M2496,64 L2496,-128 z" fill="none" stroke="black" stroke-width="10"/>
<path d="M2560,64 L2496,64 z" fill="none" stroke="black" stroke-width="10"/>
<path d="M2560,-128 L2560,64 z" fill="none" stroke="black" stroke-width="10"/>
<path d="M2624,-128 L2560,-128 z" fill="none" stroke="black" stroke-width="10"/>
<path d="M2624,64 L2624,-128 z" fill="none" stroke="black" stroke-width="10"/>
<path d="M2688,64 L2624,64 z" fill="none" stroke="black" stroke-width="10"/>
<path d="M2688,-128 L2688,64 z" fill="none" stroke="black" stroke-width="10"/>
<path d="M2752,-128 L2688,-128 z" fill="none" stroke="black" stroke-width="10"/>
<path d="M2752,64 L2752,-128 z" fill="none" stroke="black" stroke-width="10"/>
<path d="M2816,64 L2752,64 z" fill="none" stroke="black" stroke-width="10"/>
<path d="M2816,-128 L2816,64 z" fill="none" stroke="black" stroke-width="10"/>
<path d="M2880,-128 L2816,-128 z" fill="none" stroke="black" stroke-width="10"/>
<path d="M2880,64 L2880,-128 z" fill="none" stroke="black" stroke-width="10"/>
<path d="M2944,64 L2880,64 z" fill="none" stroke="black" stroke-width="10"/>
<path d="M2944,-128 L2944,64 z" fill="none" stroke="black" stroke-width="10"/>
<path d="M2688,-576 L2752,-576 z" fill="none" stroke="black" stroke-width="10"/>
<path d="M2752,-576 L2752,-384 z" fill="none" stroke="black" stroke-width="10"/>
<path d="M2752,-384 L2816,-384 z" fill="none" stroke="black" stroke-width="10"/>
<path d="M2816,-384 L2816,-576 z" fill="none" stroke="black" stroke-width="10"/>
<path d="M2816,-576 L2880,-576 z" fill="none" stroke="black" stroke-width="10"/>
<path d="M2880,-576 L2880,-384 z" fill="none" stroke="black" stroke-width="10"/>
<path d="M2880,-384 L2944,-384 z" fill="none" stroke="black" stroke-width="10"/>
<path d="M2944,-384 L2944,-576 z" fill="none" stroke="black" stroke-width="10"/>
<path d="M2944,-576 L3008,-576 z" fill="none" stroke="black" stroke-width="10"/>
<path d="M3008,-576 L3008,-384 z" fill="none" stroke="black" stroke-width="10"/>
<path d="M3008,-384 L3072,-384 z" fill="none" stroke="black" stroke-width="10"/>
<path d="M3072,-384 L3072,-576 z" fill="none" stroke="black" stroke-width="10"/>
<path d="M3072,-576 L3136,-576 z" fill="none" stroke="black" stroke-width="10"/>
<path d="M3136,-576 L3136,-384 z" fill="none" stroke="black" stroke-width="10"/>
<path d="M3136,-384 L3200,-384 z" fill="none" stroke="black" stroke-width="10"/>
<path d="M3264,-576 L3264,-320 z" fill="none" stroke="black" stroke-width="10"/>
<path d="M3392,-320 L3392,-192 z" fill="none" stroke="black" stroke-width="10"/>
<path d="M3264,-192 L3264,-128 z" fill="none" stroke="black" stroke-width="10"/>
<path d="M3264,-128 L3200,-128 z" fill="none" stroke="black" stroke-width="10"/>
<path d="M3200,-128 L3200,64 z" fill="none" stroke="black" stroke-width="10"/>
<path d="M3200,64 L3136,64 z" fill="none" stroke="black" stroke-width="10"/>
<path d="M3136,64 L3136,-128 z" fill="none" stroke="black" stroke-width="10"/>
<path d="M3136,-128 L3072,-128 z" fill="none" stroke="black" stroke-width="10"/>
<path d="M3072,-128 L3072,64 z" fill="none" stroke="black" stroke-width="10"/>
<path d="M3072,64 L3008,64 z" fill="none" stroke="black" stroke-width="10"/>
<path d="M3008,64 L3008,-128 z" fill="none" stroke="black" stroke-width="10"/>
<path d="M3008,-128 L2944,-128 z" fill="none" stroke="black" stroke-width="10"/>
<path d="M3200,-384 L3200,-576 z" fill="none" stroke="black" stroke-width="10"/>
<path d="M3200,-576 L3264,-576 z" fill="none" stroke="black" stroke-width="10"/>
<path d="M3264,-320 L3264,-192 z" fill="none" stroke="black" stroke-width="10"/>
<path d="M3392,-320 L3408,-320 z" fill="none" stroke="black" stroke-width="10"/>
<path d="M3408,-320 L3584,-320 z" fill="none" stroke="black" stroke-width="10"/>
<path d="M3584,-320 L3584,-192 z" fill="none" stroke="black" stroke-width="10"/>
<path d="M3584,-192 L3408,-192 z" fill="none" stroke="black" stroke-width="10"/>
<path d="M3408,-192 L3392,-192 z" fill="none" stroke="black" stroke-width="10"/>
<path d="M3408,-192 L3408,-320 z" fill="none" stroke="black" stroke-width="10"/>
<path d="M1600,1152 L1792,1280 z" fill="none" stroke="black" stroke-width="10"/>
<path d="M3264,-320 L3392,-320 z" fill="none" stroke="black" stroke-width="10"/>
<path d="M3392,-192 L3264,-192 z" fill="none" stroke="black" stroke-width="10"/>
<path d="M3408,-320 L3408,-344 z" fill="none" stroke="black" stroke-width="10"/>
<path d="M3408,-168 L3408,-192 z" fill="none" stroke="black" stroke-width="10"/>
<path d="M3616,-344 L3408,-344 z" fill="none" stroke="black" stroke-width="10"/>
<path d="M3616,-168 L3616,-344 z" fill="none" stroke="black" stroke-width="10"/>
<path d="M3408,-168 L3616,-168 z" fill="none" stroke="black" stroke-width="10"/>
<path d="M3408,-344 L3456,-576 z" fill="none" stroke="black" stroke-width="10"/>
<path d="M3456,-576 L3904,-320 z" fill="none" stroke="black" stroke-width="10"/>
<path d="M3904,-320 L3904,-192 z" fill="none" stroke="black" stroke-width="10"/>
<path d="M3904,-192 L3456,64 z" fill="none" stroke="black" stroke-width="10"/>
<path d="M3456,64 L3408,-168 z" fill="none" stroke="black" stroke-width="10"/>
<path d="M3200,-128 L3136,-128 z" fill="none" stroke="black" stroke-width="10"/>
<path d="M1024,-1088 L1040,-1088 z" fill="none" stroke="black" stroke-width="10"/>
<path d="M1040,-960 L1024,-960 z" fill="none" stroke="black" stroke-width="10"/>
<path d="M1040,-960 L1040,-1088 z" fill="none" stroke="black" stroke-width="10"/>
<path d="M1040,-1088 L1168,-1088 z" fill="none" stroke="black" stroke-width="10"/>
<path d="M1168,-1088 L1168,-960 z" fill="none" stroke="black" stroke-width="10"/>
<path d="M1168,-960 L1040,-960 z" fill="none" stroke="black" stroke-width="10"/>
<path d="M1664,-64 L1984,64 z" fill="none" stroke="black" stroke-width="10"/>
<path d="M2112,-128 L2048,-384 z" fill="none" stroke="black" stroke-width="10"/>
<path d="M1664,896 L1664,832 z" fill="none" stroke="black" stroke-width="10"/>
<path d="M2048,-24 L2048,64 z" fill="none" stroke="black" stroke-width="10"/>
<path d="M2048,64 L1984,64 z" fill="none" stroke="black" stroke-width="10"/>
<path d="M2048,-24 L1984,64 z" fill="none" stroke="black" stroke-width="10"/>
<path d="M1984,960 L1664,960 z" fill="none" stroke="black" stroke-width="10"/>
<path d="M1288,1152 L1288,1280 z" fill="none" stroke="black" stroke-width="10"/>
</svg>