<svg viewBox="0 -3400 10000 10000" xmlns="http://www.w3.org/2000/svg">
<path d="M128,-320 L128,-384 z" fill="none" stroke="black" stroke-width="10"/>
<path d="M128,-384 L192,-384 z" fill="none" stroke="black" stroke-width="10"/>
<path d="M192,-384 L192,-320 z" fill="none" stroke="black" stroke-width="10"/>
<path d="M192,-320 L256,-320 z" fill="none" stroke="black" stroke-width="10"/>
<path d="M256,-320 L256,-384 z" fill="none" stroke="black" stroke-width="10"/>
<path d="M256,-384 L320,-384 z" fill="none" stroke="black" stroke-width="10"/>
<path d="M320,-384 L320,-320 z" fill="none" stroke="black" stroke-width="10"/>
<path d="M320,-320 L384,-320 z" fill="none" stroke="black" stroke-width="10"/>
<path d="M384,-320 L384,-256 z" fill="none" stroke="black" stroke-width="10"/>
<path d="M384,-256 L448,-256 z" fill="none" stroke="black" stroke-width="10"/>
<path d="M448,-256 L448,-192 z" fill="none" stroke="black" stroke-width="10"/>
<path d="M448,-192 L384,-192 z" fill="none" stroke="black" stroke-width="10"/>
<path d="M384,-192 L384,-128 z" fill="none" stroke="black" stroke-width="10"/>
<path d="M384,-128 L320,-128 z" fill="none" stroke="black" stroke-width="10"/>
<path d="M320,-128 L288,-96 z" fill="none" stroke="black" stroke-width="10"/>
<path d="M160,-96 L128,-128 z" fill="none" stroke="black" stroke-width="10"/>
<path d="M128,-128 L64,-128 z" fill="none" stroke="black" stroke-width="10"/>
<path d="M64,-128 L64,-192 z" fill="none" stroke="black" stroke-width="10"/>
<path d="M64,-192 L0,-192 z" fill="none" stroke="black" stroke-width="10"/>
<path d="M0,-192 L0,-256 z" fill="none" stroke="black" stroke-width="10"/>
<path d="M0,-256 L64,-256 z" fill="none" stroke="black" stroke-width="10"/>
<path d="M64,-256 L64,-320 z" fill="none" stroke="black" stroke-width="10"/>
<path d="M64,-320 L128,-320 z" fill="none" stroke="black" stroke-width="10"/>
<path d="M288,-96 L288,-64 z" fill="none" stroke="black" stroke-width="10"/>
<path d="M160,-64 L160,-96 z" fill="none" stroke="black" stroke-width="10"/>
<path d="M320,-128 L128,-128 z" fill="none" stroke="black" stroke-width="10"/>
<path d="M288,-64 L320,-32 z" fill="none" stroke="black" stroke-width="10"/>
<path d="M128,-32 L160,-64 z" fill="none" stroke="black" stroke-width="10"/>
<path d="M128,-32 L320,-32 z" fill="none" stroke="black" stroke-width="10"/>
<path d="M352,64 L352,96 z" fill="none" stroke="black" stroke-width="10"/>
<path d="M352,96 L352,128 z" fill="none" stroke="black" stroke-width="10"/>
<path d="M352,128 L352,160 z" fill="none" stroke="black" stroke-width="10"/>
<path d="M352,160 L352,288 z" fill="none" stroke="black" stroke-width="10"/>
<path d="M352,288 L352,320 z" fill="none" stroke="black" stroke-width="10"/>
<path d="M352,320 L352,352 z" fill="none" stroke="black" stroke-width="10"/>
<path d="M352,352 L352,384 z" fill="none" stroke="black" stroke-width="10"/>
<path d="M440,384 L440,352 z" fill="none" stroke="black" stroke-width="10"/>
<path d="M440,352 L440,320 z" fill="none" stroke="black" stroke-width="10"/>
<path d="M440,320 L440,288 z" fill="none" stroke="black" stroke-width="10"/>
<path d="M440,288 L440,160 z" fill="none" stroke="black" stroke-width="10"/>
<path d="M440,160 L440,128 z" fill="none" stroke="black" stroke-width="10"/>
<path d="M440,128 L440,96 z" fill="none" stroke="black" stroke-width="10"/>
<path d="M440,96 L440,64 z" fill="none" stroke="black" stroke-width="10"/>
<path d="M352,96 L440,96 z" fill="none" stroke="black" stroke-width="10"/>
<path d="M352,128 L440,128 z" fill="none" stroke="black" stroke-width="10"/>
<path d="M352,160 L440,160 z" fill="none" stroke="black" stroke-width="10"/>
<path d="M440,288 L352,288 z" fill="none" stroke="black" stroke-width="10"/>
<path d="M440,320 L352,320 z" fill="none" stroke="black" stroke-width="10"/>
<path d="M440,352 L352,352 z" fill="none" stroke="black" stroke-width="10"/>
<path d="M448,384 L440,384 z" fill="none" stroke="black" stroke-width="10"/>
<path d="M352,64 L440,64 z" fill="none" stroke="black" stroke-width="10"/>
<path d="M440,64 L448,64 z" fill="none" stroke="black" stroke-width="10"/>
<path d="M440,384 L416,384 z" fill="none" stroke="black" stroke-width="10"/>
<path d="M416,384 L384,384 z" fill="none" stroke="black" stroke-width="10"/>
<path d="M384,384 L352,384 z" fill="none" stroke="black" stroke-width="10"/>
<path d="M440,384 L440,408 z" fill="none" stroke="black" stroke-width="10"/>
<path d="M352,408 L352,384 z" fill="none" stroke="black" stroke-width="10"/>
<path d="M352,408 L384,408 z" fill="none" stroke="black" stroke-width="10"/>
<path d="M384,408 L416,408 z" fill="none" stroke="black" stroke-width="10"/>
<path d="M416,408 L440,408 z" fill="none" stroke="black" stroke-width="10"/>
<path d="M384,384 L384,408 z" fill="none" stroke="black" stroke-width="10"/>
<path d="M416,408 L416,384 z" fill="none" stroke="black" stroke-width="10"/>
<path d="M352,424 L352,408 z" fill="none" stroke="black" stroke-width="10"/>
<path d="M320,424 L352,424 z" fill="none" stroke="black" stroke-width="10"/>
<path d="M192,424 L256,424 z" fill="none" stroke="black" stroke-width="10"/>
<path d="M0,424 L128,424 z" fill="none" stroke="black" stroke-width="10"/>
<path d="M192,384 L192,424 z" fill="none" stroke="black" stroke-width="10"/>
<path d="M256,424 L256,384 z" fill="none" stroke="black" stroke-width="10"/>
<path d="M320,384 L320,424 z" fill="none" stroke="black" stroke-width="10"/>
<path d="M352,384 L320,384 z" fill="none" stroke="black" stroke-width="10"/>
<path d="M256,384 L192,384 z" fill="none" stroke="black" stroke-width="10"/>
<path d="M128,384 L0,384 z" fill="none" stroke="black" stroke-width="10"/>
<path d="M128,424 L128,384 z" fill="none" stroke="black" stroke-width="10"/>
<path d="M320,384 L304,384 z" fill="none" stroke="black" stroke-width="10"/>
<path d="M304,384 L272,384 z" fill="none" stroke="black" stroke-width="10"/>
<path d="M272,384 L256,384 z" fill="none" stroke="black" stroke-width="10"/>
<path d="M192,384 L176,384 z" fill="none" stroke="black" stroke-width="10"/>
<path d="M176,384 L144,384 z" fill="none" stroke="black" stroke-width="10"/>
<path d="M144,384 L128,384 z" fill="none" stroke="black" stroke-width="10"/>
<path d="M256,424 L272,424 z" fill="none" stroke="black" stroke-width="10"/>
<path d="M272,424 L304,424 z" fill="none" stroke="black" stroke-width="10"/>
<path d="M304,424 L320,424 z" fill="none" stroke="black" stroke-width="10"/>
<path d="M128,424 L144,424 z" fill="none" stroke="black" stroke-width="10"/>
<path d="M144,424 L176,424 z" fill="none" stroke="black" stroke-width="10"/>
<path d="M176,424 L192,424 z" fill="none" stroke="black" stroke-width="10"/>
<path d="M304,424 L304,384 z" fill="none" stroke="black" stroke-width="10"/>
<path d="M272,384 L272,424 z" fill="none" stroke="black" stroke-width="10"/>
<path d="M176,424 L176,384 z" fill="none" stroke="black" stroke-width="10"/>
<path d="M144,384 L144,424 z" fill="none" stroke="black" stroke-width="10"/>
<path d="M440,576 L320,576 z" fill="none" stroke="black" stroke-width="10"/>
<path d="M320,576 L320,608 z" fill="none" stroke="black" stroke-width="10"/>
<path d="M320,608 L288,608 z" fill="none" stroke="black" stroke-width="10"/>
<path d="M288,608 L288,576 z" fill="none" stroke="black" stroke-width="10"/>
<path d="M288,576 L160,576 z" fill="none" stroke="black" stroke-width="10"/>
<path d="M160,576 L160,608 z" fill="none" stroke="black" stroke-width="10"/>
<path d="M160,608 L128,608 z" fill="none" stroke="black" stroke-width="10"/>
<path d="M128,608 L128,576 z" fill="none" stroke="black" stroke-width="10"/>
<path d="M128,576 L0,576 z" fill="none" stroke="black" stroke-width="10"/>
<path d="M440,408 L320,576 z" fill="none" stroke="black" stroke-width="10"/>
<path d="M288,576 L232,512 z" fill="none" stroke="black" stroke-width="10"/>
<path d="M232,512 L160,576 z" fill="none" stroke="black" stroke-width="10"/>
<path d="M128,576 L0,424 z" fill="none" stroke="black" stroke-width="10"/>
<path d="M128,64 L352,64 z" fill="none" stroke="black" stroke-width="10"/>
<path d="M128,192 L128,64 z" fill="none" stroke="black" stroke-width="10"/>
<path d="M0,192 L0,64 z" fill="none" stroke="black" stroke-width="10"/>
<path d="M8,192 L8,312 z" fill="none" stroke="black" stroke-width="10"/>
<path d="M8,312 L128,312 z" fill="none" stroke="black" stroke-width="10"/>
<path d="M128,312 L128,192 z" fill="none" stroke="black" stroke-width="10"/>
<path d="M0,384 L0,288 z" fill="none" stroke="black" stroke-width="10"/>
<path d="M-144,288 L-144,216 z" fill="none" stroke="black" stroke-width="10"/>
<path d="M0,216 L0,192 z" fill="none" stroke="black" stroke-width="10"/>
<path d="M0,288 L0,216 z" fill="none" stroke="black" stroke-width="10"/>
<path d="M-32,184 L-8,184 z" fill="none" stroke="black" stroke-width="10"/>
<path d="M-8,184 L-8,72 z" fill="none" stroke="black" stroke-width="10"/>
<path d="M-8,72 L-32,72 z" fill="none" stroke="black" stroke-width="10"/>
<path d="M-32,72 L-32,184 z" fill="none" stroke="black" stroke-width="10"/>
<path d="M0,192 L8,192 z" fill="none" stroke="black" stroke-width="10"/>
<path d="M8,192 L128,192 z" fill="none" stroke="black" stroke-width="10"/>
<path d="M320,-32 L384,-32 z" fill="none" stroke="black" stroke-width="10"/>
<path d="M448,-8 L448,64 z" fill="none" stroke="black" stroke-width="10"/>
<path d="M384,-32 L384,-120 z" fill="none" stroke="black" stroke-width="10"/>
<path d="M576,-120 L576,-8 z" fill="none" stroke="black" stroke-width="10"/>
<path d="M384,-32 L448,-8 z" fill="none" stroke="black" stroke-width="10"/>
<path d="M0,576 L0,512 z" fill="none" stroke="black" stroke-width="10"/>
<path d="M0,512 L-16,512 z" fill="none" stroke="black" stroke-width="10"/>
<path d="M-16,512 L-16,448 z" fill="none" stroke="black" stroke-width="10"/>
<path d="M-16,448 L0,448 z" fill="none" stroke="black" stroke-width="10"/>
<path d="M0,448 L0,424 z" fill="none" stroke="black" stroke-width="10"/>
<path d="M-256,64 L-256,192 z" fill="none" stroke="black" stroke-width="10"/>
<path d="M-256,192 L-256,512 z" fill="none" stroke="black" stroke-width="10"/>
<path d="M-256,-256 L-256,64 z" fill="none" stroke="black" stroke-width="10"/>
<path d="M-704,-192 L-384,-192 z" fill="none" stroke="black" stroke-width="10"/>
<path d="M-384,-192 L-320,-128 z" fill="none" stroke="black" stroke-width="10"/>
<path d="M-320,-128 L-320,384 z" fill="none" stroke="black" stroke-width="10"/>
<path d="M-320,384 L-384,448 z" fill="none" stroke="black" stroke-width="10"/>
<path d="M-704,448 L-768,384 z" fill="none" stroke="black" stroke-width="10"/>
<path d="M-768,384 L-768,-128 z" fill="none" stroke="black" stroke-width="10"/>
<path d="M-768,-128 L-704,-192 z" fill="none" stroke="black" stroke-width="10"/>
<path d="M-704,256 L-640,320 z" fill="none" stroke="black" stroke-width="10"/>
<path d="M-448,320 L-384,256 z" fill="none" stroke="black" stroke-width="10"/>
<path d="M-384,0 L-448,-64 z" fill="none" stroke="black" stroke-width="10"/>
<path d="M-640,-64 L-704,0 z" fill="none" stroke="black" stroke-width="10"/>
<path d="M-704,0 L-704,256 z" fill="none" stroke="black" stroke-width="10"/>
<path d="M-448,-64 L-512,-64 z" fill="none" stroke="black" stroke-width="10"/>
<path d="M-576,-64 L-640,-64 z" fill="none" stroke="black" stroke-width="10"/>
<path d="M-512,-32 L-512,0 z" fill="none" stroke="black" stroke-width="10"/>
<path d="M-512,0 L-512,32 z" fill="none" stroke="black" stroke-width="10"/>
<path d="M-512,32 L-512,64 z" fill="none" stroke="black" stroke-width="10"/>
<path d="M-576,64 L-576,32 z" fill="none" stroke="black" stroke-width="10"/>
<path d="M-576,32 L-576,0 z" fill="none" stroke="black" stroke-width="10"/>
<path d="M-576,0 L-576,-32 z" fill="none" stroke="black" stroke-width="10"/>
<path d="M-512,-64 L-576,-64 z" fill="none" stroke="black" stroke-width="10"/>
<path d="M-512,-32 L-576,-32 z" fill="none" stroke="black" stroke-width="10"/>
<path d="M-512,0 L-576,0 z" fill="none" stroke="black" stroke-width="10"/>
<path d="M-512,32 L-576,32 z" fill="none" stroke="black" stroke-width="10"/>
<path d="M-512,64 L-576,64 z" fill="none" stroke="black" stroke-width="10"/>
<path d="M-592,64 L-576,64 z" fill="none" stroke="black" stroke-width="10"/>
<path d="M-592,-48 L-592,64 z" fill="none" stroke="black" stroke-width="10"/>
<path d="M-688,8 L-632,-48 z" fill="none" stroke="black" stroke-width="10"/>
<path d="M-632,-48 L-592,-48 z" fill="none" stroke="black" stroke-width="10"/>
<path d="M-688,240 L-688,8 z" fill="none" stroke="black" stroke-width="10"/>
<path d="M-632,296 L-688,240 z" fill="none" stroke="black" stroke-width="10"/>
<path d="M-400,248 L-448,296 z" fill="none" stroke="black" stroke-width="10"/>
<path d="M-456,-48 L-400,8 z" fill="none" stroke="black" stroke-width="10"/>
<path d="M-496,-48 L-456,-48 z" fill="none" stroke="black" stroke-width="10"/>
<path d="M-512,64 L-496,64 z" fill="none" stroke="black" stroke-width="10"/>
<path d="M-496,64 L-496,-48 z" fill="none" stroke="black" stroke-width="10"/>
<path d="M-400,8 L-400,64 z" fill="none" stroke="black" stroke-width="10"/>
<path d="M-400,192 L-400,248 z" fill="none" stroke="black" stroke-width="10"/>
<path d="M-384,256 L-384,192 z" fill="none" stroke="black" stroke-width="10"/>
<path d="M-384,64 L-384,0 z" fill="none" stroke="black" stroke-width="10"/>
<path d="M-400,64 L-384,64 z" fill="none" stroke="black" stroke-width="10"/>
<path d="M-384,192 L-400,192 z" fill="none" stroke="black" stroke-width="10"/>
<path d="M-384,192 L-384,64 z" fill="none" stroke="black" stroke-width="10"/>
<path d="M-400,64 L-400,192 z" fill="none" stroke="black" stroke-width="10"/>
<path d="M-448,192 L-400,192 z" fill="none" stroke="black" stroke-width="10"/>
<path d="M-400,64 L-448,64 z" fill="none" stroke="black" stroke-width="10"/>
<path d="M-448,64 L-448,192 z" fill="none" stroke="black" stroke-width="10"/>
<path d="M-448,296 L-488,296 z" fill="none" stroke="black" stroke-width="10"/>
<path d="M-600,296 L-632,296 z" fill="none" stroke="black" stroke-width="10"/>
<path d="M-640,320 L-624,320 z" fill="none" stroke="black" stroke-width="10"/>
<path d="M-464,320 L-448,320 z" fill="none" stroke="black" stroke-width="10"/>
<path d="M-624,320 L-624,448 z" fill="none" stroke="black" stroke-width="10"/>
<path d="M-464,448 L-464,320 z" fill="none" stroke="black" stroke-width="10"/>
<path d="M-384,448 L-464,448 z" fill="none" stroke="black" stroke-width="10"/>
<path d="M-624,448 L-704,448 z" fill="none" stroke="black" stroke-width="10"/>
<path d="M-624,448 L-624,512 z" fill="none" stroke="black" stroke-width="10"/>
<path d="M-464,512 L-464,448 z" fill="none" stroke="black" stroke-width="10"/>
<path d="M-488,528 L-448,528 z" fill="none" stroke="black" stroke-width="10"/>
<path d="M-272,528 L-256,528 z" fill="none" stroke="black" stroke-width="10"/>
<path d="M-256,512 L-272,512 z" fill="none" stroke="black" stroke-width="10"/>
<path d="M-448,512 L-464,512 z" fill="none" stroke="black" stroke-width="10"/>
<path d="M-448,528 L-448,520 z" fill="none" stroke="black" stroke-width="10"/>
<path d="M-448,520 L-448,512 z" fill="none" stroke="black" stroke-width="10"/>
<path d="M-272,512 L-272,520 z" fill="none" stroke="black" stroke-width="10"/>
<path d="M-272,520 L-272,528 z" fill="none" stroke="black" stroke-width="10"/>
<path d="M-272,520 L-448,520 z" fill="none" stroke="black" stroke-width="10"/>
<path d="M-272,512 L-448,512 z" fill="none" stroke="black" stroke-width="10"/>
<path d="M-448,528 L-272,528 z" fill="none" stroke="black" stroke-width="10"/>
<path d="M-600,528 L-488,528 z" fill="none" stroke="black" stroke-width="10"/>
<path d="M-488,296 L-488,320 z" fill="none" stroke="black" stroke-width="10"/>
<path d="M-488,320 L-488,384 z" fill="none" stroke="black" stroke-width="10"/>
<path d="M-488,384 L-488,448 z" fill="none" stroke="black" stroke-width="10"/>
<path d="M-600,448 L-600,384 z" fill="none" stroke="black" stroke-width="10"/>
<path d="M-600,384 L-600,320 z" fill="none" stroke="black" stroke-width="10"/>
<path d="M-600,320 L-600,296 z" fill="none" stroke="black" stroke-width="10"/>
<path d="M-488,320 L-600,320 z" fill="none" stroke="black" stroke-width="10"/>
<path d="M-488,384 L-600,384 z" fill="none" stroke="black" stroke-width="10"/>
<path d="M-488,448 L-600,448 z" fill="none" stroke="black" stroke-width="10"/>
<path d="M-512,704 L-448,528 z" fill="none" stroke="black" stroke-width="10"/>
<path d="M-256,704 L-512,704 z" fill="none" stroke="black" stroke-width="10"/>
<path d="M-512,704 L-776,704 z" fill="none" stroke="black" stroke-width="10"/>
<path d="M-776,528 L-704,528 z" fill="none" stroke="black" stroke-width="10"/>
<path d="M-640,528 L-600,528 z" fill="none" stroke="black" stroke-width="10"/>
<path d="M-640,512 L-640,528 z" fill="none" stroke="black" stroke-width="10"/>
<path d="M-704,528 L-704,512 z" fill="none" stroke="black" stroke-width="10"/>
<path d="M-624,512 L-640,512 z" fill="none" stroke="black" stroke-width="10"/>
<path d="M-704,512 L-896,512 z" fill="none" stroke="black" stroke-width="10"/>
<path d="M-704,528 L-640,528 z" fill="none" stroke="black" stroke-width="10"/>
<path d="M-640,512 L-704,512 z" fill="none" stroke="black" stroke-width="10"/>
<path d="M-896,512 L-896,384 z" fill="none" stroke="black" stroke-width="10"/>
<path d="M-768,384 L-896,384 z" fill="none" stroke="black" stroke-width="10"/>
<path d="M448,64 L448,160 z" fill="none" stroke="black" stroke-width="10"/>
<path d="M448,160 L448,288 z" fill="none" stroke="black" stroke-width="10"/>
<path d="M448,288 L448,384 z" fill="none" stroke="black" stroke-width="10"/>
<path d="M448,160 L464,160 z" fill="none" stroke="black" stroke-width="10"/>
<path d="M464,288 L448,288 z" fill="none" stroke="black" stroke-width="10"/>
<path d="M464,160 L480,160 z" fill="none" stroke="black" stroke-width="10"/>
<path d="M480,160 L496,160 z" fill="none" stroke="black" stroke-width="10"/>
<path d="M496,288 L480,288 z" fill="none" stroke="black" stroke-width="10"/>
<path d="M480,288 L464,288 z" fill="none" stroke="black" stroke-width="10"/>
<path d="M496,160 L496,0 z" fill="none" stroke="black" stroke-width="10"/>
<path d="M496,320 L496,288 z" fill="none" stroke="black" stroke-width="10"/>
<path d="M464,160 L464,288 z" fill="none" stroke="black" stroke-width="10"/>
<path d="M480,288 L480,160 z" fill="none" stroke="black" stroke-width="10"/>
<path d="M0,64 L0,0 z" fill="none" stroke="black" stroke-width="10"/>
<path d="M64,-32 L128,-32 z" fill="none" stroke="black" stroke-width="10"/>
<path d="M0,0 L64,-32 z" fill="none" stroke="black" stroke-width="10"/>
<path d="M0,0 L-128,0 z" fill="none" stroke="black" stroke-width="10"/>
<path d="M-128,0 L-128,-120 z" fill="none" stroke="black" stroke-width="10"/>
<path d="M64,-120 L64,-32 z" fill="none" stroke="black" stroke-width="10"/>
<path d="M-128,-120 L0,-120 z" fill="none" stroke="black" stroke-width="10"/>
<path d="M0,-120 L64,-120 z" fill="none" stroke="black" stroke-width="10"/>
<path d="M0,-120 L0,0 z" fill="none" stroke="black" stroke-width="10"/>
<path d="M384,-120 L448,-120 z" fill="none" stroke="black" stroke-width="10"/>
<path d="M448,-120 L576,-120 z" fill="none" stroke="black" stroke-width="10"/>
<path d="M576,-8 L448,-8 z" fill="none" stroke="black" stroke-width="10"/>
<path d="M448,-8 L448,-120 z" fill="none" stroke="black" stroke-width="10"/>
<path d="M-216,64 L-216,8 z" fill="none" stroke="black" stroke-width="10"/>
<path d="M-216,8 L-64,8 z" fill="none" stroke="black" stroke-width="10"/>
<path d="M-64,8 L-64,64 z" fill="none" stroke="black" stroke-width="10"/>
<path d="M-64,64 L0,64 z" fill="none" stroke="black" stroke-width="10"/>
<path d="M760,256 L856,256 z" fill="none" stroke="black" stroke-width="10"/>
<path d="M856,256 L856,56 z" fill="none" stroke="black" stroke-width="10"/>
<path d="M856,56 L760,56 z" fill="none" stroke="black" stroke-width="10"/>
<path d="M760,56 L760,256 z" fill="none" stroke="black" stroke-width="10"/>
<path d="M776,136 L840,136 z" fill="none" stroke="black" stroke-width="10"/>
<path d="M840,136 L840,128 z" fill="none" stroke="black" stroke-width="10"/>
<path d="M840,128 L792,80 z" fill="none" stroke="black" stroke-width="10"/>
<path d="M792,80 L840,80 z" fill="none" stroke="black" stroke-width="10"/>
<path d="M840,80 L840,72 z" fill="none" stroke="black" stroke-width="10"/>
<path d="M840,72 L776,72 z" fill="none" stroke="black" stroke-width="10"/>
<path d="M824,128 L776,128 z" fill="none" stroke="black" stroke-width="10"/>
<path d="M776,128 L776,136 z" fill="none" stroke="black" stroke-width="10"/>
<path d="M776,80 L824,128 z" fill="none" stroke="black" stroke-width="10"/>
<path d="M776,72 L776,80 z" fill="none" stroke="black" stroke-width="10"/>
<path d="M776,160 L840,160 z" fill="none" stroke="black" stroke-width="10"/>
<path d="M840,160 L840,152 z" fill="none" stroke="black" stroke-width="10"/>
<path d="M840,152 L776,152 z" fill="none" stroke="black" stroke-width="10"/>
<path d="M776,152 L776,160 z" fill="none" stroke="black" stroke-width="10"/>
<path d="M840,176 L776,176 z" fill="none" stroke="black" stroke-width="10"/>
<path d="M840,184 L840,176 z" fill="none" stroke="black" stroke-width="10"/>
<path d="M776,176 L776,184 z" fill="none" stroke="black" stroke-width="10"/>
<path d="M776,184 L824,184 z" fill="none" stroke="black" stroke-width="10"/>
<path d="M792,232 L840,184 z" fill="none" stroke="black" stroke-width="10"/>
<path d="M840,232 L792,232 z" fill="none" stroke="black" stroke-width="10"/>
<path d="M776,240 L840,240 z" fill="none" stroke="black" stroke-width="10"/>
<path d="M840,240 L840,232 z" fill="none" stroke="black" stroke-width="10"/>
<path d="M824,184 L776,232 z" fill="none" stroke="black" stroke-width="10"/>
<path d="M776,232 L776,240 z" fill="none" stroke="black" stroke-width="10"/>
<path d="M520,32 L872,32 z" fill="none" stroke="black" stroke-width="10"/>
<path d="M872,32 L872,296 z" fill="none" stroke="black" stroke-width="10"/>
<path d="M872,296 L520,296 z" fill="none" stroke="black" stroke-width="10"/>
<path d="M496,0 L640,0 z" fill="none" stroke="black" stroke-width="10"/>
<path d="M640,0 L640,-16 z" fill="none" stroke="black" stroke-width="10"/>
<path d="M640,-16 L768,-16 z" fill="none" stroke="black" stroke-width="10"/>
<path d="M768,-16 L768,0 z" fill="none" stroke="black" stroke-width="10"/>
<path d="M768,320 L768,336 z" fill="none" stroke="black" stroke-width="10"/>
<path d="M768,336 L640,336 z" fill="none" stroke="black" stroke-width="10"/>
<path d="M640,336 L640,320 z" fill="none" stroke="black" stroke-width="10"/>
<path d="M640,320 L496,320 z" fill="none" stroke="black" stroke-width="10"/>
<path d="M904,320 L832,320 z" fill="none" stroke="black" stroke-width="10"/>
<path d="M832,320 L832,352 z" fill="none" stroke="black" stroke-width="10"/>
<path d="M832,352 L800,352 z" fill="none" stroke="black" stroke-width="10"/>
<path d="M800,352 L800,320 z" fill="none" stroke="black" stroke-width="10"/>
<path d="M800,320 L768,320 z" fill="none" stroke="black" stroke-width="10"/>
<path d="M768,0 L800,0 z" fill="none" stroke="black" stroke-width="10"/>
<path d="M800,0 L800,-32 z" fill="none" stroke="black" stroke-width="10"/>
<path d="M800,-32 L832,-32 z" fill="none" stroke="black" stroke-width="10"/>
<path d="M832,-32 L832,0 z" fill="none" stroke="black" stroke-width="10"/>
<path d="M832,0 L904,0 z" fill="none" stroke="black" stroke-width="10"/>
<path d="M800,0 L832,0 z" fill="none" stroke="black" stroke-width="10"/>
<path d="M832,320 L800,320 z" fill="none" stroke="black" stroke-width="10"/>
<path d="M640,-16 L640,-32 z" fill="none" stroke="black" stroke-width="10"/>
<path d="M768,-32 L768,-16 z" fill="none" stroke="black" stroke-width="10"/>
<path d="M640,-176 L768,-176 z" fill="none" stroke="black" stroke-width="10"/>
<path d="M640,-32 L768,-32 z" fill="none" stroke="black" stroke-width="10"/>
<path d="M640,-32 L640,-72 z" fill="none" stroke="black" stroke-width="10"/>
<path d="M768,-72 L768,-32 z" fill="none" stroke="black" stroke-width="10"/>
<path d="M768,-72 L640,-72 z" fill="none" stroke="black" stroke-width="10"/>
<path d="M640,-72 L640,-176 z" fill="none" stroke="black" stroke-width="10"/>
<path d="M768,-176 L768,-72 z" fill="none" stroke="black" stroke-width="10"/>
<path d="M520,296 L520,128 z" fill="none" stroke="black" stroke-width="10"/>
<path d="M520,128 L520,64 z" fill="none" stroke="black" stroke-width="10"/>
<path d="M520,64 L520,32 z" fill="none" stroke="black" stroke-width="10"/>
<path d="M904,0 L904,128 z" fill="none" stroke="black" stroke-width="10"/>
<path d="M1024,128 L1024,192 z" fill="none" stroke="black" stroke-width="10"/>
<path d="M904,192 L904,320 z" fill="none" stroke="black" stroke-width="10"/>
<path d="M904,128 L960,128 z" fill="none" stroke="black" stroke-width="10"/>
<path d="M960,128 L1024,128 z" fill="none" stroke="black" stroke-width="10"/>
<path d="M1024,192 L960,192 z" fill="none" stroke="black" stroke-width="10"/>
<path d="M960,192 L904,192 z" fill="none" stroke="black" stroke-width="10"/>
<path d="M960,128 L960,192 z" fill="none" stroke="black" stroke-width="10"/>
<path d="M768,336 L768,352 z" fill="none" stroke="black" stroke-width="10"/>
<path d="M640,352 L640,336 z" fill="none" stroke="black" stroke-width="10"/>
<path d="M768,352 L640,352 z" fill="none" stroke="black" stroke-width="10"/>
<path d="M768,352 L800,400 z" fill="none" stroke="black" stroke-width="10"/>
<path d="M600,400 L640,352 z" fill="none" stroke="black" stroke-width="10"/>
<path d="M600,400 L800,400 z" fill="none" stroke="black" stroke-width="10"/>
<path d="M800,664 L600,664 z" fill="none" stroke="black" stroke-width="10"/>
<path d="M800,400 L800,520 z" fill="none" stroke="black" stroke-width="10"/>
<path d="M800,520 L800,664 z" fill="none" stroke="black" stroke-width="10"/>
<path d="M600,664 L600,520 z" fill="none" stroke="black" stroke-width="10"/>
<path d="M600,520 L600,400 z" fill="none" stroke="black" stroke-width="10"/>
<path d="M600,520 L800,520 z" fill="none" stroke="black" stroke-width="10"/>
<path d="M-896,-256 L-256,-256 z" fill="none" stroke="black" stroke-width="10"/>
<path d="M-896,384 L-896,192 z" fill="none" stroke="black" stroke-width="10"/>
<path d="M-896,64 L-896,-256 z" fill="none" stroke="black" stroke-width="10"/>
<path d="M-896,192 L-912,192 z" fill="none" stroke="black" stroke-width="10"/>
<path d="M-912,64 L-896,64 z" fill="none" stroke="black" stroke-width="10"/>
<path d="M-912,192 L-912,64 z" fill="none" stroke="black" stroke-width="10"/>
<path d="M-928,64 L-912,64 z" fill="none" stroke="black" stroke-width="10"/>
<path d="M-912,192 L-928,192 z" fill="none" stroke="black" stroke-width="10"/>
<path d="M-928,64 L-928,192 z" fill="none" stroke="black" stroke-width="10"/>
<path d="M-928,192 L-944,192 z" fill="none" stroke="black" stroke-width="10"/>
<path d="M-944,192 L-944,256 z" fill="none" stroke="black" stroke-width="10"/>
<path d="M-944,0 L-944,64 z" fill="none" stroke="black" stroke-width="10"/>
<path d="M-944,64 L-928,64 z" fill="none" stroke="black" stroke-width="10"/>
<path d="M-896,192 L-896,64 z" fill="none" stroke="black" stroke-width="10"/>
<path d="M-256,528 L-256,552 z" fill="none" stroke="black" stroke-width="10"/>
<path d="M-256,552 L-256,688 z" fill="none" stroke="black" stroke-width="10"/>
<path d="M-256,688 L-256,704 z" fill="none" stroke="black" stroke-width="10"/>
<path d="M-256,552 L-208,552 z" fill="none" stroke="black" stroke-width="10"/>
<path d="M-208,552 L-8,552 z" fill="none" stroke="black" stroke-width="10"/>
<path d="M-8,552 L-8,688 z" fill="none" stroke="black" stroke-width="10"/>
<path d="M-8,688 L-208,688 z" fill="none" stroke="black" stroke-width="10"/>
<path d="M-208,688 L-256,688 z" fill="none" stroke="black" stroke-width="10"/>
<path d="M-208,688 L-208,552 z" fill="none" stroke="black" stroke-width="10"/>
<path d="M-128,288 L-144,288 z" fill="none" stroke="black" stroke-width="10"/>
<path d="M-64,288 L-128,288 z" fill="none" stroke="black" stroke-width="10"/>
<path d="M-64,288 L-64,304 z" fill="none" stroke="black" stroke-width="10"/>
<path d="M-128,304 L-64,304 z" fill="none" stroke="black" stroke-width="10"/>
<path d="M-128,304 L-128,288 z" fill="none" stroke="black" stroke-width="10"/>
<path d="M-64,304 L-64,320 z" fill="none" stroke="black" stroke-width="10"/>
<path d="M-64,320 L-24,320 z" fill="none" stroke="black" stroke-width="10"/>
<path d="M-24,320 L-24,520 z" fill="none" stroke="black" stroke-width="10"/>
<path d="M-24,520 L-232,520 z" fill="none" stroke="black" stroke-width="10"/>
<path d="M-232,520 L-232,320 z" fill="none" stroke="black" stroke-width="10"/>
<path d="M-128,320 L-128,304 z" fill="none" stroke="black" stroke-width="10"/>
<path d="M-64,320 L-128,320 z" fill="none" stroke="black" stroke-width="10"/>
<path d="M-144,216 L-64,216 z" fill="none" stroke="black" stroke-width="10"/>
<path d="M-64,288 L-64,216 z" fill="none" stroke="black" stroke-width="10"/>
<path d="M-64,216 L-24,216 z" fill="none" stroke="black" stroke-width="10"/>
<path d="M-24,216 L0,216 z" fill="none" stroke="black" stroke-width="10"/>
<path d="M0,288 L-24,288 z" fill="none" stroke="black" stroke-width="10"/>
<path d="M-24,288 L-64,288 z" fill="none" stroke="black" stroke-width="10"/>
<path d="M-192,512 L-64,512 z" fill="none" stroke="black" stroke-width="10"/>
<path d="M-64,512 L-64,448 z" fill="none" stroke="black" stroke-width="10"/>
<path d="M-192,448 L-192,512 z" fill="none" stroke="black" stroke-width="10"/>
<path d="M-232,320 L-192,320 z" fill="none" stroke="black" stroke-width="10"/>
<path d="M-192,320 L-192,288 z" fill="none" stroke="black" stroke-width="10"/>
<path d="M-192,288 L-160,288 z" fill="none" stroke="black" stroke-width="10"/>
<path d="M-160,288 L-160,320 z" fill="none" stroke="black" stroke-width="10"/>
<path d="M-160,320 L-128,320 z" fill="none" stroke="black" stroke-width="10"/>
<path d="M-192,320 L-160,320 z" fill="none" stroke="black" stroke-width="10"/>
<path d="M-64,448 L-128,448 z" fill="none" stroke="black" stroke-width="10"/>
<path d="M-128,448 L-192,448 z" fill="none" stroke="black" stroke-width="10"/>
<path d="M-248,576 L-248,584 z" fill="none" stroke="black" stroke-width="10"/>
<path d="M-248,584 L-240,584 z" fill="none" stroke="black" stroke-width="10"/>
<path d="M-240,584 L-240,576 z" fill="none" stroke="black" stroke-width="10"/>
<path d="M-240,576 L-248,576 z" fill="none" stroke="black" stroke-width="10"/>
<path d="M-248,608 L-248,616 z" fill="none" stroke="black" stroke-width="10"/>
<path d="M-248,616 L-240,616 z" fill="none" stroke="black" stroke-width="10"/>
<path d="M-240,616 L-240,608 z" fill="none" stroke="black" stroke-width="10"/>
<path d="M-240,608 L-248,608 z" fill="none" stroke="black" stroke-width="10"/>
<path d="M-248,640 L-248,648 z" fill="none" stroke="black" stroke-width="10"/>
<path d="M-248,648 L-240,648 z" fill="none" stroke="black" stroke-width="10"/>
<path d="M-240,648 L-240,640 z" fill="none" stroke="black" stroke-width="10"/>
<path d="M-240,640 L-248,640 z" fill="none" stroke="black" stroke-width="10"/>
<path d="M-248,664 L-248,672 z" fill="none" stroke="black" stroke-width="10"/>
<path d="M-248,672 L-240,672 z" fill="none" stroke="black" stroke-width="10"/>
<path d="M-240,672 L-240,664 z" fill="none" stroke="black" stroke-width="10"/>
<path d="M-240,664 L-248,664 z" fill="none" stroke="black" stroke-width="10"/>
<path d="M-776,552 L-776,528 z" fill="none" stroke="black" stroke-width="10"/>
<path d="M-776,704 L-776,680 z" fill="none" stroke="black" stroke-width="10"/>
<path d="M-776,680 L-776,552 z" fill="none" stroke="black" stroke-width="10"/>
<path d="M-776,704 L-832,704 z" fill="none" stroke="black" stroke-width="10"/>
<path d="M-832,528 L-776,528 z" fill="none" stroke="black" stroke-width="10"/>
<path d="M-832,528 L-832,704 z" fill="none" stroke="black" stroke-width="10"/>
<path d="M-832,704 L-1024,704 z" fill="none" stroke="black" stroke-width="10"/>
<path d="M-1024,704 L-1024,528 z" fill="none" stroke="black" stroke-width="10"/>
<path d="M-1024,528 L-832,528 z" fill="none" stroke="black" stroke-width="10"/>
<path d="M-792,552 L-792,560 z" fill="none" stroke="black" stroke-width="10"/>
<path d="M-792,560 L-784,560 z" fill="none" stroke="black" stroke-width="10"/>
<path d="M-784,560 L-784,552 z" fill="none" stroke="black" stroke-width="10"/>
<path d="M-784,552 L-792,552 z" fill="none" stroke="black" stroke-width="10"/>
<path d="M-792,584 L-792,592 z" fill="none" stroke="black" stroke-width="10"/>
<path d="M-792,592 L-784,592 z" fill="none" stroke="black" stroke-width="10"/>
<path d="M-784,592 L-784,584 z" fill="none" stroke="black" stroke-width="10"/>
<path d="M-784,584 L-792,584 z" fill="none" stroke="black" stroke-width="10"/>
<path d="M-792,616 L-792,624 z" fill="none" stroke="black" stroke-width="10"/>
<path d="M-792,624 L-784,624 z" fill="none" stroke="black" stroke-width="10"/>
<path d="M-784,624 L-784,616 z" fill="none" stroke="black" stroke-width="10"/>
<path d="M-784,616 L-792,616 z" fill="none" stroke="black" stroke-width="10"/>
<path d="M-792,648 L-792,656 z" fill="none" stroke="black" stroke-width="10"/>
<path d="M-792,656 L-784,656 z" fill="none" stroke="black" stroke-width="10"/>
<path d="M-784,656 L-784,648 z" fill="none" stroke="black" stroke-width="10"/>
<path d="M-784,648 L-792,648 z" fill="none" stroke="black" stroke-width="10"/>
<path d="M-256,64 L-232,64 z" fill="none" stroke="black" stroke-width="10"/>
<path d="M-232,64 L-216,64 z" fill="none" stroke="black" stroke-width="10"/>
<path d="M0,192 L-232,192 z" fill="none" stroke="black" stroke-width="10"/>
<path d="M-232,192 L-256,192 z" fill="none" stroke="black" stroke-width="10"/>
<path d="M-600,504 L-600,448 z" fill="none" stroke="black" stroke-width="10"/>
<path d="M-600,528 L-600,504 z" fill="none" stroke="black" stroke-width="10"/>
<path d="M-488,448 L-488,504 z" fill="none" stroke="black" stroke-width="10"/>
<path d="M-488,504 L-488,528 z" fill="none" stroke="black" stroke-width="10"/>
<path d="M-576,-32 L-576,-40 z" fill="none" stroke="black" stroke-width="10"/>
<path d="M-576,-40 L-576,-64 z" fill="none" stroke="black" stroke-width="10"/>
<path d="M-512,-64 L-512,-40 z" fill="none" stroke="black" stroke-width="10"/>
<path d="M-512,-40 L-512,-32 z" fill="none" stroke="black" stroke-width="10"/>
<path d="M-1152,256 L-1152,192 z" fill="none" stroke="black" stroke-width="10"/>
<path d="M-1152,192 L-1152,128 z" fill="none" stroke="black" stroke-width="10"/>
<path d="M-1152,128 L-1152,0 z" fill="none" stroke="black" stroke-width="10"/>
<path d="M-1088,192 L-1088,128 z" fill="none" stroke="black" stroke-width="10"/>
<path d="M-1152,0 L-1088,0 z" fill="none" stroke="black" stroke-width="10"/>
<path d="M-1088,0 L-1088,-32 z" fill="none" stroke="black" stroke-width="10"/>
<path d="M-1088,-32 L-1056,-32 z" fill="none" stroke="black" stroke-width="10"/>
<path d="M-1056,-32 L-1056,0 z" fill="none" stroke="black" stroke-width="10"/>
<path d="M-1056,0 L-944,0 z" fill="none" stroke="black" stroke-width="10"/>
<path d="M-944,256 L-1056,256 z" fill="none" stroke="black" stroke-width="10"/>
<path d="M-1056,256 L-1056,288 z" fill="none" stroke="black" stroke-width="10"/>
<path d="M-1056,288 L-1088,288 z" fill="none" stroke="black" stroke-width="10"/>
<path d="M-1088,288 L-1088,256 z" fill="none" stroke="black" stroke-width="10"/>
<path d="M-1088,256 L-1152,256 z" fill="none" stroke="black" stroke-width="10"/>
<path d="M-1088,112 L-1152,112 z" fill="none" stroke="black" stroke-width="10"/>
<path d="M-1152,128 L-1088,128 z" fill="none" stroke="black" stroke-width="10"/>
<path d="M-1088,128 L-1088,112 z" fill="none" stroke="black" stroke-width="10"/>
<path d="M-1152,208 L-1088,208 z" fill="none" stroke="black" stroke-width="10"/>
<path d="M-1088,208 L-1088,192 z" fill="none" stroke="black" stroke-width="10"/>
<path d="M-1088,192 L-1152,192 z" fill="none" stroke="black" stroke-width="10"/>
<path d="M-1024,128 L-1024,160 z" fill="none" stroke="black" stroke-width="10"/>
<path d="M-1024,160 L-1016,160 z" fill="none" stroke="black" stroke-width="10"/>
<path d="M-1016,160 L-1016,128 z" fill="none" stroke="black" stroke-width="10"/>
<path d="M-1016,128 L-1024,128 z" fill="none" stroke="black" stroke-width="10"/>
<path d="M-600,296 L-488,296 z" fill="none" stroke="black" stroke-width="10"/>
<path d="M440,408 L440,448 z" fill="none" stroke="black" stroke-width="10"/>
<path d="M440,448 L448,448 z" fill="none" stroke="black" stroke-width="10"/>
<path d="M448,448 L448,512 z" fill="none" stroke="black" stroke-width="10"/>
<path d="M448,512 L440,512 z" fill="none" stroke="black" stroke-width="10"/>
<path d="M440,512 L440,576 z" fill="none" stroke="black" stroke-width="10"/>
<path d="M496,288 L496,160 z" fill="none" stroke="black" stroke-width="10"/>
</svg>